<?xml version="1.0" standalone="no"?>
<!DOCTYPE svg PUBLIC "-//W3C//DTD SVG 1.1//EN" "http://www.w3.org/Graphics/SVG/1.1/DTD/svg11.dtd" >
<svg>
<metadata>
Created by FontForge 20090622 at Mon Mar 27 15:36:24 2017
 By deploy user
Copyright (c) Mark Simonson, 2005. All rights reserved.
</metadata>
<defs>
<font id="ProximaNovaExCn-Semibold" horiz-adv-x="402" >
  <font-face 
    font-family="Proxima Nova ExCn Lt"
    font-weight="600"
    font-stretch="normal"
    units-per-em="1000"
    panose-1="2 0 5 6 3 0 0 2 0 4"
    ascent="790"
    descent="-210"
    x-height="483"
    cap-height="667"
    bbox="-99 -278 831 886"
    underline-thickness="20"
    underline-position="-113"
    unicode-range="U+000D-U+FB04"
  />
<missing-glyph horiz-adv-x="464" 
d="M408 -90h-351v842h351v-842zM376 -60v782h-288v-782h288z" />
    <glyph glyph-name="f_f_j" unicode="ffj" horiz-adv-x="671" 
d="M398 0h-94v401h-46v82h46v63q0 62 29.5 96.5t79.5 34.5q36 0 61 -14l-18 -76q-6 7 -20 7q-17 0 -27.5 -13t-10.5 -35v-63h63v-82h-63v-401zM574 546q-24 0 -42 17.5t-18 41.5q0 25 18 42.5t42 17.5q25 0 42.5 -17.5t17.5 -42.5t-17.5 -42t-42.5 -17zM501 -196
q-39 0 -59 27l26 72q8 -16 26 -16q33 0 33 59v537h94v-537q0 -74 -29 -108t-91 -34zM159 0h-94v401h-46v82h46v63q0 63 30.5 97t87.5 34q49 0 78 -27l-27 -74q-15 18 -34 18q-41 0 -41 -48v-63h63v-82h-63v-401z" />
    <glyph glyph-name="f_j" unicode="fj" horiz-adv-x="433" 
d="M159 0h-94v401h-46v82h46v63q0 62 29.5 96.5t79.5 34.5q36 0 61 -14l-18 -76q-6 7 -20 7q-17 0 -27.5 -13t-10.5 -35v-63h63v-82h-63v-401zM336 546q-24 0 -42 17.5t-18 41.5q0 25 18 42.5t42 17.5q25 0 42.5 -17.5t17.5 -42.5t-17.5 -42t-42.5 -17zM263 -196
q-39 0 -59 27l26 72q8 -16 26 -16q33 0 33 59v537h94v-537q0 -74 -29 -108t-91 -34z" />
    <glyph glyph-name="f_f" unicode="ff" horiz-adv-x="477" 
d="M159 0h-94v401h-46v82h46v63q0 63 30.5 97t87.5 34q49 0 78 -27l-27 -74q-15 18 -34 18q-41 0 -41 -48v-63h63v-82h-63v-401zM398 0h-94v401h-46v82h46v63q0 63 30.5 97t87.5 34q50 0 78 -27l-27 -74q-15 18 -34 18q-41 0 -41 -48v-63h63v-82h-63v-401z" />
    <glyph glyph-name="fi" unicode="fi" horiz-adv-x="433" 
d="M159 0h-94v401h-46v82h46v63q0 62 29.5 96.5t79.5 34.5q36 0 61 -14l-18 -76q-6 7 -20 7q-17 0 -27.5 -13t-10.5 -35v-63h63v-82h-63v-401zM336 546q-24 0 -42 17.5t-18 41.5q0 25 18 42.5t42 17.5q25 0 42.5 -17.5t17.5 -42.5t-17.5 -42t-42.5 -17zM383 0h-94v483h94
v-483z" />
    <glyph glyph-name="fl" unicode="fl" horiz-adv-x="433" 
d="M159 0h-94v401h-46v82h46v63q0 62 29.5 96.5t79.5 34.5q36 0 61 -14l-18 -76q-6 7 -20 7q-17 0 -27.5 -13t-10.5 -35v-63h63v-82h-63v-401zM383 0h-94v667h94v-667z" />
    <glyph glyph-name="f_f_i" unicode="ffi" horiz-adv-x="671" 
d="M398 0h-94v401h-46v82h46v63q0 62 29.5 96.5t79.5 34.5q36 0 61 -14l-18 -76q-6 7 -20 7q-17 0 -27.5 -13t-10.5 -35v-63h63v-82h-63v-401zM574 546q-24 0 -42 17.5t-18 41.5q0 25 18 42.5t42 17.5q25 0 42.5 -17.5t17.5 -42.5t-17.5 -42t-42.5 -17zM621 0h-94v483h94
v-483zM159 0h-94v401h-46v82h46v63q0 63 30.5 97t87.5 34q49 0 78 -27l-27 -74q-15 18 -34 18q-41 0 -41 -48v-63h63v-82h-63v-401z" />
    <glyph glyph-name="f_f_l" unicode="ffl" horiz-adv-x="671" 
d="M398 0h-94v401h-46v82h46v63q0 62 29.5 96.5t79.5 34.5q36 0 61 -14l-18 -76q-6 7 -20 7q-17 0 -27.5 -13t-10.5 -35v-63h63v-82h-63v-401zM621 0h-94v667h94v-667zM159 0h-94v401h-46v82h46v63q0 63 30.5 97t87.5 34q49 0 78 -27l-27 -74q-15 18 -34 18q-41 0 -41 -48
v-63h63v-82h-63v-401z" />
    <glyph glyph-name="f_b" unicode="fb" horiz-adv-x="645" 
d="M159 0h-94v401h-46v82h46v63q0 62 29.5 96.5t79.5 34.5q36 0 61 -14l-18 -76q-6 7 -20 7q-17 0 -27.5 -13t-10.5 -35v-63h63v-82h-63v-401zM383 139q9 -29 26.5 -48.5t37.5 -19.5q70 0 70 170q0 171 -70 171q-20 0 -37.5 -20t-26.5 -49v-204zM383 0h-94v667h94v-247
q14 37 39.5 56t53.5 19q68 0 103 -69t35 -185q0 -117 -35 -185t-103 -68q-26 0 -52 19.5t-41 54.5v-62z" />
    <glyph glyph-name="f_h" unicode="fh" horiz-adv-x="640" 
d="M159 0h-94v401h-46v82h46v63q0 62 29.5 96.5t79.5 34.5q36 0 61 -14l-18 -76q-6 7 -20 7q-17 0 -27.5 -13t-10.5 -35v-63h63v-82h-63v-401zM591 0h-94v357q0 55 -41 55q-23 0 -42.5 -20.5t-30.5 -49.5v-342h-94v667h94v-249q16 31 47.5 54t63.5 23q97 0 97 -107v-388z
" />
    <glyph glyph-name="f_k" unicode="fk" horiz-adv-x="623" 
d="M159 0h-94v401h-46v82h46v63q0 62 29.5 96.5t79.5 34.5q36 0 61 -14l-18 -76q-6 7 -20 7q-17 0 -27.5 -13t-10.5 -35v-63h63v-82h-63v-401zM614 0h-102l-80 204l-49 -87v-117h-94v667h94v-426l127 242h102l-118 -215z" />
    <glyph glyph-name=".notdef" horiz-adv-x="464" 
d="M408 -90h-351v842h351v-842zM376 -60v782h-288v-782h288z" />
    <glyph glyph-name=".null" horiz-adv-x="0" 
 />
    <glyph glyph-name=".null" horiz-adv-x="0" 
 />
    <glyph glyph-name="nonmarkingreturn" horiz-adv-x="333" 
 />
    <glyph glyph-name="CR" unicode="&#xd;" horiz-adv-x="0" 
 />
    <glyph glyph-name="space" unicode=" " horiz-adv-x="167" 
 />
    <glyph glyph-name="exclam" unicode="!" horiz-adv-x="239" 
d="M160 198h-80l-18 469h115zM119 -11q-26 0 -45 19.5t-19 45.5t19 45t45 19q27 0 46 -19t19 -45t-19 -45.5t-46 -19.5z" />
    <glyph glyph-name="quotedbl" unicode="&#x22;" horiz-adv-x="366" 
d="M126 399h-44q-32 208 -32 224q0 22 16 38t38 16t38 -16t16 -38zM284 399h-44q-32 208 -32 224q0 23 16 38.5t38 15.5t38 -15.5t16 -38.5z" />
    <glyph glyph-name="numbersign" unicode="#" horiz-adv-x="441" 
d="M248 0h-73l43 177h-67l-41 -177h-72l41 177h-63l14 63h64l43 187h-64l13 62h65l42 178h72l-41 -178h66l41 178h72l-41 -178h63l-13 -62h-65l-43 -187h66l-14 -63h-67zM231 240l44 187h-66l-42 -187h64z" />
    <glyph glyph-name="dollar" unicode="$" horiz-adv-x="369" 
d="M158 -100v89q-90 5 -142 63l47 82q41 -53 106 -53q33 0 54 24t21 62q0 36 -21.5 66t-52.5 53.5t-62 49.5t-52.5 68.5t-21.5 96.5q0 63 33 109.5t91 61.5v96h73v-92q65 -8 109 -49l-42 -80q-37 38 -89 38q-30 0 -49.5 -22t-19.5 -57q0 -31 21.5 -58.5t52.5 -51.5t62 -52
t52.5 -72t21.5 -99q0 -65 -32 -112.5t-87 -64.5v-96h-73z" />
    <glyph glyph-name="percent" unicode="%" horiz-adv-x="580" 
d="M150 347q-57 0 -91.5 46.5t-34.5 117.5q0 72 34.5 119t91.5 47t91.5 -47t34.5 -119q0 -71 -34.5 -117.5t-91.5 -46.5zM175 0h-46l276 667h47zM430 -12q-57 0 -91.5 46.5t-34.5 117.5q0 72 34.5 119t91.5 47t91.5 -47t34.5 -119q0 -71 -34.5 -117.5t-91.5 -46.5zM150 407
q28 0 44 29t16 75q0 47 -16 76t-44 29t-44 -29t-16 -76q0 -46 16 -75t44 -29zM430 49q28 0 44 28.5t16 74.5q0 47 -16 76.5t-44 29.5t-44 -29.5t-16 -76.5q0 -46 16 -74.5t44 -28.5z" />
    <glyph glyph-name="ampersand" unicode="&#x26;" horiz-adv-x="426" 
d="M426 0h-101l-30 49q-55 -61 -123 -61q-62 0 -101.5 48.5t-39.5 132.5q0 68 26 114t72 86q-36 88 -36 144q0 73 34 118.5t88 45.5q48 0 82 -39t34 -97q0 -34 -8 -61.5t-28 -53t-31.5 -37.5t-40.5 -39q15 -34 38 -77l35 -65q14 43 32 124l76 -34q-24 -101 -60 -173
q8 -13 82 -125zM190 64q34 0 66 52q-34 58 -52 95q-17 31 -40 78q-38 -54 -38 -115q0 -49 18 -79.5t46 -30.5zM177 513q0 -37 16 -87q57 55 57 112q0 33 -10 51t-25 18q-38 0 -38 -94z" />
    <glyph glyph-name="quotesingle" unicode="'" horiz-adv-x="208" 
d="M126 399h-44q-32 208 -32 224q0 22 16 38t38 16t38 -16t16 -38z" />
    <glyph glyph-name="parenleft" unicode="(" horiz-adv-x="237" 
d="M217 -169l-68 -30q-102 207 -102 442t102 442l68 -29q-67 -204 -67 -413t67 -412z" />
    <glyph glyph-name="parenright" unicode=")" horiz-adv-x="237" 
d="M87 -199l-67 30q67 203 67 412t-67 413l67 29q103 -206 103 -442t-103 -442z" />
    <glyph glyph-name="asterisk" unicode="*" horiz-adv-x="313" 
d="M182 381h-51l5 113l-95 -61l-26 45l100 51l-100 51l26 45l95 -61l-5 113h51l-5 -113l95 61l26 -45l-101 -51l101 -51l-26 -45l-95 61z" />
    <glyph glyph-name="plus" unicode="+" horiz-adv-x="381" 
d="M352 306h-128v-149h-67v149h-128v62h128v143h67v-143h128v-62z" />
    <glyph glyph-name="comma" unicode="," horiz-adv-x="239" 
d="M189 32q0 -48 -24.5 -91t-64.5 -71l-43 35q25 15 45 42t24 52q-4 -2 -15 -2q-24 0 -40 16.5t-16 41.5q0 26 18.5 44.5t44.5 18.5q30 0 50.5 -23t20.5 -63z" />
    <glyph glyph-name="hyphen" unicode="-" horiz-adv-x="238" 
d="M208 201h-178v81h178v-81z" />
    <glyph glyph-name="period" unicode="." horiz-adv-x="239" 
d="M120 -10q-26 0 -45.5 19t-19.5 45t19.5 45t45.5 19t45 -19t19 -45t-19 -45t-45 -19z" />
    <glyph glyph-name="slash" unicode="/" horiz-adv-x="216" 
d="M69 -20h-69l147 707h69z" />
    <glyph glyph-name="zero" unicode="0" horiz-adv-x="436" 
d="M218 -12q-64 0 -107 53.5t-59 127.5t-16 164t16 164t59 127t107 53t107 -53t59 -127t16 -164t-16 -164t-58.5 -127.5t-107.5 -53.5zM218 81q46 0 60.5 65.5t14.5 186.5t-14.5 186t-60.5 65q-24 0 -40 -19.5t-23 -57.5t-9.5 -77.5t-2.5 -96.5q0 -121 14.5 -186.5
t60.5 -65.5z" />
    <glyph glyph-name="one" unicode="1" horiz-adv-x="324" 
d="M267 0h-104v531l-95 -101l-61 64l169 173h91v-667z" />
    <glyph glyph-name="two" unicode="2" horiz-adv-x="419" 
d="M382 0h-336v87q152 214 190 282.5t38 124.5q0 38 -20 64t-52 26q-64 0 -103 -78l-69 61q65 110 176 110q79 0 126.5 -50t47.5 -131q0 -66 -38.5 -144t-159.5 -260h200v-92z" />
    <glyph glyph-name="three" unicode="3" horiz-adv-x="418" 
d="M203 -12q-60 0 -106.5 30.5t-72.5 79.5l73 60q39 -77 101 -77q81 0 81 108q0 57 -25.5 81.5t-59.5 24.5q-30 0 -39 -2v95q8 -1 35 -1q38 0 60 24.5t22 71.5q0 101 -74 101q-63 0 -96 -70l-70 55q27 52 72 80t99 28q78 0 125 -45t47 -134q0 -53 -28 -97t-73 -56
q47 -10 78 -56t31 -107q0 -87 -47.5 -140.5t-132.5 -53.5z" />
    <glyph glyph-name="four" unicode="4" horiz-adv-x="403" 
d="M337 0h-104v158h-218v93l199 416h123v-417h51v-92h-51v-158zM233 250v292l-132 -292h132z" />
    <glyph glyph-name="five" unicode="5" horiz-adv-x="423" 
d="M208 -12q-63 0 -104.5 27.5t-71.5 82.5l71 60q35 -77 99 -77q37 0 59 37.5t22 89.5q0 127 -73 127q-48 0 -83 -58l-78 22v368h311v-92h-207v-203q32 54 94 54q65 0 104 -56t39 -160q0 -95 -49.5 -158.5t-132.5 -63.5z" />
    <glyph glyph-name="six" unicode="6" horiz-adv-x="421" 
d="M223 -12q-52 0 -89.5 28t-58 78t-30 109t-9.5 130q0 151 51.5 247.5t152.5 96.5q43 0 79.5 -21.5t57.5 -58.5l-57 -73q-26 60 -77 60q-35 0 -58.5 -36.5t-33 -87.5t-9.5 -112v-11q14 38 43 62.5t66 24.5q61 0 100.5 -56t39.5 -158q0 -94 -45.5 -158t-122.5 -64zM217 81
q35 0 51 36t16 89q0 128 -67 128q-48 0 -75 -86q5 -167 75 -167z" />
    <glyph glyph-name="seven" unicode="7" horiz-adv-x="364" 
d="M185 0h-111l157 575h-212v92h326v-72z" />
    <glyph glyph-name="eight" unicode="8" horiz-adv-x="419" 
d="M210 -12q-86 0 -131.5 46.5t-45.5 129.5q0 59 33 109.5t76 70.5q-41 18 -71 62t-30 102q0 82 48.5 125.5t120.5 43.5q71 0 120 -43.5t49 -125.5q0 -58 -30.5 -102t-71.5 -62q43 -20 76.5 -70t33.5 -109q0 -83 -46 -130t-131 -47zM210 379q10 5 22 15t27.5 37t15.5 59
q0 44 -16.5 69t-48.5 25q-66 0 -66 -94q0 -32 15.5 -59t28 -37.5t22.5 -14.5zM210 81q31 0 51.5 25.5t20.5 72.5q0 51 -27 87t-45 40q-18 -4 -45 -40t-27 -87q0 -47 19.5 -72.5t52.5 -25.5z" />
    <glyph glyph-name="nine" unicode="9" horiz-adv-x="421" 
d="M180 -11q-43 0 -79.5 21.5t-56.5 58.5l57 73q26 -60 77 -60q33 0 56.5 35t34 87t10.5 113v12q-15 -38 -43.5 -62.5t-65.5 -24.5q-61 0 -100.5 55.5t-39.5 158.5q0 94 45.5 158t122.5 64q51 0 88.5 -28t58.5 -78t30.5 -109t9.5 -130q0 -151 -52 -247.5t-153 -96.5z
M203 332q48 0 75 86q-3 167 -73 167q-35 0 -52 -36t-17 -89q0 -68 19 -98t48 -30z" />
    <glyph glyph-name="colon" unicode=":" horiz-adv-x="239" 
d="M120 362q-26 0 -45.5 19t-19.5 45t19.5 45t45.5 19t45 -19t19 -45t-19 -45t-45 -19zM120 -10q-26 0 -45.5 19t-19.5 45t19.5 45t45.5 19t45 -19t19 -45t-19 -45t-45 -19z" />
    <glyph glyph-name="semicolon" unicode=";" horiz-adv-x="239" 
d="M120 362q-26 0 -45.5 19t-19.5 45t19.5 45t45.5 19t45 -19t19 -45t-19 -45t-45 -19zM189 35q0 -48 -24.5 -91t-64.5 -72l-43 36q24 14 44.5 41t24.5 52q-4 -2 -15 -2q-24 0 -40 16.5t-16 42.5t18.5 44.5t44.5 18.5q30 0 50.5 -23.5t20.5 -62.5z" />
    <glyph glyph-name="less" unicode="&#x3c;" horiz-adv-x="381" 
d="M352 158l-323 143v67l323 143v-73l-249 -104l249 -102v-74z" />
    <glyph glyph-name="equal" unicode="=" horiz-adv-x="381" 
d="M352 399h-323v62h323v-62zM352 207h-323v62h323v-62z" />
    <glyph glyph-name="greater" unicode="&#x3e;" horiz-adv-x="381" 
d="M352 301l-323 -143v74l249 102l-249 104v73l323 -143v-67z" />
    <glyph glyph-name="question" unicode="?" horiz-adv-x="320" 
d="M125 192q-25 34 -25 86q0 38 15.5 71.5t33.5 54t33.5 50t15.5 61.5q0 28 -17.5 50t-45.5 22q-34 0 -60 -32l-44 66q51 57 127 57q64 0 103.5 -41t39.5 -102q0 -42 -17.5 -80t-39 -62t-39 -56t-17.5 -64q0 -28 17 -49zM163 -10q-26 0 -45.5 19t-19.5 45t19.5 45t45.5 19
t45 -19t19 -45t-19 -45t-45 -19z" />
    <glyph glyph-name="at" unicode="@" horiz-adv-x="620" 
d="M267 -70q-108 0 -170 76.5t-62 208.5q0 107 46 205t125 158.5t170 60.5q93 0 151 -65.5t58 -177.5q0 -128 -48 -219.5t-112 -91.5q-33 0 -54.5 18.5t-25.5 49.5l-1 8q-49 -76 -111 -76q-39 0 -66 29.5t-27 96.5q0 69 22.5 134.5t66.5 109.5t98 44q56 0 72 -69l11 53h84
l-56 -263q-3 -15 -3 -25q0 -24 6.5 -34t22.5 -10q11 0 25 16.5t27 46t22 78t9 103.5q0 99 -47 153.5t-126 54.5q-80 0 -150.5 -57t-110.5 -146t-40 -184q0 -113 52 -182t147 -69q72 0 143 56l18 -28q-80 -63 -166 -63zM272 153q26 0 44.5 18.5t37.5 51.5l32 148
q-12 59 -47 59q-34 0 -60.5 -35.5t-38.5 -81.5t-12 -89q0 -71 44 -71z" />
    <glyph glyph-name="A" unicode="A" horiz-adv-x="398" 
d="M395 0h-107l-23 136h-132l-23 -136h-107l136 667h120zM253 228l-54 320l-54 -320h108z" />
    <glyph glyph-name="B" unicode="B" horiz-adv-x="431" 
d="M240 0h-183v667h176q75 0 114 -47t39 -123q0 -123 -93 -153q45 -7 73.5 -54.5t28.5 -109.5q0 -83 -38.5 -131.5t-116.5 -48.5zM208 386q71 0 71 94q0 95 -71 95h-47v-189h47zM212 92q76 0 76 101q0 45 -19 73t-57 28h-51v-202h51z" />
    <glyph glyph-name="C" unicode="C" horiz-adv-x="412" 
d="M230 -12q-98 0 -146 94.5t-48 250.5q0 157 48 251t146 94q35 0 62 -12.5t45 -35.5t28.5 -45t19.5 -52l-84 -31q-12 42 -28 62.5t-43 20.5q-87 0 -87 -252t87 -252q54 0 72 99l85 -31q-39 -161 -157 -161z" />
    <glyph glyph-name="D" unicode="D" horiz-adv-x="455" 
d="M207 0h-150v667h149q108 0 160.5 -91t52.5 -243q0 -153 -52 -243t-160 -90zM206 92q106 0 106 241q0 242 -106 242h-45v-483h45z" />
    <glyph glyph-name="E" unicode="E" horiz-adv-x="367" 
d="M330 0h-273v667h273v-92h-169v-189h162v-92h-162v-202h169v-92z" />
    <glyph glyph-name="F" unicode="F" horiz-adv-x="365" 
d="M161 0h-104v667h273v-92h-169v-189h162v-92h-162v-294z" />
    <glyph glyph-name="G" unicode="G" horiz-adv-x="435" 
d="M230 -12q-97 0 -145.5 92.5t-48.5 252.5t48.5 252.5t145.5 92.5q116 0 155 -145l-84 -31q-11 41 -27 62t-44 21q-87 0 -87 -252t87 -252q43 0 65 35v144h-81v92h174v-280q-62 -84 -158 -84z" />
    <glyph glyph-name="H" unicode="H" horiz-adv-x="463" 
d="M407 0h-105v297h-141v-297h-104v667h104v-278h141v278h105v-667z" />
    <glyph glyph-name="I" unicode="I" horiz-adv-x="218" 
d="M161 0h-104v667h104v-667z" />
    <glyph glyph-name="J" unicode="J" horiz-adv-x="337" 
d="M115 -12q-64 0 -108 40l32 85q26 -32 65 -32q73 0 73 80v506h104v-511q0 -85 -44.5 -126.5t-121.5 -41.5z" />
    <glyph glyph-name="K" unicode="K" horiz-adv-x="448" 
d="M442 0h-119l-119 269l-43 -85v-184h-104v667h104v-325l153 325h115l-165 -315z" />
    <glyph glyph-name="L" unicode="L" horiz-adv-x="351" 
d="M330 0h-273v667h104v-575h169v-92z" />
    <glyph glyph-name="M" unicode="M" horiz-adv-x="591" 
d="M535 0h-103v425l-118 -425h-37l-116 425v-425h-104v667h135l104 -373l106 373h133v-667z" />
    <glyph glyph-name="N" unicode="N" horiz-adv-x="463" 
d="M407 0h-99l-147 386v-386h-104v667h104l141 -375v375h105v-667z" />
    <glyph glyph-name="O" unicode="O" horiz-adv-x="459" 
d="M229 -12q-98 0 -145.5 94.5t-47.5 250.5q0 155 47.5 250t145.5 95t146 -95t48 -250t-48 -250t-146 -95zM229 81q87 0 87 252t-87 252q-86 0 -86 -252t86 -252z" />
    <glyph glyph-name="P" unicode="P" horiz-adv-x="418" 
d="M161 0h-104v667h161q87 0 131.5 -58.5t44.5 -147.5t-44.5 -147.5t-131.5 -58.5h-57v-255zM208 347q38 0 58.5 31t20.5 83t-20.5 83t-58.5 31h-47v-228h47z" />
    <glyph glyph-name="Q" unicode="Q" horiz-adv-x="459" 
d="M229 -12q-98 0 -145.5 94.5t-47.5 250.5q0 155 47.5 250t145.5 95t146 -95t48 -250q0 -216 -83 -300l15 -39l-74 -29l-11 28q-22 -5 -41 -5zM229 81h7l-51 134l74 29l36 -95q21 64 21 184q0 252 -87 252q-86 0 -86 -252t86 -252z" />
    <glyph glyph-name="R" unicode="R" horiz-adv-x="438" 
d="M400 0h-112l-79 255h-48v-255h-104v667h166q75 0 123 -56t48 -147q0 -78 -26.5 -122.5t-62.5 -61.5zM208 347q38 0 58.5 31t20.5 83t-20.5 83t-58.5 31h-47v-228h47z" />
    <glyph glyph-name="S" unicode="S" horiz-adv-x="378" 
d="M175 -12q-100 0 -159 64l47 82q41 -53 106 -53q33 0 54 24t21 62q0 36 -21.5 66t-52.5 53.5t-62 49.5t-52.5 68.5t-21.5 96.5q0 76 47 126.5t125 50.5q81 0 134 -51l-42 -80q-37 38 -89 38q-30 0 -49.5 -22t-19.5 -57q0 -31 21.5 -58.5t52.5 -51.5t62 -52t52.5 -72
t21.5 -99q0 -81 -48 -133t-127 -52z" />
    <glyph glyph-name="T" unicode="T" horiz-adv-x="346" 
d="M225 0h-104v575h-103v92h310v-92h-103v-575z" />
    <glyph glyph-name="U" unicode="U" horiz-adv-x="464" 
d="M232 -12q-76 0 -125.5 49.5t-49.5 146.5v483h104v-488q0 -99 71 -99t71 99v488h104v-483q0 -97 -49.5 -146.5t-125.5 -49.5z" />
    <glyph glyph-name="V" unicode="V" horiz-adv-x="398" 
d="M259 0h-120l-136 667h107l89 -532l89 532h107z" />
    <glyph glyph-name="W" unicode="W" horiz-adv-x="587" 
d="M462 0h-107l-62 466l-61 -466h-107l-111 667h107l62 -483l68 483h85l69 -483l61 483h107z" />
    <glyph glyph-name="X" unicode="X" horiz-adv-x="408" 
d="M408 0h-116l-88 246l-88 -246h-115l143 340l-135 327h115l80 -235l80 235h116l-136 -327z" />
    <glyph glyph-name="Y" unicode="Y" horiz-adv-x="405" 
d="M255 0h-104v279l-154 388h112l94 -285l95 285h110l-153 -388v-279z" />
    <glyph glyph-name="Z" unicode="Z" horiz-adv-x="360" 
d="M330 0h-299v89l175 486h-175v92h292v-85l-178 -490h185v-92z" />
    <glyph glyph-name="bracketleft" unicode="[" horiz-adv-x="195" 
d="M177 -190h-142v868h142v-66h-72v-736h72v-66z" />
    <glyph glyph-name="backslash" unicode="\" horiz-adv-x="216" 
d="M148 -20l-147 707h68l147 -707h-68z" />
    <glyph glyph-name="bracketright" unicode="]" horiz-adv-x="195" 
d="M160 -190h-143v66h72v736h-72v66h143v-868z" />
    <glyph glyph-name="asciicircum" unicode="^" horiz-adv-x="334" 
d="M315 333h-70l-78 257l-78 -257h-70l113 334h70z" />
    <glyph glyph-name="underscore" unicode="_" horiz-adv-x="279" 
d="M282 -106h-285v66h285v-66z" />
    <glyph glyph-name="grave" unicode="`" horiz-adv-x="164" 
d="M164 556h-61l-103 144h85z" />
    <glyph glyph-name="a" unicode="a" horiz-adv-x="398" 
d="M348 0h-94v45q-16 -27 -43.5 -42t-54.5 -15q-57 0 -92.5 44t-35.5 117q0 72 35.5 115t92.5 43q27 0 55 -14t43 -40v67q0 95 -74 95q-51 0 -97 -49l-36 66q58 63 151 63q150 0 150 -155v-340zM187 53q20 0 38 15.5t29 41.5v73q-11 26 -29 42t-38 16q-32 0 -48.5 -26.5
t-16.5 -67.5t16.5 -67.5t48.5 -26.5z" />
    <glyph glyph-name="b" unicode="b" horiz-adv-x="406" 
d="M144 139q9 -29 26.5 -48.5t37.5 -19.5q70 0 70 170q0 171 -70 171q-20 0 -37.5 -20t-26.5 -49v-204zM144 0h-94v667h94v-247q14 37 39.5 56t53.5 19q68 0 103 -69t35 -185q0 -117 -35 -185t-103 -68q-26 0 -52 19.5t-41 54.5v-62z" />
    <glyph glyph-name="c" unicode="c" horiz-adv-x="333" 
d="M205 -12q-81 0 -127.5 71t-46.5 183t46.5 182.5t127.5 70.5q69 0 109 -44l-33 -72q-29 33 -61 33q-45 0 -68.5 -48.5t-23.5 -121.5t23.5 -122t68.5 -49q32 0 61 33l33 -72q-37 -44 -109 -44z" />
    <glyph glyph-name="d" unicode="d" horiz-adv-x="406" 
d="M356 0h-94v62q-15 -35 -41 -54.5t-52 -19.5q-68 0 -103 68t-35 185q0 116 35 185t103 69q28 0 53.5 -19t39.5 -56v247h94v-667zM198 71q20 0 38 20t26 48v205q-8 28 -26 48t-38 20q-70 0 -70 -171q0 -170 70 -170z" />
    <glyph glyph-name="e" unicode="e" horiz-adv-x="391" 
d="M213 -12q-88 0 -135 70t-47 184q0 111 43.5 182t126.5 71t123 -69.5t40 -181.5v-33h-241q1 -66 26 -106t73 -40q45 0 80 52l49 -51q-56 -78 -138 -78zM272 278q0 140 -74 140q-40 0 -57.5 -42.5t-17.5 -97.5h149z" />
    <glyph glyph-name="f" unicode="f" horiz-adv-x="239" 
d="M159 0h-94v401h-46v82h46v63q0 63 30.5 97t87.5 34q49 0 78 -27l-27 -74q-15 18 -34 18q-41 0 -41 -48v-63h63v-82h-63v-401z" />
    <glyph glyph-name="g" unicode="g" horiz-adv-x="406" 
d="M187 -196q-88 0 -140 51l34 78q43 -46 97 -46q84 0 84 110v79q-15 -36 -41 -56t-52 -20q-68 0 -103 65t-35 182q0 115 35 181.5t103 66.5q28 0 53.5 -19t39.5 -56v63h94v-474q0 -205 -169 -205zM198 83q20 0 38 20t26 48v193q-8 28 -26 48t-38 20q-70 0 -70 -165
q0 -164 70 -164z" />
    <glyph glyph-name="h" unicode="h" 
d="M352 0h-94v357q0 55 -41 55q-23 0 -42.5 -20.5t-30.5 -49.5v-342h-94v667h94v-249q16 31 47.5 54t63.5 23q97 0 97 -107v-388z" />
    <glyph glyph-name="i" unicode="i" horiz-adv-x="194" 
d="M97 546q-24 0 -42 17.5t-18 41.5q0 25 18 42.5t42 17.5q25 0 42.5 -17.5t17.5 -42.5t-17.5 -42t-42.5 -17zM144 0h-94v483h94v-483z" />
    <glyph glyph-name="j" unicode="j" horiz-adv-x="194" 
d="M97 546q-24 0 -42 17.5t-18 41.5q0 25 18 42.5t42 17.5q25 0 42.5 -17.5t17.5 -42.5t-17.5 -42t-42.5 -17zM24 -196q-40 0 -59 27l26 72q8 -16 26 -16q33 0 33 59v537h94v-537q0 -74 -29 -108t-91 -34z" />
    <glyph glyph-name="k" unicode="k" horiz-adv-x="385" 
d="M375 0h-102l-80 204l-49 -87v-117h-94v667h94v-426l127 242h102l-118 -215z" />
    <glyph glyph-name="l" unicode="l" horiz-adv-x="194" 
d="M144 0h-94v667h94v-667z" />
    <glyph glyph-name="m" unicode="m" horiz-adv-x="610" 
d="M560 0h-94v356q0 56 -41 56q-23 0 -43 -21t-30 -49v-342h-94v356q0 56 -41 56q-23 0 -43 -21t-30 -49v-342h-94v483h94v-65q14 30 46 53.5t65 23.5q39 0 64.5 -20.5t29.5 -60.5q15 33 47.5 57t66.5 24q97 0 97 -108v-387z" />
    <glyph glyph-name="n" unicode="n" 
d="M352 0h-94v356q0 56 -41 56q-23 0 -42.5 -20.5t-30.5 -49.5v-342h-94v483h94v-65q16 31 47.5 54t63.5 23q97 0 97 -108v-387z" />
    <glyph glyph-name="o" unicode="o" 
d="M201 -12q-85 0 -127.5 72.5t-42.5 181.5t42.5 181t127.5 72t127 -72t42 -181t-42 -181.5t-127 -72.5zM201 71q72 0 72 171q0 170 -72 170t-72 -170q0 -171 72 -171z" />
    <glyph glyph-name="p" unicode="p" horiz-adv-x="406" 
d="M237 -12q-28 0 -53.5 19t-39.5 56v-247h-94v667h94v-62q15 35 41 54.5t52 19.5q68 0 103 -68t35 -185q0 -116 -35 -185t-103 -69zM208 71q70 0 70 171q0 170 -70 170q-20 0 -38 -19.5t-26 -47.5v-206q9 -28 26.5 -48t37.5 -20z" />
    <glyph glyph-name="q" unicode="q" horiz-adv-x="406" 
d="M198 71q20 0 38 20t26 48v206q-8 28 -26 47.5t-38 19.5q-70 0 -70 -170q0 -171 70 -171zM169 -12q-68 0 -103 69t-35 185q0 117 35 185t103 68q26 0 52 -19.5t41 -54.5v62h94v-667h-94v247q-14 -37 -39.5 -56t-53.5 -19z" />
    <glyph glyph-name="r" unicode="r" horiz-adv-x="268" 
d="M144 0h-94v483h94v-71q16 36 46 59t64 23v-94q-10 3 -20 3q-27 0 -51 -20t-39 -50v-333z" />
    <glyph glyph-name="s" unicode="s" horiz-adv-x="330" 
d="M162 -12q-97 0 -146 62l41 65q43 -52 97 -52q28 0 46.5 16.5t18.5 43.5q0 25 -19.5 44t-47 34.5t-54.5 34t-46.5 51.5t-19.5 78q0 56 38.5 93t104.5 37q77 0 130 -56l-40 -63q-33 44 -88 44q-25 0 -41 -15t-16 -37q0 -23 19.5 -41.5t47 -33.5t55 -34t47 -53t19.5 -80
q0 -61 -41.5 -99.5t-104.5 -38.5z" />
    <glyph glyph-name="t" unicode="t" horiz-adv-x="247" 
d="M165 -12q-53 0 -76.5 28t-23.5 87v298h-47v82h47v132h94v-132h63v-82h-63v-281q0 -49 28 -49q18 0 30 15l22 -72q-26 -26 -74 -26z" />
    <glyph glyph-name="u" unicode="u" 
d="M352 0h-94v63q-16 -31 -46.5 -53t-64.5 -22q-97 0 -97 107v388h94v-357q0 -55 41 -55q23 0 43 20t30 48v344h94v-483z" />
    <glyph glyph-name="v" unicode="v" horiz-adv-x="357" 
d="M229 0h-102l-122 483h100l73 -366l75 366h99z" />
    <glyph glyph-name="w" unicode="w" horiz-adv-x="579" 
d="M462 0h-98l-74 355l-75 -355h-98l-108 483h97l66 -354l69 354h92l73 -354l67 354h98z" />
    <glyph glyph-name="x" unicode="x" horiz-adv-x="352" 
d="M345 0h-101l-68 173l-69 -173h-100l111 244l-106 239h100l64 -168l64 168h99l-105 -239z" />
    <glyph glyph-name="y" unicode="y" horiz-adv-x="357" 
d="M37 -189l14 82q11 -6 23 -6q30 0 41 39l16 61l-126 496h100l73 -364l75 364h99l-148 -577q-16 -58 -43 -80t-75 -22q-32 0 -49 7z" />
    <glyph glyph-name="z" unicode="z" horiz-adv-x="321" 
d="M291 0h-261v72l146 329h-146v82h257v-69l-146 -332h150v-82z" />
    <glyph glyph-name="braceleft" unicode="{" horiz-adv-x="212" 
d="M195 -190h-29q-44 0 -76.5 31.5t-32.5 80.5v225q0 29 -13.5 48.5t-38.5 19.5v58q25 0 38.5 19.5t13.5 48.5v224q0 49 32.5 81t76.5 32h29v-66h-29q-16 0 -27.5 -13t-11.5 -34v-232q0 -70 -45 -89q45 -19 45 -89v-233q0 -20 11.5 -33.5t27.5 -13.5h29v-65z" />
    <glyph glyph-name="bar" unicode="|" horiz-adv-x="179" 
d="M122 -20h-65v707h65v-707z" />
    <glyph glyph-name="braceright" unicode="}" horiz-adv-x="212" 
d="M17 -190v65h29q16 0 27.5 13.5t11.5 33.5v233q0 70 45 89q-45 19 -45 89v232q0 21 -11.5 34t-27.5 13h-29v66h29q44 0 76.5 -32t32.5 -81v-224q0 -29 13.5 -48.5t38.5 -19.5v-58q-25 0 -38.5 -19.5t-13.5 -48.5v-225q0 -49 -32.5 -80.5t-76.5 -31.5h-29z" />
    <glyph glyph-name="asciitilde" unicode="~" horiz-adv-x="407" 
d="M313 667l67 -6q-2 -47 -6.5 -81t-16 -75t-35 -63.5t-58.5 -22.5t-55 29t-25.5 63.5t-15 63.5t-25.5 29q-23 0 -32 -39t-17 -147l-67 7q2 46 7 80.5t16 75t35 63t58 22.5q35 0 55 -29t25.5 -64t15.5 -64t25 -29q23 0 32 39t17 148z" />
    <glyph glyph-name="nbspace" unicode="&#xa0;" horiz-adv-x="167" 
 />
    <glyph glyph-name="exclamdown" unicode="&#xa1;" horiz-adv-x="239" 
d="M62 -184l18 469h80l18 -469h-116zM55 429q0 26 19.5 45t45.5 19t45.5 -19t19.5 -45t-19.5 -45t-45.5 -19t-45.5 19t-19.5 45z" />
    <glyph glyph-name="cent" unicode="&#xa2;" horiz-adv-x="333" 
d="M175 -100v91q-68 12 -106 81t-38 170t38 169.5t106 80.5v73h71v-75q40 -10 68 -39l-33 -72q-20 22 -35 28v-331q17 7 35 28l33 -72q-25 -30 -68 -40v-92h-71zM128 242q0 -114 47 -154v307q-47 -40 -47 -153z" />
    <glyph glyph-name="sterling" unicode="&#xa3;" horiz-adv-x="405" 
d="M30 274v63h56q-39 76 -39 145q0 81 51 138t124 57q59 0 100 -32t53 -92l-83 -36q-9 36 -23.5 55t-41.5 19q-28 0 -48 -30t-20 -81q0 -19 2 -35.5t7.5 -33l8.5 -25t11.5 -26.5t10.5 -23h74v-63h-55q3 -18 3 -39q0 -35 -17.5 -74t-42.5 -61q18 9 37 9q23 0 51.5 -14
t46.5 -14q43 0 66 32l31 -82q-13 -18 -43.5 -30.5t-62.5 -12.5q-37 0 -72.5 20.5t-55.5 20.5q-35 0 -82 -36l-33 73q38 25 60.5 64.5t22.5 79.5q0 30 -12 64h-85z" />
    <glyph glyph-name="currency" unicode="&#xa4;" horiz-adv-x="419" 
d="M210 97q-51 0 -89 27l-64 -65l-57 57l70 69q-30 60 -30 148q0 90 31 148l-71 71l57 57l66 -67q37 26 87 26q49 0 86 -26l67 67l57 -57l-72 -72q31 -61 31 -147q0 -87 -31 -149l72 -71l-57 -57l-67 66q-36 -25 -86 -25zM210 181q41 0 60 43t19 109q0 65 -19 108t-60 43
t-60 -43t-19 -108q0 -66 19 -109t60 -43z" />
    <glyph glyph-name="yen" unicode="&#xa5;" horiz-adv-x="405" 
d="M255 0h-104v120h-128v62h128v97h-128v62h103l-129 326h112l94 -285l95 285h110l-129 -326h101v-62h-125v-97h125v-62h-125v-120z" />
    <glyph glyph-name="brokenbar" unicode="&#xa6;" horiz-adv-x="179" 
d="M122 -20h-65v316h65v-316zM122 371h-65v316h65v-316z" />
    <glyph glyph-name="section" unicode="&#xa7;" horiz-adv-x="331" 
d="M308 308q0 -81 -71 -119q71 -53 71 -132q0 -58 -41.5 -98t-104.5 -40q-93 0 -146 62l41 63q15 -20 41.5 -37t55.5 -17q30 0 47.5 19t17.5 46t-19.5 48.5t-47 37.5t-54.5 34t-46.5 50.5t-19.5 75.5q0 39 22 70.5t60 42.5q-82 56 -82 138q0 55 39 90t96 35q85 0 137 -57
l-40 -57q-41 46 -88 46q-25 0 -40.5 -16t-15.5 -41t19.5 -45t47 -36.5t55 -35t47 -51.5t19.5 -76zM225 288q0 59 -51 94q-59 -13 -59 -66q0 -55 65 -97q45 24 45 69z" />
    <glyph glyph-name="dieresis" unicode="&#xa8;" horiz-adv-x="272" 
d="M267 606q0 -22 -16 -37.5t-39 -15.5q-22 0 -37.5 15.5t-15.5 37.5t15.5 38t37.5 16q23 0 39 -16t16 -38zM113 606q0 -22 -16 -37.5t-38 -15.5t-38 15.5t-16 37.5t16 38t38 16q23 0 38.5 -16t15.5 -38z" />
    <glyph glyph-name="copyright" unicode="&#xa9;" horiz-adv-x="778" 
d="M734 334q0 -142 -101 -243.5t-244 -101.5t-244 101.5t-101 243.5t101 243.5t244 101.5t244 -101.5t101 -243.5zM701 334q0 128 -92 220t-220 92t-220 -92t-92 -220t92 -220t220 -92t220 92t92 220zM512 215l28 -26q-57 -67 -147 -67q-87 0 -148 61t-61 151
q0 92 60.5 152.5t148.5 60.5q90 0 146 -66l-27 -27q-20 26 -52 42t-67 16q-70 0 -119.5 -50t-49.5 -128q0 -75 50 -126t119 -51q76 0 119 58z" />
    <glyph glyph-name="ordfeminine" unicode="&#xaa;" horiz-adv-x="292" 
d="M251 326h-70v32q-23 -40 -70 -40q-39 0 -64 27.5t-25 75.5t25 75.5t64 27.5q47 0 70 -37v45q0 61 -52 61q-35 0 -67 -36l-27 47q43 44 108 44q108 0 108 -113v-209zM135 365q32 0 46 33v50q-14 34 -46 34q-20 0 -31.5 -16.5t-11.5 -42.5t11.5 -42t31.5 -16z" />
    <glyph glyph-name="guillemotleft" unicode="&#xab;" horiz-adv-x="359" 
d="M329 63h-75l-90 180l90 177h75l-90 -177zM195 63h-75l-90 180l90 177h75l-90 -177z" />
    <glyph glyph-name="logicalnot" unicode="&#xac;" horiz-adv-x="381" 
d="M352 461v-254h-65v192h-258v62h323z" />
    <glyph glyph-name="uni00AD" unicode="&#xad;" horiz-adv-x="238" 
d="M208 201h-178v81h178v-81z" />
    <glyph glyph-name="registered" unicode="&#xae;" horiz-adv-x="494" 
d="M459 465q0 -88 -62 -150t-150 -62t-150 62t-62 150t62 150t150 62q89 0 150.5 -61.5t61.5 -150.5zM429 465q0 76 -53 129t-129 53t-129 -53t-53 -129q0 -75 53 -128.5t129 -53.5t129 53.5t53 128.5zM346 343h-41l-63 96h-43v-96h-33v243h99q32 0 55 -20.5t23 -53.5
q0 -35 -22.5 -53.5t-39.5 -18.5zM309 512q0 19 -13.5 32t-30.5 13h-66v-88h66q17 0 30.5 12.5t13.5 30.5z" />
    <glyph glyph-name="macron" unicode="&#xaf;" horiz-adv-x="254" 
d="M254 568h-254v57h254v-57z" />
    <glyph glyph-name="degree" unicode="&#xb0;" horiz-adv-x="298" 
d="M275 550q0 -52 -37 -89t-90 -37q-52 0 -89 37t-37 89q0 53 37 90t89 37t89.5 -37.5t37.5 -89.5zM220 550q0 29 -21.5 50t-50.5 21t-49.5 -21t-20.5 -50t20.5 -49.5t49.5 -20.5t50.5 20.5t21.5 49.5z" />
    <glyph glyph-name="plusminus" unicode="&#xb1;" horiz-adv-x="381" 
d="M352 306h-128v-149h-67v149h-128v62h128v143h67v-143h128v-62zM352 34h-323v62h323v-62z" />
    <glyph glyph-name="twosuperior" unicode="&#xb2;" horiz-adv-x="281" 
d="M261 421h-232v54q102 120 130 161.5t28 77.5q0 24 -14 39t-37 15q-44 0 -71 -49l-45 42q44 66 120 66q54 0 86.5 -29.5t32.5 -81.5q0 -42 -28 -88t-111 -148h141v-59z" />
    <glyph glyph-name="threesuperior" unicode="&#xb3;" horiz-adv-x="281" 
d="M262 531q0 -53 -33 -85t-90 -32q-83 0 -122 65l48 43q27 -49 71 -49q54 0 54 62q0 33 -17 47.5t-41 14.5q-22 0 -28 -1v59q5 -1 25 -1q56 0 56 56q0 58 -50 58q-42 0 -68 -45l-46 40q41 64 118 64q53 0 85 -27.5t32 -80.5q0 -32 -19.5 -58.5t-47.5 -32.5
q30 -5 51.5 -32.5t21.5 -64.5z" />
    <glyph glyph-name="acute" unicode="&#xb4;" horiz-adv-x="164" 
d="M164 700l-103 -144h-61l79 144h85z" />
    <glyph glyph-name="mu" unicode="&#xb5;" horiz-adv-x="413" 
d="M144 4v-188h-94v667h94v-357q0 -56 43 -56q45 0 71 69v344h94v-368q0 -44 28 -44q4 0 14 2l7 -79q-18 -6 -44 -6q-44 0 -67 20.5t-29 64.5q-12 -38 -33 -61.5t-47 -23.5q-25 0 -37 16z" />
    <glyph glyph-name="paragraph" unicode="&#xb6;" horiz-adv-x="449" 
d="M387 -100h-52v716h-85v-716h-51v423q-71 0 -121.5 50.5t-50.5 121.5t50.5 121.5t121.5 50.5h188v-767z" />
    <glyph glyph-name="periodcentered" unicode="&#xb7;" horiz-adv-x="239" 
d="M184 245q0 -26 -19 -45.5t-46 -19.5q-26 0 -45 19.5t-19 45.5t19 45t45 19q27 0 46 -19t19 -45z" />
    <glyph glyph-name="cedilla" unicode="&#xb8;" horiz-adv-x="175" 
d="M82 -193q-46 0 -82 31l20 41q32 -27 60 -27q18 0 31 10.5t13 27.5q0 30 -26 30q-16 0 -27 -13l-37 21l31 83h51l-26 -65q13 10 29 10q24 0 40 -19t16 -48q0 -36 -26.5 -59t-66.5 -23z" />
    <glyph glyph-name="onesuperior" unicode="&#xb9;" horiz-adv-x="232" 
d="M184 421h-73v306l-58 -60l-42 43l110 111h63v-400z" />
    <glyph glyph-name="ordmasculine" unicode="&#xba;" horiz-adv-x="300" 
d="M150 318q-59 0 -91 47.5t-32 117.5t32 117.5t91 47.5q60 0 91.5 -47.5t31.5 -117.5t-31.5 -117.5t-91.5 -47.5zM150 375q50 0 50 108q0 107 -50 107q-51 0 -51 -107q0 -108 51 -108z" />
    <glyph glyph-name="guillemotright" unicode="&#xbb;" horiz-adv-x="359" 
d="M195 243l-90 -180h-75l90 180l-90 177h75zM329 243l-90 -180h-75l90 180l-90 177h75z" />
    <glyph glyph-name="onequarter" unicode="&#xbc;" horiz-adv-x="617" 
d="M184 267h-73v306l-58 -60l-42 43l110 111h63v-400zM603 95h-35v-95h-72v95h-145v58l129 247h88v-247h35v-58zM496 153v166l-83 -166h83zM469 667l-277 -667h-46l276 667h47z" />
    <glyph glyph-name="onehalf" unicode="&#xbd;" horiz-adv-x="651" 
d="M184 267h-73v306l-58 -60l-42 43l110 111h63v-400zM631 0h-232v54q102 120 130 162t28 77q0 24 -14 39t-37 15q-44 0 -71 -49l-45 42q44 66 120 66q54 0 86.5 -29.5t32.5 -81.5q0 -42 -28 -88t-111 -148h141v-59zM469 667l-277 -667h-46l276 667h47z" />
    <glyph glyph-name="threequarters" unicode="&#xbe;" horiz-adv-x="653" 
d="M639 95h-35v-95h-72v95h-145v58l129 247h88v-247h35v-58zM532 153v166l-83 -166h83zM505 667l-277 -667h-46l276 667h47zM262 377q0 -53 -33 -85t-90 -32q-83 0 -122 65l48 43q27 -49 71 -49q54 0 54 62q0 33 -17 47.5t-41 14.5q-22 0 -28 -1v59q5 -1 25 -1q56 0 56 56
q0 58 -50 58q-42 0 -68 -45l-46 40q41 64 118 64q53 0 85 -27.5t32 -80.5q0 -32 -19.5 -58.5t-47.5 -32.5q30 -5 51.5 -32.5t21.5 -64.5z" />
    <glyph glyph-name="questiondown" unicode="&#xbf;" horiz-adv-x="280" 
d="M194 289q26 -33 26 -86q0 -38 -15.5 -71.5t-33.5 -54t-33.5 -50t-15.5 -61.5q0 -28 17.5 -50t45.5 -22q34 0 60 32l44 -66q-52 -56 -127 -56q-64 0 -103.5 40.5t-39.5 101.5q0 42 17.5 80t39 62t39 56.5t17.5 63.5q0 28 -17 49zM157 493q26 0 45.5 -19t19.5 -45
t-19.5 -45t-45.5 -19t-45 19t-19 45t19 45t45 19z" />
    <glyph glyph-name="Agrave" unicode="&#xc0;" horiz-adv-x="398" 
d="M395 0h-107l-23 136h-132l-23 -136h-107l136 667h120zM253 228l-54 320l-54 -320h108zM240 723h-61l-103 144h85z" />
    <glyph glyph-name="Aacute" unicode="&#xc1;" horiz-adv-x="398" 
d="M395 0h-107l-23 136h-132l-23 -136h-107l136 667h120zM253 228l-54 320l-54 -320h108zM322 867l-103 -144h-61l79 144h85z" />
    <glyph glyph-name="Acircumflex" unicode="&#xc2;" horiz-adv-x="398" 
d="M308 723h-53l-57 98l-53 -98h-54l64 144h87zM395 0h-107l-23 136h-132l-23 -136h-107l136 667h120zM253 228l-54 320l-54 -320h108z" />
    <glyph glyph-name="Atilde" unicode="&#xc3;" horiz-adv-x="398" 
d="M395 0h-107l-23 136h-132l-23 -136h-107l136 667h120zM253 228l-54 320l-54 -320h108zM241 721q-18 0 -32 13t-21 28.5t-16 28.5t-17 13q-27 0 -27 -77h-50q0 59 21 96.5t59 37.5q18 0 32.5 -13t21.5 -28.5t15.5 -28.5t17.5 -13q26 0 26 77h50q0 -60 -20.5 -97t-59.5 -37
z" />
    <glyph glyph-name="Adieresis" unicode="&#xc4;" horiz-adv-x="398" 
d="M330 773q0 -22 -16 -37.5t-39 -15.5q-22 0 -37.5 15.5t-15.5 37.5t15.5 38t37.5 16q23 0 39 -16t16 -38zM176 773q0 -22 -16 -37.5t-38 -15.5t-38 15.5t-16 37.5t16 38t38 16t38 -15.5t16 -38.5zM395 0h-107l-23 136h-132l-23 -136h-107l136 667h120zM253 228l-54 320
l-54 -320h108z" />
    <glyph glyph-name="Aring" unicode="&#xc5;" horiz-adv-x="398" 
d="M395 0h-107l-23 136h-132l-23 -136h-107l136 667h120zM253 228l-54 320l-54 -320h108zM199 693q-35 0 -60.5 25.5t-25.5 61.5q0 35 25.5 60.5t60.5 25.5q36 0 61 -25.5t25 -60.5q0 -36 -25 -61.5t-61 -25.5zM199 737q18 0 30.5 12.5t12.5 30.5q0 17 -12.5 29.5
t-30.5 12.5q-17 0 -29.5 -12.5t-12.5 -29.5q0 -18 12.5 -30.5t29.5 -12.5z" />
    <glyph glyph-name="AE" unicode="&#xc6;" horiz-adv-x="584" 
d="M548 0h-273v136h-119l-41 -136h-106l221 667h318v-92h-168v-189h161v-92h-161v-202h168v-92zM275 228v320l-94 -320h94z" />
    <glyph glyph-name="Ccedilla" unicode="&#xc7;" horiz-adv-x="412" 
d="M225 -189q-46 0 -82 31l20 41q32 -27 60 -27q18 0 31 10.5t13 27.5q0 30 -26 30q-16 0 -27 -13l-37 21l22 59q-83 15 -123 107t-40 235q0 157 48 251t146 94q35 0 62 -12.5t45 -35.5t28.5 -45t19.5 -52l-84 -31q-12 42 -28 62.5t-43 20.5q-87 0 -87 -252t87 -252
q54 0 72 99l85 -31q-36 -148 -139 -160l-15 -39q13 10 29 10q24 0 40 -19t16 -48q0 -36 -26.5 -59t-66.5 -23z" />
    <glyph glyph-name="Egrave" unicode="&#xc8;" horiz-adv-x="367" 
d="M330 0h-273v667h273v-92h-169v-189h162v-92h-162v-202h169v-92zM234 723h-61l-103 144h85z" />
    <glyph glyph-name="Eacute" unicode="&#xc9;" horiz-adv-x="367" 
d="M316 867l-103 -144h-61l79 144h85zM330 0h-273v667h273v-92h-169v-189h162v-92h-162v-202h169v-92z" />
    <glyph glyph-name="Ecircumflex" unicode="&#xca;" horiz-adv-x="367" 
d="M303 723h-53l-57 98l-53 -98h-54l64 144h87zM330 0h-273v667h273v-92h-169v-189h162v-92h-162v-202h169v-92z" />
    <glyph glyph-name="Edieresis" unicode="&#xcb;" horiz-adv-x="367" 
d="M326 773q0 -22 -16 -37.5t-39 -15.5q-22 0 -37.5 15.5t-15.5 37.5t15.5 38t37.5 16q23 0 39 -16t16 -38zM172 773q0 -22 -16 -37.5t-38 -15.5t-38 15.5t-16 37.5t16 38t38 16t38 -15.5t16 -38.5zM330 0h-273v667h273v-92h-169v-189h162v-92h-162v-202h169v-92z" />
    <glyph glyph-name="Igrave" unicode="&#xcc;" horiz-adv-x="218" 
d="M161 0h-104v667h104v-667zM150 723h-61l-103 144h85z" />
    <glyph glyph-name="Iacute" unicode="&#xcd;" horiz-adv-x="218" 
d="M161 0h-104v667h104v-667zM232 867l-103 -144h-61l79 144h85z" />
    <glyph glyph-name="Icircumflex" unicode="&#xce;" horiz-adv-x="218" 
d="M218 723h-53l-57 98l-53 -98h-54l64 144h87zM161 0h-104v667h104v-667z" />
    <glyph glyph-name="Idieresis" unicode="&#xcf;" horiz-adv-x="218" 
d="M242 773q0 -22 -16 -37.5t-39 -15.5q-22 0 -37.5 15.5t-15.5 37.5t15.5 38t37.5 16q23 0 39 -16t16 -38zM88 773q0 -22 -16 -37.5t-38 -15.5t-38 15.5t-16 37.5t16 38t38 16t38 -15.5t16 -38.5zM161 0h-104v667h104v-667z" />
    <glyph glyph-name="Eth" unicode="&#xd0;" horiz-adv-x="476" 
d="M228 0h-150v290h-60v76h60v301h149q108 0 160.5 -91t52.5 -243q0 -153 -52 -243t-160 -90zM227 92q106 0 106 241q0 242 -106 242h-45v-209h74v-76h-74v-198h45z" />
    <glyph glyph-name="Ntilde" unicode="&#xd1;" horiz-adv-x="463" 
d="M271 721q-18 0 -32 13t-21 28.5t-16 28.5t-17 13q-27 0 -27 -77h-50q0 59 21 96.5t59 37.5q18 0 32.5 -13t21.5 -28.5t15.5 -28.5t17.5 -13q26 0 26 77h50q0 -60 -20.5 -97t-59.5 -37zM407 0h-99l-147 386v-386h-104v667h104l141 -375v375h105v-667z" />
    <glyph glyph-name="Ograve" unicode="&#xd2;" horiz-adv-x="459" 
d="M270 723h-61l-103 144h85zM229 -12q-98 0 -145.5 94.5t-47.5 250.5q0 155 47.5 250t145.5 95t146 -95t48 -250t-48 -250t-146 -95zM229 81q87 0 87 252t-87 252q-86 0 -86 -252t86 -252z" />
    <glyph glyph-name="Oacute" unicode="&#xd3;" horiz-adv-x="459" 
d="M352 867l-103 -144h-61l79 144h85zM229 -12q-98 0 -145.5 94.5t-47.5 250.5q0 155 47.5 250t145.5 95t146 -95t48 -250t-48 -250t-146 -95zM229 81q87 0 87 252t-87 252q-86 0 -86 -252t86 -252z" />
    <glyph glyph-name="Ocircumflex" unicode="&#xd4;" horiz-adv-x="459" 
d="M339 723h-53l-57 98l-53 -98h-54l64 144h87zM229 -12q-98 0 -145.5 94.5t-47.5 250.5q0 155 47.5 250t145.5 95t146 -95t48 -250t-48 -250t-146 -95zM229 81q87 0 87 252t-87 252q-86 0 -86 -252t86 -252z" />
    <glyph glyph-name="Otilde" unicode="&#xd5;" horiz-adv-x="459" 
d="M229 -12q-98 0 -145.5 94.5t-47.5 250.5q0 155 47.5 250t145.5 95t146 -95t48 -250t-48 -250t-146 -95zM229 81q87 0 87 252t-87 252q-86 0 -86 -252t86 -252zM272 721q-18 0 -32 13t-21 28.5t-16 28.5t-17 13q-27 0 -27 -77h-50q0 59 21 96.5t59 37.5q18 0 32.5 -13
t21.5 -28.5t15.5 -28.5t17.5 -13q26 0 26 77h50q0 -60 -20.5 -97t-59.5 -37z" />
    <glyph glyph-name="Odieresis" unicode="&#xd6;" horiz-adv-x="459" 
d="M361 773q0 -22 -16 -37.5t-39 -15.5q-22 0 -37.5 15.5t-15.5 37.5t15.5 38t37.5 16q23 0 39 -16t16 -38zM207 773q0 -22 -16 -37.5t-38 -15.5t-38 15.5t-16 37.5t16 38t38 16q23 0 38.5 -15.5t15.5 -38.5zM229 -12q-98 0 -145.5 94.5t-47.5 250.5q0 155 47.5 250
t145.5 95t146 -95t48 -250t-48 -250t-146 -95zM229 81q87 0 87 252t-87 252q-86 0 -86 -252t86 -252z" />
    <glyph glyph-name="multiply" unicode="&#xd7;" horiz-adv-x="381" 
d="M294 187l-104 103l-103 -103l-44 44l104 103l-104 103l44 44l103 -103l104 103l44 -44l-104 -103l104 -103z" />
    <glyph glyph-name="Oslash" unicode="&#xd8;" horiz-adv-x="459" 
d="M229 -12q-63 0 -105 40l-13 -28h-64l37 81q-48 89 -48 252q0 155 47.5 250t145.5 95q62 0 106 -41l14 30h64l-38 -84q48 -92 48 -250q0 -155 -48 -250t-146 -95zM143 333q0 -68 5 -109l140 310q-21 51 -59 51q-86 0 -86 -252zM229 81q87 0 87 252q0 59 -6 107l-140 -309
q22 -50 59 -50z" />
    <glyph glyph-name="Ugrave" unicode="&#xd9;" horiz-adv-x="464" 
d="M232 -12q-76 0 -125.5 49.5t-49.5 146.5v483h104v-488q0 -99 71 -99t71 99v488h104v-483q0 -97 -49.5 -146.5t-125.5 -49.5zM273 723h-61l-103 144h85z" />
    <glyph glyph-name="Uacute" unicode="&#xda;" horiz-adv-x="464" 
d="M355 867l-103 -144h-61l79 144h85zM232 -12q-76 0 -125.5 49.5t-49.5 146.5v483h104v-488q0 -99 71 -99t71 99v488h104v-483q0 -97 -49.5 -146.5t-125.5 -49.5z" />
    <glyph glyph-name="Ucircumflex" unicode="&#xdb;" horiz-adv-x="464" 
d="M341 723h-53l-57 98l-53 -98h-54l64 144h87zM232 -12q-76 0 -125.5 49.5t-49.5 146.5v483h104v-488q0 -99 71 -99t71 99v488h104v-483q0 -97 -49.5 -146.5t-125.5 -49.5z" />
    <glyph glyph-name="Udieresis" unicode="&#xdc;" horiz-adv-x="464" 
d="M363 773q0 -22 -16 -37.5t-39 -15.5q-22 0 -37.5 15.5t-15.5 37.5t15.5 38t37.5 16q23 0 39 -16t16 -38zM209 773q0 -22 -16 -37.5t-38 -15.5t-38 15.5t-16 37.5t16 38t38 16q23 0 38.5 -15.5t15.5 -38.5zM232 -12q-76 0 -125.5 49.5t-49.5 146.5v483h104v-488
q0 -99 71 -99t71 99v488h104v-483q0 -97 -49.5 -146.5t-125.5 -49.5z" />
    <glyph glyph-name="Yacute" unicode="&#xdd;" horiz-adv-x="405" 
d="M255 0h-104v279l-154 388h112l94 -285l95 285h110l-153 -388v-279zM326 867l-103 -144h-61l79 144h85z" />
    <glyph glyph-name="Thorn" unicode="&#xde;" horiz-adv-x="418" 
d="M161 0h-104v667h104v-115h57q87 0 131.5 -59t44.5 -148q0 -88 -44.5 -146.5t-131.5 -58.5h-57v-140zM208 232q38 0 58.5 30.5t20.5 82.5t-20.5 83.5t-58.5 31.5h-47v-228h47z" />
    <glyph glyph-name="germandbls" unicode="&#xdf;" horiz-adv-x="489" 
d="M475 126q0 -56 -40.5 -97t-101.5 -41q-84 0 -138 62l36 66q40 -52 85 -52q25 0 42.5 16.5t17.5 43.5q0 25 -17.5 45t-42.5 35.5t-50 34t-42.5 49t-17.5 70.5q0 31 15 56.5t33 39.5t33 35t15 43q0 26 -20.5 44t-51.5 18q-35 0 -57 -23t-22 -69v-502h-93v502q0 76 47 125.5
t125 49.5q69 0 117.5 -39t48.5 -96q0 -36 -15.5 -64t-33.5 -42.5t-33.5 -33t-15.5 -36.5q0 -20 13 -36.5t33 -27.5t42.5 -27t42.5 -33t33 -47.5t13 -68.5z" />
    <glyph glyph-name="agrave" unicode="&#xe0;" horiz-adv-x="398" 
d="M348 0h-94v45q-16 -27 -43.5 -42t-54.5 -15q-57 0 -92.5 44t-35.5 117q0 72 35.5 115t92.5 43q27 0 55 -14t43 -40v67q0 95 -74 95q-51 0 -97 -49l-36 66q58 63 151 63q150 0 150 -155v-340zM187 53q20 0 38 15.5t29 41.5v73q-11 26 -29 42t-38 16q-32 0 -48.5 -26.5
t-16.5 -67.5t16.5 -67.5t48.5 -26.5zM239 556h-61l-103 144h85z" />
    <glyph glyph-name="aacute" unicode="&#xe1;" horiz-adv-x="398" 
d="M348 0h-94v45q-16 -27 -43.5 -42t-54.5 -15q-57 0 -92.5 44t-35.5 117q0 72 35.5 115t92.5 43q27 0 55 -14t43 -40v67q0 95 -74 95q-51 0 -97 -49l-36 66q58 63 151 63q150 0 150 -155v-340zM187 53q20 0 38 15.5t29 41.5v73q-11 26 -29 42t-38 16q-32 0 -48.5 -26.5
t-16.5 -67.5t16.5 -67.5t48.5 -26.5zM321 700l-103 -144h-61l79 144h85z" />
    <glyph glyph-name="acircumflex" unicode="&#xe2;" horiz-adv-x="398" 
d="M348 0h-94v45q-16 -27 -43.5 -42t-54.5 -15q-57 0 -92.5 44t-35.5 117q0 72 35.5 115t92.5 43q27 0 55 -14t43 -40v67q0 95 -74 95q-51 0 -97 -49l-36 66q58 63 151 63q150 0 150 -155v-340zM187 53q20 0 38 15.5t29 41.5v73q-11 26 -29 42t-38 16q-32 0 -48.5 -26.5
t-16.5 -67.5t16.5 -67.5t48.5 -26.5zM310 556h-53l-57 98l-53 -98h-54l64 144h87z" />
    <glyph glyph-name="atilde" unicode="&#xe3;" horiz-adv-x="398" 
d="M348 0h-94v45q-16 -27 -43.5 -42t-54.5 -15q-57 0 -92.5 44t-35.5 117q0 72 35.5 115t92.5 43q27 0 55 -14t43 -40v67q0 95 -74 95q-51 0 -97 -49l-36 66q58 63 151 63q150 0 150 -155v-340zM187 53q20 0 38 15.5t29 41.5v73q-11 26 -29 42t-38 16q-32 0 -48.5 -26.5
t-16.5 -67.5t16.5 -67.5t48.5 -26.5zM241 554q-18 0 -32 13t-21 28.5t-16 28.5t-17 13q-27 0 -27 -77h-50q0 59 21 96.5t59 37.5q18 0 32.5 -13t21.5 -28.5t15.5 -28.5t17.5 -13q26 0 26 77h50q0 -60 -20.5 -97t-59.5 -37z" />
    <glyph glyph-name="adieresis" unicode="&#xe4;" horiz-adv-x="398" 
d="M348 0h-94v45q-16 -27 -43.5 -42t-54.5 -15q-57 0 -92.5 44t-35.5 117q0 72 35.5 115t92.5 43q27 0 55 -14t43 -40v67q0 95 -74 95q-51 0 -97 -49l-36 66q58 63 151 63q150 0 150 -155v-340zM187 53q20 0 38 15.5t29 41.5v73q-11 26 -29 42t-38 16q-32 0 -48.5 -26.5
t-16.5 -67.5t16.5 -67.5t48.5 -26.5zM331 606q0 -22 -16 -37.5t-39 -15.5q-22 0 -37.5 15.5t-15.5 37.5t15.5 38t37.5 16q23 0 39 -16t16 -38zM177 606q0 -22 -16 -37.5t-38 -15.5t-38 15.5t-16 37.5t16 38t38 16q23 0 38.5 -16t15.5 -38z" />
    <glyph glyph-name="aring" unicode="&#xe5;" horiz-adv-x="398" 
d="M348 0h-94v45q-16 -27 -43.5 -42t-54.5 -15q-57 0 -92.5 44t-35.5 117q0 72 35.5 115t92.5 43q27 0 55 -14t43 -40v67q0 95 -74 95q-51 0 -97 -49l-36 66q58 63 151 63q150 0 150 -155v-340zM187 53q20 0 38 15.5t29 41.5v73q-11 26 -29 42t-38 16q-32 0 -48.5 -26.5
t-16.5 -67.5t16.5 -67.5t48.5 -26.5zM199 540q-35 0 -60.5 25.5t-25.5 61.5q0 35 25.5 60.5t60.5 25.5q36 0 61 -25.5t25 -60.5q0 -36 -25 -61.5t-61 -25.5zM199 584q18 0 30.5 12.5t12.5 30.5q0 17 -12.5 29.5t-30.5 12.5q-17 0 -29.5 -12.5t-12.5 -29.5q0 -18 12.5 -30.5
t29.5 -12.5z" />
    <glyph glyph-name="ae" unicode="&#xe6;" horiz-adv-x="611" 
d="M584 211h-235q1 -67 25 -106.5t71 -39.5q45 0 78 52l48 -51q-54 -78 -137 -78q-48 0 -76 19t-52 58q-47 -77 -136 -77q-68 0 -105 42t-37 116q0 73 35.5 117t94.5 44q28 0 56.5 -14t44.5 -40v67q0 95 -76 95q-52 0 -100 -49l-36 66q29 32 69.5 47.5t75.5 15.5
q44 0 73.5 -22.5t40.5 -54.5q41 77 118 77q80 0 120 -70.5t40 -182.5v-31zM349 278h144q0 140 -71 140q-27 0 -44.5 -24t-23 -53t-5.5 -63zM259 158v25q-26 58 -70 58q-30 0 -48.5 -25t-18.5 -65q0 -43 18 -66.5t49 -23.5q30 0 50 28.5t20 68.5z" />
    <glyph glyph-name="ccedilla" unicode="&#xe7;" horiz-adv-x="333" 
d="M203 -191q-46 0 -82 31l20 41q32 -27 60 -27q18 0 31 10.5t13 27.5q0 30 -26 30q-16 0 -27 -13l-37 21l22 61q-69 12 -107.5 80.5t-38.5 170.5q0 112 46.5 182.5t127.5 70.5q69 0 109 -44l-33 -72q-29 33 -61 33q-45 0 -68.5 -48.5t-23.5 -121.5t23.5 -122t68.5 -49
q32 0 61 33l33 -72q-31 -36 -87 -43l-16 -41q13 10 29 10q24 0 40 -19t16 -48q0 -36 -26.5 -59t-66.5 -23z" />
    <glyph glyph-name="egrave" unicode="&#xe8;" horiz-adv-x="391" 
d="M213 -12q-88 0 -135 70t-47 184q0 111 43.5 182t126.5 71t123 -69.5t40 -181.5v-33h-241q1 -66 26 -106t73 -40q45 0 80 52l49 -51q-56 -78 -138 -78zM272 278q0 140 -74 140q-40 0 -57.5 -42.5t-17.5 -97.5h149zM242 556h-61l-103 144h85z" />
    <glyph glyph-name="eacute" unicode="&#xe9;" horiz-adv-x="391" 
d="M324 700l-103 -144h-61l79 144h85zM213 -12q-88 0 -135 70t-47 184q0 111 43.5 182t126.5 71t123 -69.5t40 -181.5v-33h-241q1 -66 26 -106t73 -40q45 0 80 52l49 -51q-56 -78 -138 -78zM272 278q0 140 -74 140q-40 0 -57.5 -42.5t-17.5 -97.5h149z" />
    <glyph glyph-name="ecircumflex" unicode="&#xea;" horiz-adv-x="391" 
d="M310 556h-53l-57 98l-53 -98h-54l64 144h87zM213 -12q-88 0 -135 70t-47 184q0 111 43.5 182t126.5 71t123 -69.5t40 -181.5v-33h-241q1 -66 26 -106t73 -40q45 0 80 52l49 -51q-56 -78 -138 -78zM272 278q0 140 -74 140q-40 0 -57.5 -42.5t-17.5 -97.5h149z" />
    <glyph glyph-name="edieresis" unicode="&#xeb;" horiz-adv-x="391" 
d="M332 606q0 -22 -16 -37.5t-39 -15.5q-22 0 -37.5 15.5t-15.5 37.5t15.5 38t37.5 16q23 0 39 -16t16 -38zM178 606q0 -22 -16 -37.5t-38 -15.5t-38 15.5t-16 37.5t16 38t38 16t38 -16t16 -38zM213 -12q-88 0 -135 70t-47 184q0 111 43.5 182t126.5 71t123 -69.5t40 -181.5
v-33h-241q1 -66 26 -106t73 -40q45 0 80 52l49 -51q-56 -78 -138 -78zM272 278q0 140 -74 140q-40 0 -57.5 -42.5t-17.5 -97.5h149z" />
    <glyph glyph-name="igrave" unicode="&#xec;" horiz-adv-x="194" 
d="M144 0h-94v483h94v-483zM138 556h-61l-103 144h85z" />
    <glyph glyph-name="iacute" unicode="&#xed;" horiz-adv-x="194" 
d="M220 700l-103 -144h-61l79 144h85zM144 0h-94v483h94v-483z" />
    <glyph glyph-name="icircumflex" unicode="&#xee;" horiz-adv-x="194" 
d="M206 556h-53l-57 98l-53 -98h-54l64 144h87zM144 0h-94v483h94v-483z" />
    <glyph glyph-name="idieresis" unicode="&#xef;" horiz-adv-x="194" 
d="M228 606q0 -22 -16 -37.5t-39 -15.5q-22 0 -37.5 15.5t-15.5 37.5t15.5 38t37.5 16q23 0 39 -16t16 -38zM74 606q0 -22 -16 -37.5t-38 -15.5t-38 15.5t-16 37.5t16 38t38 16t38 -16t16 -38zM144 0h-94v483h94v-483z" />
    <glyph glyph-name="eth" unicode="&#xf0;" 
d="M128 504l-21 47l95 42q-20 42 -34 64l83 39q21 -37 35 -66l67 30l20 -46l-66 -30q63 -154 63 -320q0 -127 -41.5 -201.5t-127.5 -74.5q-85 0 -127.5 69.5t-42.5 173.5q0 102 37.5 171.5t107.5 69.5q60 0 89 -65q-12 65 -42 139zM201 71q72 0 72 160q0 158 -72 158
t-72 -158q0 -160 72 -160z" />
    <glyph glyph-name="ntilde" unicode="&#xf1;" 
d="M352 0h-94v356q0 56 -41 56q-23 0 -42.5 -20.5t-30.5 -49.5v-342h-94v483h94v-65q16 31 47.5 54t63.5 23q97 0 97 -108v-387zM244 554q-18 0 -32 13t-21 28.5t-16 28.5t-17 13q-27 0 -27 -77h-50q0 59 21 96.5t59 37.5q18 0 32.5 -13t21.5 -28.5t15.5 -28.5t17.5 -13
q26 0 26 77h50q0 -60 -20.5 -97t-59.5 -37z" />
    <glyph glyph-name="ograve" unicode="&#xf2;" 
d="M201 -12q-85 0 -127.5 72.5t-42.5 181.5t42.5 181t127.5 72t127 -72t42 -181t-42 -181.5t-127 -72.5zM201 71q72 0 72 171q0 170 -72 170t-72 -170q0 -171 72 -171zM242 556h-61l-103 144h85z" />
    <glyph glyph-name="oacute" unicode="&#xf3;" 
d="M324 700l-103 -144h-61l79 144h85zM201 -12q-85 0 -127.5 72.5t-42.5 181.5t42.5 181t127.5 72t127 -72t42 -181t-42 -181.5t-127 -72.5zM201 71q72 0 72 171q0 170 -72 170t-72 -170q0 -171 72 -171z" />
    <glyph glyph-name="ocircumflex" unicode="&#xf4;" 
d="M310 556h-53l-57 98l-53 -98h-54l64 144h87zM201 -12q-85 0 -127.5 72.5t-42.5 181.5t42.5 181t127.5 72t127 -72t42 -181t-42 -181.5t-127 -72.5zM201 71q72 0 72 171q0 170 -72 170t-72 -170q0 -171 72 -171z" />
    <glyph glyph-name="otilde" unicode="&#xf5;" 
d="M201 -12q-85 0 -127.5 72.5t-42.5 181.5t42.5 181t127.5 72t127 -72t42 -181t-42 -181.5t-127 -72.5zM201 71q72 0 72 171q0 170 -72 170t-72 -170q0 -171 72 -171zM243 554q-18 0 -32 13t-21 28.5t-16 28.5t-17 13q-27 0 -27 -77h-50q0 59 21 96.5t59 37.5
q18 0 32.5 -13t21.5 -28.5t15.5 -28.5t17.5 -13q26 0 26 77h50q0 -60 -20.5 -97t-59.5 -37z" />
    <glyph glyph-name="odieresis" unicode="&#xf6;" 
d="M332 606q0 -22 -16 -37.5t-39 -15.5q-22 0 -37.5 15.5t-15.5 37.5t15.5 38t37.5 16q23 0 39 -16t16 -38zM178 606q0 -22 -16 -37.5t-38 -15.5t-38 15.5t-16 37.5t16 38t38 16t38 -16t16 -38zM201 -12q-85 0 -127.5 72.5t-42.5 181.5t42.5 181t127.5 72t127 -72t42 -181
t-42 -181.5t-127 -72.5zM201 71q72 0 72 171q0 170 -72 170t-72 -170q0 -171 72 -171z" />
    <glyph glyph-name="divide" unicode="&#xf7;" horiz-adv-x="374" 
d="M239 480q0 -21 -15 -36.5t-36 -15.5t-36 15.5t-15 36.5t15 36t36 15t36 -15t15 -36zM345 306h-316v62h316v-62zM239 191q0 -21 -15 -36t-36 -15t-36 15t-15 36t15 36.5t36 15.5t36 -15.5t15 -36.5z" />
    <glyph glyph-name="oslash" unicode="&#xf8;" 
d="M94 0h-55l34 61q-42 68 -42 181q0 109 42.5 181t127.5 72q55 0 94 -34l13 22h55l-35 -62q42 -68 42 -179q0 -109 -42 -181.5t-127 -72.5q-56 0 -95 34zM201 71q72 0 72 171q0 41 -4 72l-118 -210q17 -33 50 -33zM129 242q0 -42 4 -73l117 210q-18 33 -49 33
q-72 0 -72 -170z" />
    <glyph glyph-name="ugrave" unicode="&#xf9;" 
d="M352 0h-94v63q-16 -31 -46.5 -53t-64.5 -22q-97 0 -97 107v388h94v-357q0 -55 41 -55q23 0 43 20t30 48v344h94v-483zM242 556h-61l-103 144h85z" />
    <glyph glyph-name="uacute" unicode="&#xfa;" 
d="M324 700l-103 -144h-61l79 144h85zM352 0h-94v63q-16 -31 -46.5 -53t-64.5 -22q-97 0 -97 107v388h94v-357q0 -55 41 -55q23 0 43 20t30 48v344h94v-483z" />
    <glyph glyph-name="ucircumflex" unicode="&#xfb;" 
d="M310 556h-53l-57 98l-53 -98h-54l64 144h87zM352 0h-94v63q-16 -31 -46.5 -53t-64.5 -22q-97 0 -97 107v388h94v-357q0 -55 41 -55q23 0 43 20t30 48v344h94v-483z" />
    <glyph glyph-name="udieresis" unicode="&#xfc;" 
d="M333 606q0 -22 -16 -37.5t-39 -15.5q-22 0 -37.5 15.5t-15.5 37.5t15.5 38t37.5 16q23 0 39 -16t16 -38zM179 606q0 -22 -16 -37.5t-38 -15.5t-38 15.5t-16 37.5t16 38t38 16q23 0 38.5 -16t15.5 -38zM352 0h-94v63q-16 -31 -46.5 -53t-64.5 -22q-97 0 -97 107v388h94
v-357q0 -55 41 -55q23 0 43 20t30 48v344h94v-483z" />
    <glyph glyph-name="yacute" unicode="&#xfd;" horiz-adv-x="357" 
d="M37 -189l14 82q11 -6 23 -6q30 0 41 39l16 61l-126 496h100l73 -364l75 364h99l-148 -577q-16 -58 -43 -80t-75 -22q-32 0 -49 7zM301 700l-103 -144h-61l79 144h85z" />
    <glyph glyph-name="thorn" unicode="&#xfe;" horiz-adv-x="406" 
d="M237 -12q-65 0 -93 72v-244h-94v851h94v-243q31 71 93 71q68 0 103 -68t35 -185q0 -116 -35 -185t-103 -69zM208 71q70 0 70 171q0 170 -70 170q-20 0 -38 -19.5t-26 -47.5v-206q9 -28 26.5 -48t37.5 -20z" />
    <glyph glyph-name="ydieresis" unicode="&#xff;" horiz-adv-x="357" 
d="M37 -189l14 82q11 -6 23 -6q30 0 41 39l16 61l-126 496h100l73 -364l75 364h99l-148 -577q-16 -58 -43 -80t-75 -22q-32 0 -49 7zM314 606q0 -22 -16 -37.5t-39 -15.5q-22 0 -37.5 15.5t-15.5 37.5t15.5 38t37.5 16q23 0 39 -16t16 -38zM160 606q0 -22 -16 -37.5
t-38 -15.5t-38 15.5t-16 37.5t16 38t38 16t38 -16t16 -38z" />
    <glyph glyph-name="Amacron" unicode="&#x100;" horiz-adv-x="398" 
d="M395 0h-107l-23 136h-132l-23 -136h-107l136 667h120zM253 228l-54 320l-54 -320h108zM326 735h-254v57h254v-57z" />
    <glyph glyph-name="amacron" unicode="&#x101;" horiz-adv-x="398" 
d="M348 0h-94v45q-16 -27 -43.5 -42t-54.5 -15q-57 0 -92.5 44t-35.5 117q0 72 35.5 115t92.5 43q27 0 55 -14t43 -40v67q0 95 -74 95q-51 0 -97 -49l-36 66q58 63 151 63q150 0 150 -155v-340zM187 53q20 0 38 15.5t29 41.5v73q-11 26 -29 42t-38 16q-32 0 -48.5 -26.5
t-16.5 -67.5t16.5 -67.5t48.5 -26.5zM326 568h-254v57h254v-57z" />
    <glyph glyph-name="Abreve" unicode="&#x102;" horiz-adv-x="398" 
d="M395 0h-107l-23 136h-132l-23 -136h-107l136 667h120zM253 228l-54 320l-54 -320h108zM321 777q-46 -62 -122 -62t-122 62l46 35q26 -40 76 -40t76 40z" />
    <glyph glyph-name="abreve" unicode="&#x103;" horiz-adv-x="398" 
d="M348 0h-94v45q-16 -27 -43.5 -42t-54.5 -15q-57 0 -92.5 44t-35.5 117q0 72 35.5 115t92.5 43q27 0 55 -14t43 -40v67q0 95 -74 95q-51 0 -97 -49l-36 66q58 63 151 63q150 0 150 -155v-340zM187 53q20 0 38 15.5t29 41.5v73q-11 26 -29 42t-38 16q-32 0 -48.5 -26.5
t-16.5 -67.5t16.5 -67.5t48.5 -26.5zM321 610q-46 -62 -122 -62t-122 62l46 35q26 -40 76 -40t76 40z" />
    <glyph glyph-name="Aogonek" unicode="&#x104;" horiz-adv-x="398" 
d="M389 -111l42 -22q-19 -53 -72 -53q-35 0 -55.5 20t-20.5 59q0 58 46 107h-41l-23 136h-132l-23 -136h-107l136 667h120l136 -667q-61 -43 -61 -104q0 -38 26 -38q22 0 29 31zM253 228l-54 320l-54 -320h108z" />
    <glyph glyph-name="aogonek" unicode="&#x105;" horiz-adv-x="398" 
d="M342 -111l42 -22q-19 -53 -72 -53q-35 0 -55.5 20t-20.5 59q0 58 46 107h-28v45q-16 -27 -43.5 -42t-54.5 -15q-57 0 -92.5 44t-35.5 117q0 72 35.5 115t92.5 43q27 0 55 -14t43 -40v67q0 95 -74 95q-51 0 -97 -49l-36 66q58 63 151 63q150 0 150 -155v-340
q-61 -43 -61 -104q0 -38 26 -38q22 0 29 31zM187 53q20 0 38 15.5t29 41.5v73q-11 26 -29 42t-38 16q-32 0 -48.5 -26.5t-16.5 -67.5t16.5 -67.5t48.5 -26.5z" />
    <glyph glyph-name="Cacute" unicode="&#x106;" horiz-adv-x="412" 
d="M353 867l-103 -144h-61l79 144h85zM230 -12q-98 0 -146 94.5t-48 250.5q0 157 48 251t146 94q35 0 62 -12.5t45 -35.5t28.5 -45t19.5 -52l-84 -31q-12 42 -28 62.5t-43 20.5q-87 0 -87 -252t87 -252q54 0 72 99l85 -31q-39 -161 -157 -161z" />
    <glyph glyph-name="cacute" unicode="&#x107;" horiz-adv-x="333" 
d="M328 700l-103 -144h-61l79 144h85zM205 -12q-81 0 -127.5 71t-46.5 183t46.5 182.5t127.5 70.5q69 0 109 -44l-33 -72q-29 33 -61 33q-45 0 -68.5 -48.5t-23.5 -121.5t23.5 -122t68.5 -49q32 0 61 33l33 -72q-37 -44 -109 -44z" />
    <glyph glyph-name="Ccircumflex" unicode="&#x108;" horiz-adv-x="412" 
d="M339 723h-53l-57 98l-53 -98h-54l64 144h87zM230 -12q-98 0 -146 94.5t-48 250.5q0 157 48 251t146 94q35 0 62 -12.5t45 -35.5t28.5 -45t19.5 -52l-84 -31q-12 42 -28 62.5t-43 20.5q-87 0 -87 -252t87 -252q54 0 72 99l85 -31q-39 -161 -157 -161z" />
    <glyph glyph-name="ccircumflex" unicode="&#x109;" horiz-adv-x="333" 
d="M314 556h-53l-57 98l-53 -98h-54l64 144h87zM205 -12q-81 0 -127.5 71t-46.5 183t46.5 182.5t127.5 70.5q69 0 109 -44l-33 -72q-29 33 -61 33q-45 0 -68.5 -48.5t-23.5 -121.5t23.5 -122t68.5 -49q32 0 61 33l33 -72q-37 -44 -109 -44z" />
    <glyph glyph-name="Cdotaccent" unicode="&#x10a;" horiz-adv-x="412" 
d="M230 -12q-98 0 -146 94.5t-48 250.5q0 157 48 251t146 94q35 0 62 -12.5t45 -35.5t28.5 -45t19.5 -52l-84 -31q-12 42 -28 62.5t-43 20.5q-87 0 -87 -252t87 -252q54 0 72 99l85 -31q-39 -161 -157 -161zM229 718q-22 0 -38 16t-16 38t16 38t38 16q23 0 38.5 -16
t15.5 -38t-15.5 -38t-38.5 -16z" />
    <glyph glyph-name="cdotaccent" unicode="&#x10b;" horiz-adv-x="333" 
d="M205 -12q-81 0 -127.5 71t-46.5 183t46.5 182.5t127.5 70.5q69 0 109 -44l-33 -72q-29 33 -61 33q-45 0 -68.5 -48.5t-23.5 -121.5t23.5 -122t68.5 -49q32 0 61 33l33 -72q-37 -44 -109 -44zM206 551q-22 0 -38 16t-16 38t16 38t38 16t38 -15.5t16 -38.5t-16 -38.5
t-38 -15.5z" />
    <glyph glyph-name="Ccaron" unicode="&#x10c;" horiz-adv-x="412" 
d="M276 723h-87l-67 144h54l56 -98l54 98h53zM230 -12q-98 0 -146 94.5t-48 250.5q0 157 48 251t146 94q35 0 62 -12.5t45 -35.5t28.5 -45t19.5 -52l-84 -31q-12 42 -28 62.5t-43 20.5q-87 0 -87 -252t87 -252q54 0 72 99l85 -31q-39 -161 -157 -161z" />
    <glyph glyph-name="ccaron" unicode="&#x10d;" horiz-adv-x="333" 
d="M251 556h-87l-67 144h54l56 -98l54 98h53zM205 -12q-81 0 -127.5 71t-46.5 183t46.5 182.5t127.5 70.5q69 0 109 -44l-33 -72q-29 33 -61 33q-45 0 -68.5 -48.5t-23.5 -121.5t23.5 -122t68.5 -49q32 0 61 33l33 -72q-37 -44 -109 -44z" />
    <glyph glyph-name="Dcaron" unicode="&#x10e;" horiz-adv-x="455" 
d="M269 723h-87l-67 144h54l56 -98l54 98h53zM207 0h-150v667h149q108 0 160.5 -91t52.5 -243q0 -153 -52 -243t-160 -90zM206 92q106 0 106 241q0 242 -106 242h-45v-483h45z" />
    <glyph glyph-name="dcaron" unicode="&#x10f;" horiz-adv-x="506" 
d="M511 607q0 -41 -20.5 -78.5t-54.5 -61.5l-37 29q22 15 39.5 39t20.5 45h-5q-5 -1 -7 -1q-20 0 -33 13.5t-13 34.5t15 36.5t36 15.5q24 0 41.5 -19.5t17.5 -52.5zM356 0h-94v62q-15 -35 -41 -54.5t-52 -19.5q-68 0 -103 68t-35 185q0 116 35 185t103 69q28 0 53.5 -19
t39.5 -56v247h94v-667zM198 71q20 0 38 20t26 48v205q-8 28 -26 48t-38 20q-70 0 -70 -171q0 -170 70 -170z" />
    <glyph glyph-name="Dcroat" unicode="&#x110;" horiz-adv-x="476" 
d="M228 0h-150v290h-60v76h60v301h149q108 0 160.5 -91t52.5 -243q0 -153 -52 -243t-160 -90zM227 92q106 0 106 241q0 242 -106 242h-45v-209h74v-76h-74v-198h45z" />
    <glyph glyph-name="dcroat" unicode="&#x111;" horiz-adv-x="418" 
d="M356 0h-94v62q-15 -35 -41 -54.5t-52 -19.5q-68 0 -103 68t-35 185q0 116 35 185t103 69q28 0 53.5 -19t39.5 -56v113h-119v57h119v77h94v-77h41v-57h-41v-533zM198 71q20 0 38 20t26 48v205q-8 28 -26 48t-38 20q-70 0 -70 -171q0 -170 70 -170z" />
    <glyph glyph-name="Emacron" unicode="&#x112;" horiz-adv-x="367" 
d="M330 0h-273v667h273v-92h-169v-189h162v-92h-162v-202h169v-92zM321 735h-254v57h254v-57z" />
    <glyph glyph-name="emacron" unicode="&#x113;" horiz-adv-x="391" 
d="M213 -12q-88 0 -135 70t-47 184q0 111 43.5 182t126.5 71t123 -69.5t40 -181.5v-33h-241q1 -66 26 -106t73 -40q45 0 80 52l49 -51q-56 -78 -138 -78zM272 278q0 140 -74 140q-40 0 -57.5 -42.5t-17.5 -97.5h149zM328 568h-254v57h254v-57z" />
    <glyph glyph-name="Ebreve" unicode="&#x114;" horiz-adv-x="367" 
d="M330 0h-273v667h273v-92h-169v-189h162v-92h-162v-202h169v-92zM316 777q-46 -62 -122 -62t-122 62l46 35q26 -40 76 -40t76 40z" />
    <glyph glyph-name="ebreve" unicode="&#x115;" horiz-adv-x="391" 
d="M213 -12q-88 0 -135 70t-47 184q0 111 43.5 182t126.5 71t123 -69.5t40 -181.5v-33h-241q1 -66 26 -106t73 -40q45 0 80 52l49 -51q-56 -78 -138 -78zM272 278q0 140 -74 140q-40 0 -57.5 -42.5t-17.5 -97.5h149zM323 610q-46 -62 -122 -62t-122 62l46 35q26 -40 76 -40
t76 40z" />
    <glyph glyph-name="Edotaccent" unicode="&#x116;" horiz-adv-x="367" 
d="M330 0h-273v667h273v-92h-169v-189h162v-92h-162v-202h169v-92zM199 718q-22 0 -38 16t-16 38t16 38t38 16q23 0 38.5 -16t15.5 -38t-15.5 -38t-38.5 -16z" />
    <glyph glyph-name="edotaccent" unicode="&#x117;" horiz-adv-x="391" 
d="M213 -12q-88 0 -135 70t-47 184q0 111 43.5 182t126.5 71t123 -69.5t40 -181.5v-33h-241q1 -66 26 -106t73 -40q45 0 80 52l49 -51q-56 -78 -138 -78zM272 278q0 140 -74 140q-40 0 -57.5 -42.5t-17.5 -97.5h149zM201 551q-22 0 -38 16t-16 38t16 38t38 16
q23 0 38.5 -15.5t15.5 -38.5t-15.5 -38.5t-38.5 -15.5z" />
    <glyph glyph-name="Eogonek" unicode="&#x118;" horiz-adv-x="367" 
d="M330 0q-61 -43 -61 -104q0 -38 26 -38q22 0 29 31l42 -22q-19 -53 -72 -53q-35 0 -55.5 20t-20.5 59q0 58 46 107h-207v667h273v-92h-169v-189h162v-92h-162v-202h169v-92z" />
    <glyph glyph-name="eogonek" unicode="&#x119;" horiz-adv-x="391" 
d="M265 -111l42 -22q-19 -53 -72 -53q-35 0 -55.5 20t-20.5 59q0 51 37 96q-80 7 -122.5 76t-42.5 177q0 111 43.5 182t126.5 71t123 -69.5t40 -181.5v-33h-241q1 -66 26 -106t73 -40q45 0 80 52l49 -51q-32 -45 -80 -66q-61 -43 -61 -104q0 -38 26 -38q22 0 29 31zM272 278
q0 140 -74 140q-40 0 -57.5 -42.5t-17.5 -97.5h149z" />
    <glyph glyph-name="Ecaron" unicode="&#x11a;" horiz-adv-x="367" 
d="M236 723h-87l-67 144h54l56 -98l54 98h53zM330 0h-273v667h273v-92h-169v-189h162v-92h-162v-202h169v-92z" />
    <glyph glyph-name="ecaron" unicode="&#x11b;" horiz-adv-x="391" 
d="M247 556h-87l-67 144h54l56 -98l54 98h53zM213 -12q-88 0 -135 70t-47 184q0 111 43.5 182t126.5 71t123 -69.5t40 -181.5v-33h-241q1 -66 26 -106t73 -40q45 0 80 52l49 -51q-56 -78 -138 -78zM272 278q0 140 -74 140q-40 0 -57.5 -42.5t-17.5 -97.5h149z" />
    <glyph glyph-name="Gcircumflex" unicode="&#x11c;" horiz-adv-x="435" 
d="M339 723h-53l-57 98l-53 -98h-54l64 144h87zM230 -12q-97 0 -145.5 92.5t-48.5 252.5t48.5 252.5t145.5 92.5q116 0 155 -145l-84 -31q-11 41 -27 62t-44 21q-87 0 -87 -252t87 -252q43 0 65 35v144h-81v92h174v-280q-62 -84 -158 -84z" />
    <glyph glyph-name="gcircumflex" unicode="&#x11d;" horiz-adv-x="406" 
d="M312 556h-53l-57 98l-53 -98h-54l64 144h87zM187 -196q-88 0 -140 51l34 78q43 -46 97 -46q84 0 84 110v79q-15 -36 -41 -56t-52 -20q-68 0 -103 65t-35 182q0 115 35 181.5t103 66.5q28 0 53.5 -19t39.5 -56v63h94v-474q0 -205 -169 -205zM198 83q20 0 38 20t26 48v193
q-8 28 -26 48t-38 20q-70 0 -70 -165q0 -164 70 -164z" />
    <glyph glyph-name="Gbreve" unicode="&#x11e;" horiz-adv-x="435" 
d="M230 -12q-97 0 -145.5 92.5t-48.5 252.5t48.5 252.5t145.5 92.5q116 0 155 -145l-84 -31q-11 41 -27 62t-44 21q-87 0 -87 -252t87 -252q43 0 65 35v144h-81v92h174v-280q-62 -84 -158 -84zM354 777q-46 -62 -122 -62t-122 62l46 35q26 -40 76 -40t76 40z" />
    <glyph glyph-name="gbreve" unicode="&#x11f;" horiz-adv-x="406" 
d="M187 -196q-88 0 -140 51l34 78q43 -46 97 -46q84 0 84 110v79q-15 -36 -41 -56t-52 -20q-68 0 -103 65t-35 182q0 115 35 181.5t103 66.5q28 0 53.5 -19t39.5 -56v63h94v-474q0 -205 -169 -205zM198 83q20 0 38 20t26 48v193q-8 28 -26 48t-38 20q-70 0 -70 -165
q0 -164 70 -164zM325 610q-46 -62 -122 -62t-122 62l46 35q26 -40 76 -40t76 40z" />
    <glyph glyph-name="Gdotaccent" unicode="&#x120;" horiz-adv-x="435" 
d="M230 -12q-97 0 -145.5 92.5t-48.5 252.5t48.5 252.5t145.5 92.5q116 0 155 -145l-84 -31q-11 41 -27 62t-44 21q-87 0 -87 -252t87 -252q43 0 65 35v144h-81v92h174v-280q-62 -84 -158 -84zM231 718q-22 0 -38 16t-16 38t16 38t38 16q23 0 38.5 -16t15.5 -38t-15.5 -38
t-38.5 -16z" />
    <glyph glyph-name="gdotaccent" unicode="&#x121;" horiz-adv-x="406" 
d="M187 -196q-88 0 -140 51l34 78q43 -46 97 -46q84 0 84 110v79q-15 -36 -41 -56t-52 -20q-68 0 -103 65t-35 182q0 115 35 181.5t103 66.5q28 0 53.5 -19t39.5 -56v63h94v-474q0 -205 -169 -205zM198 83q20 0 38 20t26 48v193q-8 28 -26 48t-38 20q-70 0 -70 -165
q0 -164 70 -164zM203 551q-22 0 -38 16t-16 38t16 38t38 16q23 0 38.5 -15.5t15.5 -38.5t-15.5 -38.5t-38.5 -15.5z" />
    <glyph glyph-name="Gcommaaccent" unicode="&#x122;" horiz-adv-x="435" 
d="M282 -138q0 -41 -20.5 -78.5t-54.5 -61.5l-37 29q22 15 39.5 39t20.5 45l-5 -1h-7q-20 0 -33 13.5t-13 34.5t15 36.5t36 15.5q24 0 41.5 -19.5t17.5 -52.5zM230 -12q-97 0 -145.5 92.5t-48.5 252.5t48.5 252.5t145.5 92.5q116 0 155 -145l-84 -31q-11 41 -27 62t-44 21
q-87 0 -87 -252t87 -252q43 0 65 35v144h-81v92h174v-280q-62 -84 -158 -84z" />
    <glyph glyph-name="gcommaaccent" unicode="&#x123;" horiz-adv-x="406" 
d="M149 611q0 45 20.5 84.5t52.5 61.5l37 -29q-21 -13 -39 -36.5t-20 -44.5q3 1 5 1q19 0 35 -15t16 -35q0 -21 -15.5 -37t-37.5 -16q-21 0 -37.5 16.5t-16.5 49.5zM187 -196q-88 0 -140 51l34 78q43 -46 97 -46q84 0 84 110v79q-15 -36 -41 -56t-52 -20q-68 0 -103 65
t-35 182q0 115 35 181.5t103 66.5q28 0 53.5 -19t39.5 -56v63h94v-474q0 -205 -169 -205zM198 83q20 0 38 20t26 48v193q-8 28 -26 48t-38 20q-70 0 -70 -165q0 -164 70 -164z" />
    <glyph glyph-name="Hcircumflex" unicode="&#x124;" horiz-adv-x="463" 
d="M340 723h-53l-57 98l-53 -98h-54l64 144h87zM407 0h-105v297h-141v-297h-104v667h104v-278h141v278h105v-667z" />
    <glyph glyph-name="hcircumflex" unicode="&#x125;" 
d="M310 723h-53l-57 98l-53 -98h-54l64 144h87zM352 0h-94v357q0 55 -41 55q-23 0 -42.5 -20.5t-30.5 -49.5v-342h-94v667h94v-249q16 31 47.5 54t63.5 23q97 0 97 -107v-388z" />
    <glyph glyph-name="Hbar" unicode="&#x126;" horiz-adv-x="499" 
d="M425 0h-105v297h-141v-297h-104v501h-57v57h57v109h104v-109h141v109h105v-109h52v-57h-52v-501zM179 389h141v112h-141v-112z" />
    <glyph glyph-name="hbar" unicode="&#x127;" horiz-adv-x="415" 
d="M272 533h-115v-115q16 31 47.5 54t63.5 23q97 0 97 -107v-388h-94v357q0 55 -41 55q-23 0 -42.5 -20.5t-30.5 -49.5v-342h-94v533h-45v57h45v77h94v-77h115v-57z" />
    <glyph glyph-name="Itilde" unicode="&#x128;" horiz-adv-x="218" 
d="M161 0h-104v667h104v-667zM152 721q-18 0 -32 13t-21 28.5t-16 28.5t-17 13q-27 0 -27 -77h-50q0 59 21 96.5t59 37.5q18 0 32.5 -13t21.5 -28.5t15.5 -28.5t17.5 -13q26 0 26 77h50q0 -60 -20.5 -97t-59.5 -37z" />
    <glyph glyph-name="itilde" unicode="&#x129;" horiz-adv-x="194" 
d="M144 0h-94v483h94v-483zM139 554q-18 0 -32 13t-21 28.5t-16 28.5t-17 13q-27 0 -27 -77h-50q0 59 21 96.5t59 37.5q18 0 32.5 -13t21.5 -28.5t15.5 -28.5t17.5 -13q26 0 26 77h50q0 -60 -20.5 -97t-59.5 -37z" />
    <glyph glyph-name="Imacron" unicode="&#x12a;" horiz-adv-x="218" 
d="M161 0h-104v667h104v-667zM236 735h-254v57h254v-57z" />
    <glyph glyph-name="imacron" unicode="&#x12b;" horiz-adv-x="194" 
d="M144 0h-94v483h94v-483zM224 568h-254v57h254v-57z" />
    <glyph glyph-name="Ibreve" unicode="&#x12c;" horiz-adv-x="218" 
d="M161 0h-104v667h104v-667zM231 777q-46 -62 -122 -62t-122 62l46 35q26 -40 76 -40t76 40z" />
    <glyph glyph-name="ibreve" unicode="&#x12d;" horiz-adv-x="194" 
d="M144 0h-94v483h94v-483zM219 610q-46 -62 -122 -62t-122 62l46 35q26 -40 76 -40t76 40z" />
    <glyph glyph-name="Iogonek" unicode="&#x12e;" horiz-adv-x="218" 
d="M155 -111l42 -22q-19 -53 -72 -53q-35 0 -55.5 20t-20.5 59q0 58 46 107h-38v667h104v-667q-61 -43 -61 -104q0 -38 26 -38q22 0 29 31z" />
    <glyph glyph-name="iogonek" unicode="&#x12f;" horiz-adv-x="194" 
d="M138 -111l42 -22q-19 -53 -72 -53q-35 0 -55.5 20t-20.5 59q0 58 46 107h-28v483h94v-483q-61 -43 -61 -104q0 -38 26 -38q22 0 29 31zM97 546q-24 0 -42 17.5t-18 41.5q0 25 18 42.5t42 17.5q25 0 42.5 -17.5t17.5 -42.5t-17.5 -42t-42.5 -17z" />
    <glyph glyph-name="Idotaccent" unicode="&#x130;" horiz-adv-x="218" 
d="M161 0h-104v667h104v-667zM109 718q-22 0 -38 16t-16 38t16 38t38 16q23 0 38.5 -16t15.5 -38t-15.5 -38t-38.5 -16z" />
    <glyph glyph-name="dotlessi" unicode="&#x131;" horiz-adv-x="194" 
d="M144 0h-94v483h94v-483z" />
    <glyph glyph-name="IJ" unicode="&#x132;" horiz-adv-x="554" 
d="M161 0h-104v667h104v-667zM333 -12q-64 0 -108 40l32 85q26 -32 65 -32q73 0 73 80v506h104v-511q0 -85 -44.5 -126.5t-121.5 -41.5z" />
    <glyph glyph-name="ij" unicode="&#x133;" horiz-adv-x="388" 
d="M97 546q-24 0 -42 17.5t-18 41.5q0 25 18 42.5t42 17.5q25 0 42.5 -17.5t17.5 -42.5t-17.5 -42t-42.5 -17zM144 0h-94v483h94v-483zM291 546q-24 0 -42 17.5t-18 41.5q0 25 18 42.5t42 17.5q25 0 42.5 -17.5t17.5 -42.5t-17.5 -42t-42.5 -17zM218 -196q-40 0 -59 27
l26 72q8 -16 26 -16q33 0 33 59v537h94v-537q0 -74 -29 -108t-91 -34z" />
    <glyph glyph-name="Jcircumflex" unicode="&#x134;" horiz-adv-x="337" 
d="M337 723h-53l-57 98l-53 -98h-54l64 144h87zM115 -12q-64 0 -108 40l32 85q26 -32 65 -32q73 0 73 80v506h104v-511q0 -85 -44.5 -126.5t-121.5 -41.5z" />
    <glyph glyph-name="jcircumflex" unicode="&#x135;" horiz-adv-x="194" 
d="M207 556h-53l-57 98l-53 -98h-54l64 144h87zM24 -196q-40 0 -59 27l26 72q8 -16 26 -16q33 0 33 59v537h94v-537q0 -74 -29 -108t-91 -34z" />
    <glyph glyph-name="Kcommaaccent" unicode="&#x136;" horiz-adv-x="448" 
d="M286 -138q0 -41 -20.5 -78.5t-54.5 -61.5l-37 29q22 15 39.5 39t20.5 45l-5 -1h-7q-20 0 -33 13.5t-13 34.5t15 36.5t36 15.5q24 0 41.5 -19.5t17.5 -52.5zM442 0h-119l-119 269l-43 -85v-184h-104v667h104v-325l153 325h115l-165 -315z" />
    <glyph glyph-name="kcommaaccent" unicode="&#x137;" horiz-adv-x="385" 
d="M254 -138q0 -41 -20.5 -78.5t-54.5 -61.5l-37 29q22 15 39.5 39t20.5 45l-5 -1h-7q-20 0 -33 13.5t-13 34.5t15 36.5t36 15.5q24 0 41.5 -19.5t17.5 -52.5zM375 0h-102l-80 204l-49 -87v-117h-94v667h94v-426l127 242h102l-118 -215z" />
    <glyph glyph-name="kgreenlandic" unicode="&#x138;" horiz-adv-x="385" 
d="M375 0h-102l-80 204l-49 -87v-117h-94v483h94v-242l127 242h102l-118 -215z" />
    <glyph glyph-name="Lacute" unicode="&#x139;" horiz-adv-x="351" 
d="M316 867l-103 -144h-61l79 144h85zM330 0h-273v667h104v-575h169v-92z" />
    <glyph glyph-name="lacute" unicode="&#x13a;" horiz-adv-x="194" 
d="M220 867l-103 -144h-61l79 144h85zM144 0h-94v667h94v-667z" />
    <glyph glyph-name="Lcommaaccent" unicode="&#x13b;" horiz-adv-x="351" 
d="M237 -138q0 -41 -20.5 -78.5t-54.5 -61.5l-37 29q22 15 39.5 39t20.5 45l-5 -1h-7q-20 0 -33 13.5t-13 34.5t15 36.5t36 15.5q24 0 41.5 -19.5t17.5 -52.5zM330 0h-273v667h104v-575h169v-92z" />
    <glyph glyph-name="lcommaaccent" unicode="&#x13c;" horiz-adv-x="194" 
d="M159 -138q0 -41 -20.5 -78.5t-54.5 -61.5l-37 29q22 15 39.5 39t20.5 45l-5 -1h-7q-20 0 -33 13.5t-13 34.5t15 36.5t36 15.5q24 0 41.5 -19.5t17.5 -52.5zM144 0h-94v667h94v-667z" />
    <glyph glyph-name="Lcaron" unicode="&#x13d;" horiz-adv-x="351" 
d="M322 608q0 -41 -20.5 -78.5t-54.5 -61.5l-37 29q22 15 39.5 39t20.5 45l-5 -1h-7q-20 0 -33 13.5t-13 34.5t15 36.5t36 15.5q24 0 41.5 -19.5t17.5 -52.5zM330 0h-273v667h104v-575h169v-92z" />
    <glyph glyph-name="lcaron" unicode="&#x13e;" horiz-adv-x="293" 
d="M312 608q0 -41 -20.5 -78.5t-54.5 -61.5l-37 29q22 15 39.5 39t20.5 45l-5 -1h-7q-20 0 -33 13.5t-13 34.5t15 36.5t36 15.5q24 0 41.5 -19.5t17.5 -52.5zM144 0h-94v667h94v-667z" />
    <glyph glyph-name="Ldot" unicode="&#x13f;" horiz-adv-x="400" 
d="M330 0h-273v667h104v-575h169v-92zM374 342q0 -26 -19 -45.5t-46 -19.5q-26 0 -45 19.5t-19 45.5t19 45t45 19q27 0 46 -19t19 -45z" />
    <glyph glyph-name="ldot" unicode="&#x140;" horiz-adv-x="327" 
d="M144 0h-94v667h94v-667zM325 245q0 -26 -19 -45.5t-46 -19.5q-26 0 -45 19.5t-19 45.5t19 45t45 19q27 0 46 -19t19 -45z" />
    <glyph glyph-name="Lslash" unicode="&#x141;" horiz-adv-x="362" 
d="M18 231v88l50 29v319h104v-259l59 34v-88l-59 -34v-228h169v-92h-273v260z" />
    <glyph glyph-name="lslash" unicode="&#x142;" horiz-adv-x="233" 
d="M18 246v72l52 29v320h94v-266l51 29v-71l-51 -29v-330h-94v276z" />
    <glyph glyph-name="Nacute" unicode="&#x143;" horiz-adv-x="463" 
d="M355 867l-103 -144h-61l79 144h85zM407 0h-99l-147 386v-386h-104v667h104l141 -375v375h105v-667z" />
    <glyph glyph-name="nacute" unicode="&#x144;" 
d="M324 700l-103 -144h-61l79 144h85zM352 0h-94v356q0 56 -41 56q-23 0 -42.5 -20.5t-30.5 -49.5v-342h-94v483h94v-65q16 31 47.5 54t63.5 23q97 0 97 -108v-387z" />
    <glyph glyph-name="Ncommaaccent" unicode="&#x145;" horiz-adv-x="463" 
d="M293 -138q0 -41 -20.5 -78.5t-54.5 -61.5l-37 29q22 15 39.5 39t20.5 45l-5 -1h-7q-20 0 -33 13.5t-13 34.5t15 36.5t36 15.5q24 0 41.5 -19.5t17.5 -52.5zM407 0h-99l-147 386v-386h-104v667h104l141 -375v375h105v-667z" />
    <glyph glyph-name="ncommaaccent" unicode="&#x146;" 
d="M262 -138q0 -41 -20.5 -78.5t-54.5 -61.5l-37 29q22 15 39.5 39t20.5 45l-5 -1h-7q-20 0 -33 13.5t-13 34.5t15 36.5t36 15.5q24 0 41.5 -19.5t17.5 -52.5zM352 0h-94v356q0 56 -41 56q-23 0 -42.5 -20.5t-30.5 -49.5v-342h-94v483h94v-65q16 31 47.5 54t63.5 23
q97 0 97 -108v-387z" />
    <glyph glyph-name="Ncaron" unicode="&#x147;" horiz-adv-x="463" 
d="M277 723h-87l-67 144h54l56 -98l54 98h53zM407 0h-99l-147 386v-386h-104v667h104l141 -375v375h105v-667z" />
    <glyph glyph-name="ncaron" unicode="&#x148;" 
d="M246 556h-87l-67 144h54l56 -98l54 98h53zM352 0h-94v356q0 56 -41 56q-23 0 -42.5 -20.5t-30.5 -49.5v-342h-94v483h94v-65q16 31 47.5 54t63.5 23q97 0 97 -108v-387z" />
    <glyph glyph-name="napostrophe" unicode="&#x149;" 
d="M149 679q0 -41 -20.5 -78.5t-54.5 -61.5l-37 29q22 15 39.5 39t20.5 45h-5q-5 -1 -7 -1q-20 0 -33 13.5t-13 34.5t15 36.5t36 15.5q24 0 41.5 -19.5t17.5 -52.5zM352 0h-94v356q0 56 -41 56q-23 0 -42.5 -20.5t-30.5 -49.5v-342h-94v483h94v-65q16 31 47.5 54t63.5 23
q97 0 97 -108v-387z" />
    <glyph glyph-name="Eng" unicode="&#x14a;" horiz-adv-x="463" 
d="M241 -196q-65 0 -108 40l32 83q26 -32 65 -32q72 0 72 80v41l-141 370v-386h-104v667h104l141 -375v375h105v-695q0 -85 -44.5 -126.5t-121.5 -41.5z" />
    <glyph glyph-name="eng" unicode="&#x14b;" 
d="M352 387v-441q0 -74 -29 -108t-91 -34q-40 0 -59 27l26 72q8 -16 26 -16q33 0 33 59v410q0 56 -41 56q-23 0 -42.5 -20.5t-30.5 -49.5v-342h-94v483h94v-65q16 31 47.5 54t63.5 23q97 0 97 -108z" />
    <glyph glyph-name="Omacron" unicode="&#x14c;" horiz-adv-x="459" 
d="M356 735h-254v57h254v-57zM229 -12q-98 0 -145.5 94.5t-47.5 250.5q0 155 47.5 250t145.5 95t146 -95t48 -250t-48 -250t-146 -95zM229 81q87 0 87 252t-87 252q-86 0 -86 -252t86 -252z" />
    <glyph glyph-name="omacron" unicode="&#x14d;" 
d="M328 568h-254v57h254v-57zM201 -12q-85 0 -127.5 72.5t-42.5 181.5t42.5 181t127.5 72t127 -72t42 -181t-42 -181.5t-127 -72.5zM201 71q72 0 72 171q0 170 -72 170t-72 -170q0 -171 72 -171z" />
    <glyph glyph-name="Obreve" unicode="&#x14e;" horiz-adv-x="459" 
d="M229 -12q-98 0 -145.5 94.5t-47.5 250.5q0 155 47.5 250t145.5 95t146 -95t48 -250t-48 -250t-146 -95zM229 81q87 0 87 252t-87 252q-86 0 -86 -252t86 -252zM352 777q-46 -62 -122 -62t-122 62l46 35q26 -40 76 -40t76 40z" />
    <glyph glyph-name="obreve" unicode="&#x14f;" 
d="M201 -12q-85 0 -127.5 72.5t-42.5 181.5t42.5 181t127.5 72t127 -72t42 -181t-42 -181.5t-127 -72.5zM201 71q72 0 72 171q0 170 -72 170t-72 -170q0 -171 72 -171zM323 610q-46 -62 -122 -62t-122 62l46 35q26 -40 76 -40t76 40z" />
    <glyph glyph-name="Ohungarumlaut" unicode="&#x150;" horiz-adv-x="459" 
d="M262 867l-79 -144h-50l55 144h74zM385 867l-79 -144h-50l55 144h74zM229 -12q-98 0 -145.5 94.5t-47.5 250.5q0 155 47.5 250t145.5 95t146 -95t48 -250t-48 -250t-146 -95zM229 81q87 0 87 252t-87 252q-86 0 -86 -252t86 -252z" />
    <glyph glyph-name="ohungarumlaut" unicode="&#x151;" 
d="M234 700l-79 -144h-50l55 144h74zM357 700l-79 -144h-50l55 144h74zM201 -12q-85 0 -127.5 72.5t-42.5 181.5t42.5 181t127.5 72t127 -72t42 -181t-42 -181.5t-127 -72.5zM201 71q72 0 72 171q0 170 -72 170t-72 -170q0 -171 72 -171z" />
    <glyph glyph-name="OE" unicode="&#x152;" horiz-adv-x="616" 
d="M580 0h-273v57q-31 -69 -97 -69q-61 0 -101 47t-56.5 122t-16.5 176t16.5 175.5t56.5 121.5t101 47q66 0 97 -67v57h273v-92h-168v-189h161v-92h-161v-202h168v-92zM307 185v296q-22 103 -77 103q-87 0 -87 -251q0 -252 87 -252q26 0 46 27t31 77z" />
    <glyph glyph-name="oe" unicode="&#x153;" horiz-adv-x="632" 
d="M605 211h-240q1 -67 25.5 -106.5t72.5 -39.5q47 0 80 52l49 -51q-54 -78 -137 -78q-91 0 -132 98q-40 -98 -122 -98q-85 0 -127.5 72.5t-42.5 181.5t42.5 181t127.5 72q82 0 121 -95q38 95 120 95q83 0 123 -70t40 -183v-31zM365 278h149q0 140 -74 140
q-40 0 -57.5 -42.5t-17.5 -97.5zM273 242q0 170 -72 170t-72 -170q0 -171 72 -171t72 171z" />
    <glyph glyph-name="Racute" unicode="&#x154;" horiz-adv-x="438" 
d="M349 867l-103 -144h-61l79 144h85zM400 0h-112l-79 255h-48v-255h-104v667h166q75 0 123 -56t48 -147q0 -78 -26.5 -122.5t-62.5 -61.5zM208 347q38 0 58.5 31t20.5 83t-20.5 83t-58.5 31h-47v-228h47z" />
    <glyph glyph-name="racute" unicode="&#x155;" horiz-adv-x="268" 
d="M275 700l-103 -144h-61l79 144h85zM144 0h-94v483h94v-71q16 36 46 59t64 23v-94q-10 3 -20 3q-27 0 -51 -20t-39 -50v-333z" />
    <glyph glyph-name="Rcommaaccent" unicode="&#x156;" horiz-adv-x="438" 
d="M279 -138q0 -41 -20.5 -78.5t-54.5 -61.5l-37 29q22 15 39.5 39t20.5 45l-5 -1h-7q-20 0 -33 13.5t-13 34.5t15 36.5t36 15.5q24 0 41.5 -19.5t17.5 -52.5zM400 0h-112l-79 255h-48v-255h-104v667h166q75 0 123 -56t48 -147q0 -78 -26.5 -122.5t-62.5 -61.5zM208 347
q38 0 58.5 31t20.5 83t-20.5 83t-58.5 31h-47v-228h47z" />
    <glyph glyph-name="rcommaaccent" unicode="&#x157;" horiz-adv-x="268" 
d="M195 -138q0 -41 -20.5 -78.5t-54.5 -61.5l-37 29q22 15 39.5 39t20.5 45l-5 -1h-7q-20 0 -33 13.5t-13 34.5t15 36.5t36 15.5q24 0 41.5 -19.5t17.5 -52.5zM144 0h-94v483h94v-71q16 36 46 59t64 23v-94q-10 3 -20 3q-27 0 -51 -20t-39 -50v-333z" />
    <glyph glyph-name="Rcaron" unicode="&#x158;" horiz-adv-x="438" 
d="M263 723h-87l-67 144h54l56 -98l54 98h53zM400 0h-112l-79 255h-48v-255h-104v667h166q75 0 123 -56t48 -147q0 -78 -26.5 -122.5t-62.5 -61.5zM208 347q38 0 58.5 31t20.5 83t-20.5 83t-58.5 31h-47v-228h47z" />
    <glyph glyph-name="rcaron" unicode="&#x159;" horiz-adv-x="268" 
d="M195 556h-87l-67 144h54l56 -98l54 98h53zM144 0h-94v483h94v-71q16 36 46 59t64 23v-94q-10 3 -20 3q-27 0 -51 -20t-39 -50v-333z" />
    <glyph glyph-name="Sacute" unicode="&#x15a;" horiz-adv-x="378" 
d="M314 867l-103 -144h-61l79 144h85zM175 -12q-100 0 -159 64l47 82q41 -53 106 -53q33 0 54 24t21 62q0 36 -21.5 66t-52.5 53.5t-62 49.5t-52.5 68.5t-21.5 96.5q0 76 47 126.5t125 50.5q81 0 134 -51l-42 -80q-37 38 -89 38q-30 0 -49.5 -22t-19.5 -57q0 -31 21.5 -58.5
t52.5 -51.5t62 -52t52.5 -72t21.5 -99q0 -81 -48 -133t-127 -52z" />
    <glyph glyph-name="sacute" unicode="&#x15b;" horiz-adv-x="330" 
d="M292 700l-103 -144h-61l79 144h85zM162 -12q-97 0 -146 62l41 65q43 -52 97 -52q28 0 46.5 16.5t18.5 43.5q0 25 -19.5 44t-47 34.5t-54.5 34t-46.5 51.5t-19.5 78q0 56 38.5 93t104.5 37q77 0 130 -56l-40 -63q-33 44 -88 44q-25 0 -41 -15t-16 -37q0 -23 19.5 -41.5
t47 -33.5t55 -34t47 -53t19.5 -80q0 -61 -41.5 -99.5t-104.5 -38.5z" />
    <glyph glyph-name="Scircumflex" unicode="&#x15c;" horiz-adv-x="378" 
d="M314 723h-53l-57 98l-53 -98h-54l64 144h87zM175 -12q-100 0 -159 64l47 82q41 -53 106 -53q33 0 54 24t21 62q0 36 -21.5 66t-52.5 53.5t-62 49.5t-52.5 68.5t-21.5 96.5q0 76 47 126.5t125 50.5q81 0 134 -51l-42 -80q-37 38 -89 38q-30 0 -49.5 -22t-19.5 -57
q0 -31 21.5 -58.5t52.5 -51.5t62 -52t52.5 -72t21.5 -99q0 -81 -48 -133t-127 -52z" />
    <glyph glyph-name="scircumflex" unicode="&#x15d;" horiz-adv-x="330" 
d="M278 556h-53l-57 98l-53 -98h-54l64 144h87zM162 -12q-97 0 -146 62l41 65q43 -52 97 -52q28 0 46.5 16.5t18.5 43.5q0 25 -19.5 44t-47 34.5t-54.5 34t-46.5 51.5t-19.5 78q0 56 38.5 93t104.5 37q77 0 130 -56l-40 -63q-33 44 -88 44q-25 0 -41 -15t-16 -37
q0 -23 19.5 -41.5t47 -33.5t55 -34t47 -53t19.5 -80q0 -61 -41.5 -99.5t-104.5 -38.5z" />
    <glyph glyph-name="Scedilla" unicode="&#x15e;" horiz-adv-x="378" 
d="M170 -193q-46 0 -82 31l20 41q32 -27 60 -27q18 0 31 10.5t13 27.5q0 30 -26 30q-16 0 -27 -13l-37 21l23 62q-79 7 -129 62l47 82q41 -53 106 -53q33 0 54 24t21 62q0 36 -21.5 66t-52.5 53.5t-62 49.5t-52.5 68.5t-21.5 96.5q0 76 47 126.5t125 50.5q81 0 134 -51
l-42 -80q-37 38 -89 38q-30 0 -49.5 -22t-19.5 -57q0 -31 21.5 -58.5t52.5 -51.5t62 -52t52.5 -72t21.5 -99q0 -75 -42.5 -126t-112.5 -58l-17 -43q13 10 29 10q24 0 40 -19t16 -48q0 -36 -26.5 -59t-66.5 -23z" />
    <glyph glyph-name="scedilla" unicode="&#x15f;" horiz-adv-x="330" 
d="M155 -193q-46 0 -82 31l20 41q32 -27 60 -27q18 0 31 10.5t13 27.5q0 30 -26 30q-16 0 -27 -13l-37 21l23 62q-77 11 -114 60l41 65q43 -52 97 -52q28 0 46.5 16.5t18.5 43.5q0 25 -19.5 44t-47 34.5t-54.5 34t-46.5 51.5t-19.5 78q0 56 38.5 93t104.5 37q77 0 130 -56
l-40 -63q-33 44 -88 44q-25 0 -41 -15t-16 -37q0 -23 19.5 -41.5t47 -33.5t55 -34t47 -53t19.5 -80q0 -56 -36 -93.5t-92 -43.5l-17 -43q13 10 29 10q24 0 40 -19t16 -48q0 -36 -26.5 -59t-66.5 -23z" />
    <glyph glyph-name="Scaron" unicode="&#x160;" horiz-adv-x="378" 
d="M251 723h-87l-67 144h54l56 -98l54 98h53zM175 -12q-100 0 -159 64l47 82q41 -53 106 -53q33 0 54 24t21 62q0 36 -21.5 66t-52.5 53.5t-62 49.5t-52.5 68.5t-21.5 96.5q0 76 47 126.5t125 50.5q81 0 134 -51l-42 -80q-37 38 -89 38q-30 0 -49.5 -22t-19.5 -57
q0 -31 21.5 -58.5t52.5 -51.5t62 -52t52.5 -72t21.5 -99q0 -81 -48 -133t-127 -52z" />
    <glyph glyph-name="scaron" unicode="&#x161;" horiz-adv-x="330" 
d="M215 556h-87l-67 144h54l56 -98l54 98h53zM162 -12q-97 0 -146 62l41 65q43 -52 97 -52q28 0 46.5 16.5t18.5 43.5q0 25 -19.5 44t-47 34.5t-54.5 34t-46.5 51.5t-19.5 78q0 56 38.5 93t104.5 37q77 0 130 -56l-40 -63q-33 44 -88 44q-25 0 -41 -15t-16 -37
q0 -23 19.5 -41.5t47 -33.5t55 -34t47 -53t19.5 -80q0 -61 -41.5 -99.5t-104.5 -38.5z" />
    <glyph glyph-name="Tcommaaccent" unicode="&#x162;" horiz-adv-x="346" 
d="M234 -138q0 -41 -20.5 -78.5t-54.5 -61.5l-37 29q22 15 39.5 39t20.5 45l-5 -1h-7q-20 0 -33 13.5t-13 34.5t15 36.5t36 15.5q24 0 41.5 -19.5t17.5 -52.5zM225 0h-104v575h-103v92h310v-92h-103v-575z" />
    <glyph glyph-name="tcommaaccent" unicode="&#x163;" horiz-adv-x="247" 
d="M185 -138q0 -41 -20.5 -78.5t-54.5 -61.5l-37 29q22 15 39.5 39t20.5 45l-5 -1h-7q-20 0 -33 13.5t-13 34.5t15 36.5t36 15.5q24 0 41.5 -19.5t17.5 -52.5zM165 -12q-53 0 -76.5 28t-23.5 87v298h-47v82h47v132h94v-132h63v-82h-63v-281q0 -49 28 -49q18 0 30 15l22 -72
q-26 -26 -74 -26z" />
    <glyph glyph-name="Tcaron" unicode="&#x164;" horiz-adv-x="346" 
d="M218 723h-87l-67 144h54l56 -98l54 98h53zM225 0h-104v575h-103v92h310v-92h-103v-575z" />
    <glyph glyph-name="tcaron" unicode="&#x165;" horiz-adv-x="247" 
d="M312 679q0 -41 -20.5 -78.5t-54.5 -61.5l-37 29q22 15 39.5 39t20.5 45h-5q-5 -1 -7 -1q-20 0 -33 13.5t-13 34.5t15 36.5t36 15.5q24 0 41.5 -19.5t17.5 -52.5zM165 -12q-53 0 -76.5 28t-23.5 87v298h-47v82h47v132h94v-132h63v-82h-63v-281q0 -49 28 -49q18 0 30 15
l22 -72q-26 -26 -74 -26z" />
    <glyph glyph-name="Tbar" unicode="&#x166;" horiz-adv-x="346" 
d="M225 0h-104v283h-72v57h72v235h-103v92h310v-92h-103v-235h70v-57h-70v-283z" />
    <glyph glyph-name="tbar" unicode="&#x167;" horiz-adv-x="247" 
d="M165 -12q-53 0 -76.5 28t-23.5 87v117h-47v57h47v124h-47v82h47v132h94v-132h63v-82h-63v-124h32v-57h-32v-100q0 -49 28 -49q18 0 30 15l22 -72q-26 -26 -74 -26z" />
    <glyph glyph-name="Utilde" unicode="&#x168;" horiz-adv-x="464" 
d="M232 -12q-76 0 -125.5 49.5t-49.5 146.5v483h104v-488q0 -99 71 -99t71 99v488h104v-483q0 -97 -49.5 -146.5t-125.5 -49.5zM275 721q-18 0 -32 13t-21 28.5t-16 28.5t-17 13q-27 0 -27 -77h-50q0 59 21 96.5t59 37.5q18 0 32.5 -13t21.5 -28.5t15.5 -28.5t17.5 -13
q26 0 26 77h50q0 -60 -20.5 -97t-59.5 -37z" />
    <glyph glyph-name="utilde" unicode="&#x169;" 
d="M352 0h-94v63q-16 -31 -46.5 -53t-64.5 -22q-97 0 -97 107v388h94v-357q0 -55 41 -55q23 0 43 20t30 48v344h94v-483zM242 554q-18 0 -32 13t-21 28.5t-16 28.5t-17 13q-27 0 -27 -77h-50q0 59 21 96.5t59 37.5q18 0 32.5 -13t21.5 -28.5t15.5 -28.5t17.5 -13q26 0 26 77
h50q0 -60 -20.5 -97t-59.5 -37z" />
    <glyph glyph-name="Umacron" unicode="&#x16a;" horiz-adv-x="464" 
d="M232 -12q-76 0 -125.5 49.5t-49.5 146.5v483h104v-488q0 -99 71 -99t71 99v488h104v-483q0 -97 -49.5 -146.5t-125.5 -49.5zM359 735h-254v57h254v-57z" />
    <glyph glyph-name="umacron" unicode="&#x16b;" 
d="M352 0h-94v63q-16 -31 -46.5 -53t-64.5 -22q-97 0 -97 107v388h94v-357q0 -55 41 -55q23 0 43 20t30 48v344h94v-483zM328 568h-254v57h254v-57z" />
    <glyph glyph-name="Ubreve" unicode="&#x16c;" horiz-adv-x="464" 
d="M232 -12q-76 0 -125.5 49.5t-49.5 146.5v483h104v-488q0 -99 71 -99t71 99v488h104v-483q0 -97 -49.5 -146.5t-125.5 -49.5zM355 777q-46 -62 -122 -62t-122 62l46 35q26 -40 76 -40t76 40z" />
    <glyph glyph-name="ubreve" unicode="&#x16d;" 
d="M352 0h-94v63q-16 -31 -46.5 -53t-64.5 -22q-97 0 -97 107v388h94v-357q0 -55 41 -55q23 0 43 20t30 48v344h94v-483zM323 610q-46 -62 -122 -62t-122 62l46 35q26 -40 76 -40t76 40z" />
    <glyph glyph-name="Uring" unicode="&#x16e;" horiz-adv-x="464" 
d="M232 693q-35 0 -60.5 25.5t-25.5 61.5q0 35 25.5 60.5t60.5 25.5q36 0 61 -25.5t25 -60.5q0 -36 -25 -61.5t-61 -25.5zM232 737q18 0 30.5 12.5t12.5 30.5q0 17 -12.5 29.5t-30.5 12.5q-17 0 -29.5 -12.5t-12.5 -29.5q0 -18 12.5 -30.5t29.5 -12.5zM232 -12
q-76 0 -125.5 49.5t-49.5 146.5v483h104v-488q0 -99 71 -99t71 99v488h104v-483q0 -97 -49.5 -146.5t-125.5 -49.5z" />
    <glyph glyph-name="uring" unicode="&#x16f;" 
d="M201 540q-35 0 -60.5 25.5t-25.5 61.5q0 35 25.5 60.5t60.5 25.5q36 0 61 -25.5t25 -60.5q0 -36 -25 -61.5t-61 -25.5zM201 584q18 0 30.5 12.5t12.5 30.5q0 17 -12.5 29.5t-30.5 12.5q-17 0 -29.5 -12.5t-12.5 -29.5q0 -18 12.5 -30.5t29.5 -12.5zM352 0h-94v63
q-16 -31 -46.5 -53t-64.5 -22q-97 0 -97 107v388h94v-357q0 -55 41 -55q23 0 43 20t30 48v344h94v-483z" />
    <glyph glyph-name="Uhungarumlaut" unicode="&#x170;" horiz-adv-x="464" 
d="M232 -12q-76 0 -125.5 49.5t-49.5 146.5v483h104v-488q0 -99 71 -99t71 99v488h104v-483q0 -97 -49.5 -146.5t-125.5 -49.5zM264 867l-79 -144h-50l55 144h74zM387 867l-79 -144h-50l55 144h74z" />
    <glyph glyph-name="uhungarumlaut" unicode="&#x171;" 
d="M352 0h-94v63q-16 -31 -46.5 -53t-64.5 -22q-97 0 -97 107v388h94v-357q0 -55 41 -55q23 0 43 20t30 48v344h94v-483zM234 700l-79 -144h-50l55 144h74zM357 700l-79 -144h-50l55 144h74z" />
    <glyph glyph-name="Uogonek" unicode="&#x172;" horiz-adv-x="464" 
d="M294 -111l42 -22q-19 -53 -72 -53q-35 0 -55.5 20t-20.5 59q0 50 36 95q-73 2 -120 51.5t-47 144.5v483h104v-488q0 -99 71 -99t71 99v488h104v-483q0 -144 -107 -184q-61 -43 -61 -104q0 -38 26 -38q22 0 29 31z" />
    <glyph glyph-name="uogonek" unicode="&#x173;" 
d="M352 0q-61 -43 -61 -104q0 -38 26 -38q22 0 29 31l42 -22q-19 -53 -72 -53q-35 0 -55.5 20t-20.5 59q0 58 46 107h-28v63q-16 -31 -46.5 -53t-64.5 -22q-97 0 -97 107v388h94v-357q0 -55 41 -55q23 0 43 20t30 48v344h94v-483z" />
    <glyph glyph-name="Wcircumflex" unicode="&#x174;" horiz-adv-x="587" 
d="M402 723h-53l-57 98l-53 -98h-54l64 144h87zM462 0h-107l-62 466l-61 -466h-107l-111 667h107l62 -483l68 483h85l69 -483l61 483h107z" />
    <glyph glyph-name="wcircumflex" unicode="&#x175;" horiz-adv-x="579" 
d="M399 556h-53l-57 98l-53 -98h-54l64 144h87zM462 0h-98l-74 355l-75 -355h-98l-108 483h97l66 -354l69 354h92l73 -354l67 354h98z" />
    <glyph glyph-name="Ycircumflex" unicode="&#x176;" horiz-adv-x="405" 
d="M311 723h-53l-57 98l-53 -98h-54l64 144h87zM255 0h-104v279l-154 388h112l94 -285l95 285h110l-153 -388v-279z" />
    <glyph glyph-name="ycircumflex" unicode="&#x177;" horiz-adv-x="357" 
d="M37 -189l14 82q11 -6 23 -6q30 0 41 39l16 61l-126 496h100l73 -364l75 364h99l-148 -577q-16 -58 -43 -80t-75 -22q-32 0 -49 7zM292 556h-53l-57 98l-53 -98h-54l64 144h87z" />
    <glyph glyph-name="Ydieresis" unicode="&#x178;" horiz-adv-x="405" 
d="M336 773q0 -22 -16 -37.5t-39 -15.5q-22 0 -37.5 15.5t-15.5 37.5t15.5 38t37.5 16q23 0 39 -16t16 -38zM182 773q0 -22 -16 -37.5t-38 -15.5t-38 15.5t-16 37.5t16 38t38 16t38 -15.5t16 -38.5zM255 0h-104v279l-154 388h112l94 -285l95 285h110l-153 -388v-279z" />
    <glyph glyph-name="Zacute" unicode="&#x179;" horiz-adv-x="360" 
d="M303 867l-103 -144h-61l79 144h85zM330 0h-299v89l175 486h-175v92h292v-85l-178 -490h185v-92z" />
    <glyph glyph-name="zacute" unicode="&#x17a;" horiz-adv-x="321" 
d="M283 700l-103 -144h-61l79 144h85zM291 0h-261v72l146 329h-146v82h257v-69l-146 -332h150v-82z" />
    <glyph glyph-name="Zdotaccent" unicode="&#x17b;" horiz-adv-x="360" 
d="M330 0h-299v89l175 486h-175v92h292v-85l-178 -490h185v-92zM179 718q-22 0 -38 16t-16 38t16 38t38 16q23 0 38.5 -16t15.5 -38t-15.5 -38t-38.5 -16z" />
    <glyph glyph-name="zdotaccent" unicode="&#x17c;" horiz-adv-x="321" 
d="M291 0h-261v72l146 329h-146v82h257v-69l-146 -332h150v-82zM159 551q-22 0 -38 16t-16 38t16 38t38 16q23 0 38.5 -15.5t15.5 -38.5t-15.5 -38.5t-38.5 -15.5z" />
    <glyph glyph-name="Zcaron" unicode="&#x17d;" horiz-adv-x="360" 
d="M226 723h-87l-67 144h54l56 -98l54 98h53zM330 0h-299v89l175 486h-175v92h292v-85l-178 -490h185v-92z" />
    <glyph glyph-name="zcaron" unicode="&#x17e;" horiz-adv-x="321" 
d="M204 556h-87l-67 144h54l56 -98l54 98h53zM291 0h-261v72l146 329h-146v82h257v-69l-146 -332h150v-82z" />
    <glyph glyph-name="longs" unicode="&#x17f;" horiz-adv-x="239" 
d="M159 0h-94v401h-46v82h46v63q0 63 30.5 97t87.5 34q49 0 78 -27l-27 -74q-15 18 -34 18q-41 0 -41 -48v-546z" />
    <glyph glyph-name="florin" unicode="&#x192;" horiz-adv-x="383" 
d="M123 -161h-106l90 409h-44v84h63l50 225q11 53 51.5 86.5t91.5 33.5q49 0 74 -24l-33 -81q-10 13 -30 13q-41 0 -53 -53l-44 -200h83v-84h-102z" />
    <glyph glyph-name="Ohorn" unicode="&#x1a0;" horiz-adv-x="459" 
d="M229 -12q-98 0 -145.5 94.5t-47.5 250.5q0 155 47.5 250t145.5 95t148 -100q31 32 35 63q-2 -2 -11 -2q-19 0 -31 12.5t-12 32.5t14 34t34 14q23 0 38.5 -18.5t15.5 -48.5q0 -77 -66 -127q29 -83 29 -205q0 -155 -48 -250t-146 -95zM229 81q87 0 87 252t-87 252
q-86 0 -86 -252t86 -252z" />
    <glyph glyph-name="ohorn" unicode="&#x1a1;" 
d="M391 531q0 -68 -57 -120q36 -66 36 -169q0 -109 -42 -181.5t-127 -72.5t-127.5 72.5t-42.5 181.5t42.5 181t127.5 72q67 0 109 -49q28 30 33 61q-2 -2 -11 -2q-19 0 -31 12.5t-12 32.5t14 34t34 14q23 0 38.5 -18.5t15.5 -48.5zM201 71q72 0 72 171q0 170 -72 170
t-72 -170q0 -171 72 -171z" />
    <glyph glyph-name="Uhorn" unicode="&#x1af;" horiz-adv-x="464" 
d="M501 728q0 -42 -24 -81.5t-70 -65.5v-397q0 -97 -49.5 -146.5t-125.5 -49.5t-125.5 49.5t-49.5 146.5v483h104v-488q0 -99 71 -99t71 99v488h104v-38q40 33 47 75q-4 -2 -12 -2q-18 0 -30 13t-12 32q0 20 13.5 33.5t33.5 13.5q23 0 38.5 -18t15.5 -48z" />
    <glyph glyph-name="uhorn" unicode="&#x1b0;" 
d="M352 0h-94v63q-16 -31 -46.5 -53t-64.5 -22q-97 0 -97 107v388h94v-357q0 -55 41 -55q23 0 43 20t30 48v344h94v-15q19 28 22 47l-4 -1h-7q-18 0 -30.5 12.5t-12.5 31.5q0 20 14 34t34 14q23 0 38.5 -18t15.5 -48q0 -77 -70 -131v-409z" />
    <glyph glyph-name="AEacute" unicode="&#x1fc;" horiz-adv-x="584" 
d="M450 867l-103 -144h-61l79 144h85zM548 0h-273v136h-119l-41 -136h-106l221 667h318v-92h-168v-189h161v-92h-161v-202h168v-92zM275 228v320l-94 -320h94z" />
    <glyph glyph-name="aeacute" unicode="&#x1fd;" horiz-adv-x="611" 
d="M422 700l-103 -144h-61l79 144h85zM584 211h-235q1 -67 25 -106.5t71 -39.5q45 0 78 52l48 -51q-54 -78 -137 -78q-48 0 -76 19t-52 58q-47 -77 -136 -77q-68 0 -105 42t-37 116q0 73 35.5 117t94.5 44q28 0 56.5 -14t44.5 -40v67q0 95 -76 95q-52 0 -100 -49l-36 66
q29 32 69.5 47.5t75.5 15.5q44 0 73.5 -22.5t40.5 -54.5q41 77 118 77q80 0 120 -70.5t40 -182.5v-31zM349 278h144q0 140 -71 140q-27 0 -44.5 -24t-23 -53t-5.5 -63zM259 158v25q-26 58 -70 58q-30 0 -48.5 -25t-18.5 -65q0 -43 18 -66.5t49 -23.5q30 0 50 28.5t20 68.5z
" />
    <glyph glyph-name="Oslashacute" unicode="&#x1fe;" horiz-adv-x="459" 
d="M352 867l-103 -144h-61l79 144h85zM229 -12q-63 0 -105 40l-13 -28h-64l37 81q-48 89 -48 252q0 155 47.5 250t145.5 95q62 0 106 -41l14 30h64l-38 -84q48 -92 48 -250q0 -155 -48 -250t-146 -95zM143 333q0 -68 5 -109l140 310q-21 51 -59 51q-86 0 -86 -252zM229 81
q87 0 87 252q0 59 -6 107l-140 -309q22 -50 59 -50z" />
    <glyph glyph-name="oslashacute" unicode="&#x1ff;" 
d="M324 700l-103 -144h-61l79 144h85zM94 0h-55l34 61q-42 68 -42 181q0 109 42.5 181t127.5 72q55 0 94 -34l13 22h55l-35 -62q42 -68 42 -179q0 -109 -42 -181.5t-127 -72.5q-56 0 -95 34zM201 71q72 0 72 171q0 41 -4 72l-118 -210q17 -33 50 -33zM129 242q0 -42 4 -73
l117 210q-18 33 -49 33q-72 0 -72 -170z" />
    <glyph glyph-name="Scommaaccent" unicode="&#x218;" horiz-adv-x="378" 
d="M245 -138q0 -41 -20.5 -78.5t-54.5 -61.5l-37 29q22 15 39.5 39t20.5 45l-5 -1h-7q-20 0 -33 13.5t-13 34.5t15 36.5t36 15.5q24 0 41.5 -19.5t17.5 -52.5zM175 -12q-100 0 -159 64l47 82q41 -53 106 -53q33 0 54 24t21 62q0 36 -21.5 66t-52.5 53.5t-62 49.5t-52.5 68.5
t-21.5 96.5q0 76 47 126.5t125 50.5q81 0 134 -51l-42 -80q-37 38 -89 38q-30 0 -49.5 -22t-19.5 -57q0 -31 21.5 -58.5t52.5 -51.5t62 -52t52.5 -72t21.5 -99q0 -81 -48 -133t-127 -52z" />
    <glyph glyph-name="scommaaccent" unicode="&#x219;" horiz-adv-x="331" 
d="M227 -138q0 -41 -20.5 -78.5t-54.5 -61.5l-37 29q22 15 39.5 39t20.5 45l-5 -1h-7q-20 0 -33 13.5t-13 34.5t15 36.5t36 15.5q24 0 41.5 -19.5t17.5 -52.5zM162 -12q-97 0 -146 62l41 65q43 -52 97 -52q28 0 46.5 16.5t18.5 43.5q0 25 -19.5 44t-47 34.5t-54.5 34
t-46.5 51.5t-19.5 78q0 56 38.5 93t104.5 37q77 0 130 -56l-40 -63q-33 44 -88 44q-25 0 -41 -15t-16 -37q0 -23 19.5 -41.5t47 -33.5t55 -34t47 -53t19.5 -80q0 -61 -41.5 -99.5t-104.5 -38.5z" />
    <glyph glyph-name="uni021A" unicode="&#x21a;" horiz-adv-x="346" 
d="M234 -138q0 -41 -20.5 -78.5t-54.5 -61.5l-37 29q22 15 39.5 39t20.5 45l-5 -1h-7q-20 0 -33 13.5t-13 34.5t15 36.5t36 15.5q24 0 41.5 -19.5t17.5 -52.5zM225 0h-104v575h-103v92h310v-92h-103v-575z" />
    <glyph glyph-name="uni021B" unicode="&#x21b;" horiz-adv-x="247" 
d="M185 -138q0 -41 -20.5 -78.5t-54.5 -61.5l-37 29q22 15 39.5 39t20.5 45l-5 -1h-7q-20 0 -33 13.5t-13 34.5t15 36.5t36 15.5q24 0 41.5 -19.5t17.5 -52.5zM165 -12q-53 0 -76.5 28t-23.5 87v298h-47v82h47v132h94v-132h63v-82h-63v-281q0 -49 28 -49q18 0 30 15l22 -72
q-26 -26 -74 -26z" />
    <glyph glyph-name="uni0237" unicode="&#x237;" horiz-adv-x="194" 
d="M24 -196q-40 0 -59 27l26 72q8 -16 26 -16q33 0 33 59v537h94v-537q0 -74 -29 -108t-91 -34z" />
    <glyph glyph-name="hsuperior" unicode="&#x2b0;" horiz-adv-x="300" 
d="M260 326h-70v224q0 38 -31 38q-15 0 -28.5 -13t-20.5 -30v-219h-69v434h69v-161q11 19 33.5 34t45.5 15q71 0 71 -75v-247z" />
    <glyph glyph-name="uni02BC" unicode="&#x2bc;" horiz-adv-x="241" 
d="M189 591q0 -48 -24.5 -91t-64.5 -71l-43 35q25 15 45 42t24 52q-6 -3 -15 -3q-24 0 -40 17t-16 42q0 26 18.5 44.5t44.5 18.5q30 0 50.5 -23t20.5 -63z" />
    <glyph glyph-name="circumflex" unicode="&#x2c6;" horiz-adv-x="217" 
d="M217 556h-53l-57 98l-53 -98h-54l64 144h87z" />
    <glyph glyph-name="caron" unicode="&#x2c7;" horiz-adv-x="217" 
d="M154 556h-87l-67 144h54l56 -98l54 98h53z" />
    <glyph glyph-name="uni02C9" unicode="&#x2c9;" horiz-adv-x="254" 
d="M254 591h-254v57h254v-57z" />
    <glyph glyph-name="uni02CB" unicode="&#x2cb;" horiz-adv-x="164" 
d="M164 556h-61l-103 144h85z" />
    <glyph glyph-name="breve" unicode="&#x2d8;" horiz-adv-x="244" 
d="M244 610q-46 -62 -122 -62t-122 62l46 35q26 -40 76 -40t76 40z" />
    <glyph glyph-name="dotaccent" unicode="&#x2d9;" horiz-adv-x="134" 
d="M67 551q-22 0 -38 16t-16 38t16 38t38 16q23 0 38.5 -15.5t15.5 -38.5t-15.5 -38.5t-38.5 -15.5z" />
    <glyph glyph-name="ring" unicode="&#x2da;" horiz-adv-x="172" 
d="M86 540q-35 0 -60.5 25.5t-25.5 61.5q0 35 25.5 60.5t60.5 25.5q36 0 61 -25.5t25 -60.5q0 -36 -25 -61.5t-61 -25.5zM86 584q18 0 30.5 12.5t12.5 30.5q0 17 -12.5 29.5t-30.5 12.5q-17 0 -29.5 -12.5t-12.5 -29.5q0 -18 12.5 -30.5t29.5 -12.5z" />
    <glyph glyph-name="ogonek" unicode="&#x2db;" horiz-adv-x="148" 
d="M106 -111l42 -22q-19 -53 -72 -53q-35 0 -55.5 20t-20.5 59q0 74 74 132l38 -25q-61 -43 -61 -104q0 -38 26 -38q22 0 29 31z" />
    <glyph glyph-name="tilde" unicode="&#x2dc;" horiz-adv-x="243" 
d="M163 554q-18 0 -32 13t-21 28.5t-16 28.5t-17 13q-27 0 -27 -77h-50q0 59 21 96.5t59 37.5q18 0 32.5 -13t21.5 -28.5t15.5 -28.5t17.5 -13q26 0 26 77h50q0 -60 -20.5 -97t-59.5 -37z" />
    <glyph glyph-name="hungarumlaut" unicode="&#x2dd;" horiz-adv-x="252" 
d="M129 700l-79 -144h-50l55 144h74zM252 700l-79 -144h-50l55 144h74z" />
    <glyph glyph-name="hookabovecomb" unicode="&#x309;" horiz-adv-x="148" 
d="M51 732l-38 7q12 51 62 51q27 0 42.5 -16t15.5 -48q0 -31 -18 -59h-40q20 27 20 57t-21 30q-17 0 -23 -22z" />
    <glyph glyph-name="uni037E" unicode="&#x37e;" horiz-adv-x="239" 
d="M120 362q-26 0 -45.5 19t-19.5 45t19.5 45t45.5 19t45 -19t19 -45t-19 -45t-45 -19zM189 35q0 -48 -24.5 -91t-64.5 -72l-43 36q24 14 44.5 41t24.5 52q-4 -2 -15 -2q-24 0 -40 16.5t-16 42.5t18.5 44.5t44.5 18.5q30 0 50.5 -23.5t20.5 -62.5z" />
    <glyph glyph-name="tonos" unicode="&#x384;" horiz-adv-x="208" 
d="M148 561h-44l19 204h87z" />
    <glyph glyph-name="dieresistonos" unicode="&#x385;" 
d="M211 561h-44l19 204h87zM382 606q0 -22 -16 -37.5t-38 -15.5t-38 15.5t-16 37.5t16 38t38 16t38 -16t16 -38zM128 606q0 -22 -16 -37.5t-38 -15.5t-38 15.5t-16 37.5t16 38t38 16t38 -16t16 -38z" />
    <glyph glyph-name="Alphatonos" unicode="&#x386;" horiz-adv-x="398" 
d="M70 561h-44l19 204h87zM395 0h-107l-23 136h-132l-23 -136h-107l136 667h120zM253 228l-54 320l-54 -320h108z" />
    <glyph glyph-name="Epsilontonos" unicode="&#x388;" horiz-adv-x="406" 
d="M38 561h-44l19 204h87zM369 0h-273v667h273v-92h-169v-189h162v-92h-162v-202h169v-92z" />
    <glyph glyph-name="Etatonos" unicode="&#x389;" horiz-adv-x="503" 
d="M38 561h-44l19 204h87zM446 0h-105v297h-141v-297h-104v667h104v-278h141v278h105v-667z" />
    <glyph glyph-name="Iotatonos" unicode="&#x38a;" horiz-adv-x="257" 
d="M38 561h-44l19 204h87zM200 0h-104v667h104v-667z" />
    <glyph glyph-name="Omicrontonos" unicode="&#x38c;" horiz-adv-x="477" 
d="M53 561h-44l19 204h87zM247 -12q-98 0 -145.5 94.5t-47.5 250.5q0 155 47.5 250t145.5 95t146 -95t48 -250t-48 -250t-146 -95zM247 81q87 0 87 252t-87 252q-86 0 -86 -252t86 -252z" />
    <glyph glyph-name="Upsilontonos" unicode="&#x38e;" horiz-adv-x="486" 
d="M32 561h-44l19 204h87zM336 0h-104v279l-154 388h112l94 -285l95 285h110l-153 -388v-279z" />
    <glyph glyph-name="Omegatonos" unicode="&#x38f;" horiz-adv-x="469" 
d="M53 561h-44l19 204h87zM62 92h75q-85 87 -85 262q0 151 48.5 237.5t145.5 86.5q96 0 145 -86.5t49 -237.5q0 -173 -87 -262h76v-92h-153v92q22 23 39 88t17 153q0 251 -86 251q-87 0 -87 -251q0 -89 17 -153.5t40 -87.5v-92h-154v92z" />
    <glyph glyph-name="iotadieresistonos" unicode="&#x390;" horiz-adv-x="205" 
d="M113 561h-44l19 204h87zM284 606q0 -22 -16 -37.5t-38 -15.5t-38 15.5t-16 37.5t16 38t38 16t38 -16t16 -38zM30 606q0 -22 -16 -37.5t-38 -15.5t-38 15.5t-16 37.5t16 38t38 16t38 -16t16 -38zM149 -12q-52 0 -75.5 28t-23.5 87v380h94v-368q0 -44 28 -44q4 0 14 2
l7 -79q-18 -6 -44 -6z" />
    <glyph glyph-name="Alpha" unicode="&#x391;" horiz-adv-x="398" 
d="M395 0h-107l-23 136h-132l-23 -136h-107l136 667h120zM253 228l-54 320l-54 -320h108z" />
    <glyph glyph-name="Beta" unicode="&#x392;" horiz-adv-x="431" 
d="M240 0h-183v667h176q75 0 114 -47t39 -123q0 -123 -93 -153q45 -7 73.5 -54.5t28.5 -109.5q0 -83 -38.5 -131.5t-116.5 -48.5zM208 386q71 0 71 94q0 95 -71 95h-47v-189h47zM212 92q76 0 76 101q0 45 -19 73t-57 28h-51v-202h51z" />
    <glyph glyph-name="Gamma" unicode="&#x393;" horiz-adv-x="365" 
d="M161 0h-104v667h273v-92h-169v-575z" />
    <glyph glyph-name="uni0394" unicode="&#x394;" horiz-adv-x="421" 
d="M418 0h-415l147 667h121zM297 92l-87 456l-86 -456h173z" />
    <glyph glyph-name="Epsilon" unicode="&#x395;" horiz-adv-x="367" 
d="M330 0h-273v667h273v-92h-169v-189h162v-92h-162v-202h169v-92z" />
    <glyph glyph-name="Zeta" unicode="&#x396;" horiz-adv-x="360" 
d="M330 0h-299v89l175 486h-175v92h292v-85l-178 -490h185v-92z" />
    <glyph glyph-name="Eta" unicode="&#x397;" horiz-adv-x="463" 
d="M407 0h-105v297h-141v-297h-104v667h104v-278h141v278h105v-667z" />
    <glyph glyph-name="Theta" unicode="&#x398;" horiz-adv-x="459" 
d="M292 294h-125v92h125v-92zM229 -12q-98 0 -145.5 94.5t-47.5 250.5q0 155 47.5 250t145.5 95t146 -95t48 -250t-48 -250t-146 -95zM229 81q87 0 87 252t-87 252q-86 0 -86 -252t86 -252z" />
    <glyph glyph-name="Iota" unicode="&#x399;" horiz-adv-x="218" 
d="M161 0h-104v667h104v-667z" />
    <glyph glyph-name="Kappa" unicode="&#x39a;" horiz-adv-x="448" 
d="M442 0h-119l-119 269l-43 -85v-184h-104v667h104v-325l153 325h115l-165 -315z" />
    <glyph glyph-name="Lambda" unicode="&#x39b;" horiz-adv-x="398" 
d="M395 0h-107l-89 548l-89 -548h-107l136 667h120z" />
    <glyph glyph-name="Mu" unicode="&#x39c;" horiz-adv-x="591" 
d="M535 0h-103v425l-118 -425h-37l-116 425v-425h-104v667h135l104 -373l106 373h133v-667z" />
    <glyph glyph-name="Nu" unicode="&#x39d;" horiz-adv-x="463" 
d="M407 0h-99l-147 386v-386h-104v667h104l141 -375v375h105v-667z" />
    <glyph glyph-name="Xi" unicode="&#x39e;" horiz-adv-x="387" 
d="M349 575h-311v92h311v-92zM349 0h-311v92h311v-92zM342 294h-297v92h297v-92z" />
    <glyph glyph-name="Omicron" unicode="&#x39f;" horiz-adv-x="459" 
d="M229 -12q-98 0 -145.5 94.5t-47.5 250.5q0 155 47.5 250t145.5 95t146 -95t48 -250t-48 -250t-146 -95zM229 81q87 0 87 252t-87 252q-86 0 -86 -252t86 -252z" />
    <glyph glyph-name="Pi" unicode="&#x3a0;" horiz-adv-x="463" 
d="M407 0h-105v575h-141v-575h-104v667h350v-667z" />
    <glyph glyph-name="Rho" unicode="&#x3a1;" horiz-adv-x="418" 
d="M161 0h-104v667h161q87 0 131.5 -58.5t44.5 -147.5t-44.5 -147.5t-131.5 -58.5h-57v-255zM208 347q38 0 58.5 31t20.5 83t-20.5 83t-58.5 31h-47v-228h47z" />
    <glyph glyph-name="Sigma" unicode="&#x3a3;" horiz-adv-x="347" 
d="M146 575l113 -232l-116 -251h173v-92h-278v96l114 248l-114 231v92h278v-92h-170z" />
    <glyph glyph-name="Tau" unicode="&#x3a4;" horiz-adv-x="346" 
d="M225 0h-104v575h-103v92h310v-92h-103v-575z" />
    <glyph glyph-name="Upsilon" unicode="&#x3a5;" horiz-adv-x="405" 
d="M255 0h-104v279l-154 388h112l94 -285l95 285h110l-153 -388v-279z" />
    <glyph glyph-name="Phi" unicode="&#x3a6;" horiz-adv-x="625" 
d="M365 0h-105v67q-114 14 -169 86.5t-55 179.5t55 179.5t169 86.5v68h105v-68q114 -14 169.5 -86.5t55.5 -179.5t-55.5 -179.5t-169.5 -86.5v-67zM482 333q0 144 -117 170v-341q117 27 117 171zM143 333q0 -144 117 -171v341q-117 -26 -117 -170z" />
    <glyph glyph-name="Chi" unicode="&#x3a7;" horiz-adv-x="408" 
d="M408 0h-116l-88 246l-88 -246h-115l143 340l-135 327h115l80 -235l80 235h116l-136 -327z" />
    <glyph glyph-name="Psi" unicode="&#x3a8;" horiz-adv-x="642" 
d="M373 0h-104v127q-95 12 -153.5 68t-58.5 155v317h105v-316q0 -112 107 -131v447h104v-447q107 20 107 131v316h105v-316q0 -99 -58.5 -155.5t-153.5 -68.5v-127z" />
    <glyph glyph-name="uni03A9" unicode="&#x3a9;" horiz-adv-x="447" 
d="M40 92h75q-85 87 -85 262q0 151 48.5 237.5t145.5 86.5q96 0 145 -86.5t49 -237.5q0 -173 -87 -262h76v-92h-153v92q22 23 39 88t17 153q0 251 -86 251q-87 0 -87 -251q0 -89 17 -153.5t40 -87.5v-92h-154v92z" />
    <glyph glyph-name="Iotadieresis" unicode="&#x3aa;" horiz-adv-x="218" 
d="M161 0h-104v667h104v-667zM240 790q0 -22 -16 -37.5t-39 -15.5q-22 0 -37.5 15.5t-15.5 37.5t15.5 38t37.5 16q23 0 39 -16t16 -38zM86 790q0 -22 -16 -37.5t-38 -15.5t-38 15.5t-16 37.5t16 38t38 16t38 -16t16 -38z" />
    <glyph glyph-name="Upsilondieresis" unicode="&#x3ab;" horiz-adv-x="405" 
d="M255 0h-104v279l-154 388h112l94 -285l95 285h110l-153 -388v-279zM333 790q0 -22 -16 -37.5t-39 -15.5q-22 0 -37.5 15.5t-15.5 37.5t15.5 38t37.5 16q23 0 39 -16t16 -38zM179 790q0 -22 -16 -37.5t-38 -15.5t-38 15.5t-16 37.5t16 38t38 16q23 0 38.5 -16t15.5 -38z
" />
    <glyph glyph-name="alphatonos" unicode="&#x3ac;" horiz-adv-x="417" 
d="M221 561h-44l19 204h87zM398 73l7 -79q-18 -6 -43 -6q-47 0 -68 20.5t-28 60.5q-14 -36 -41 -58.5t-56 -22.5q-68 0 -103 68t-35 185q0 116 35 185t103 69q28 0 53.5 -19t39.5 -56v63h94v-368q0 -44 28 -44q4 0 14 2zM198 71q20 0 38 20t26 48v204q-8 28 -26 48t-38 20
q-70 0 -70 -170t70 -170z" />
    <glyph glyph-name="epsilontonos" unicode="&#x3ad;" horiz-adv-x="366" 
d="M196 561h-44l19 204h87zM192 -12q-74 0 -117.5 40t-43.5 102q0 46 27.5 78t70.5 39q-41 9 -66.5 43t-25.5 74q0 61 46 96t121 35q89 0 142 -75l-49 -55q-34 54 -93 54q-35 0 -55.5 -17.5t-20.5 -49.5q0 -33 19.5 -51.5t53.5 -18.5h74v-76h-77q-76 0 -76 -67
q0 -34 20 -54.5t54 -20.5q70 0 106 56l49 -54q-54 -78 -159 -78z" />
    <glyph glyph-name="etatonos" unicode="&#x3ae;" 
d="M213 561h-44l19 204h87zM352 -184h-94v540q0 56 -41 56q-23 0 -42.5 -20.5t-30.5 -49.5v-342h-94v483h94v-65q16 31 47.5 54t63.5 23q97 0 97 -108v-571z" />
    <glyph glyph-name="iotatonos" unicode="&#x3af;" horiz-adv-x="205" 
d="M116 561h-44l19 204h87zM149 -12q-52 0 -75.5 28t-23.5 87v380h94v-368q0 -44 28 -44q4 0 14 2l7 -79q-18 -6 -44 -6z" />
    <glyph glyph-name="upsilondieresistonos" unicode="&#x3b0;" 
d="M211 561h-44l19 204h87zM382 606q0 -22 -16 -37.5t-38 -15.5t-38 15.5t-16 37.5t16 38t38 16t38 -16t16 -38zM128 606q0 -22 -16 -37.5t-38 -15.5t-38 15.5t-16 37.5t16 38t38 16t38 -16t16 -38zM201 -12q-70 0 -110.5 46t-40.5 127v322h94v-322q0 -90 57 -90
q72 0 72 182q0 111 -48 210l88 32q58 -113 58 -242q0 -117 -42 -191t-128 -74z" />
    <glyph glyph-name="alpha" unicode="&#x3b1;" horiz-adv-x="417" 
d="M398 73l7 -79q-18 -6 -43 -6q-47 0 -68 20.5t-28 60.5q-14 -36 -41 -58.5t-56 -22.5q-68 0 -103 68t-35 185q0 116 35 185t103 69q28 0 53.5 -19t39.5 -56v63h94v-368q0 -44 28 -44q4 0 14 2zM198 71q20 0 38 20t26 48v204q-8 28 -26 48t-38 20q-70 0 -70 -170t70 -170z
" />
    <glyph glyph-name="beta" unicode="&#x3b2;" horiz-adv-x="406" 
d="M144 459v-320q9 -29 27 -48.5t40 -19.5q32 0 48.5 33t16.5 78q0 58 -20 87.5t-50 29.5h-17v83h13q29 0 46 27.5t17 77.5q0 106 -54 106q-67 0 -67 -134zM144 62v-246h-94v643q0 116 45.5 167t116.5 51q69 0 109.5 -45t40.5 -134q0 -56 -21 -98t-65 -55q44 -11 71.5 -59
t27.5 -119q0 -76 -36 -127.5t-99 -51.5q-29 0 -55 19.5t-41 54.5z" />
    <glyph glyph-name="gamma" unicode="&#x3b3;" horiz-adv-x="357" 
d="M225 -184h-94v131q0 304 -136 536h103q84 -177 92 -348q54 146 54 348h94q0 -117 -31.5 -244.5t-81.5 -230.5v-192z" />
    <glyph glyph-name="delta" unicode="&#x3b4;" 
d="M204 -12q-86 0 -129.5 62.5t-43.5 153.5q0 129 93 220q-59 54 -59 125q0 56 38.5 93t104.5 37q76 0 130 -56l-40 -63q-33 44 -89 44q-25 0 -41 -15t-16 -37q0 -24 22.5 -47.5t54.5 -47.5t64 -55t54.5 -84t22.5 -120q0 -88 -40.5 -149t-125.5 -61zM283 197q0 60 -24 98.5
t-68 75.5q-62 -66 -62 -166q0 -57 18 -95.5t58 -38.5q41 0 59.5 37t18.5 89z" />
    <glyph glyph-name="epsilon" unicode="&#x3b5;" horiz-adv-x="366" 
d="M192 -12q-74 0 -117.5 40t-43.5 102q0 46 27.5 78t70.5 39q-41 9 -66.5 43t-25.5 74q0 61 46 96t121 35q89 0 142 -75l-49 -55q-34 54 -93 54q-35 0 -55.5 -17.5t-20.5 -49.5q0 -33 19.5 -51.5t53.5 -18.5h74v-76h-77q-76 0 -76 -67q0 -34 20 -54.5t54 -20.5q70 0 106 56
l49 -54q-54 -78 -159 -78z" />
    <glyph glyph-name="zeta" unicode="&#x3b6;" horiz-adv-x="333" 
d="M225 -43q0 17 -6.5 24t-23.5 7q-73 0 -118.5 58.5t-45.5 138.5q0 230 180 400h-173v82h266v-69q-176 -185 -176 -396q0 -54 23.5 -92.5t71.5 -38.5q85 0 85 -88q0 -59 -42 -140h-84q43 75 43 114z" />
    <glyph glyph-name="eta" unicode="&#x3b7;" 
d="M352 -184h-94v540q0 56 -41 56q-23 0 -42.5 -20.5t-30.5 -49.5v-342h-94v483h94v-65q16 31 47.5 54t63.5 23q97 0 97 -108v-571z" />
    <glyph glyph-name="theta" unicode="&#x3b8;" 
d="M201 -12q-87 0 -128.5 93t-41.5 253t41 252.5t129 92.5q87 0 128 -92t41 -253q0 -160 -41 -253t-128 -93zM201 71q38 0 53.5 53.5t17.5 169.5h-143q2 -117 18 -170t54 -53zM201 596q-38 0 -54 -53t-18 -167h143q-2 113 -17.5 166.5t-53.5 53.5z" />
    <glyph glyph-name="iota" unicode="&#x3b9;" horiz-adv-x="205" 
d="M149 -12q-52 0 -75.5 28t-23.5 87v380h94v-368q0 -44 28 -44q4 0 14 2l7 -79q-18 -6 -44 -6z" />
    <glyph glyph-name="kappa" unicode="&#x3ba;" horiz-adv-x="385" 
d="M375 0h-102l-80 204l-49 -87v-117h-94v483h94v-242l127 242h102l-118 -215z" />
    <glyph glyph-name="lambda" unicode="&#x3bb;" horiz-adv-x="357" 
d="M51 590l-14 82q17 7 49 7q48 0 75 -22t43 -80l148 -577h-99l-75 364l-73 -364h-100l126 496l-16 61q-11 39 -41 39q-12 0 -23 -6z" />
    <glyph glyph-name="uni03BC" unicode="&#x3bc;" horiz-adv-x="413" 
d="M144 4v-188h-94v667h94v-357q0 -56 43 -56q45 0 71 69v344h94v-368q0 -44 28 -44q4 0 14 2l7 -79q-18 -6 -44 -6q-44 0 -67 20.5t-29 64.5q-12 -38 -33 -61.5t-47 -23.5q-25 0 -37 16z" />
    <glyph glyph-name="nu" unicode="&#x3bd;" horiz-adv-x="357" 
d="M221 0h-94l-122 483h100l76 -377q63 169 63 377h94q0 -119 -32.5 -249t-84.5 -234z" />
    <glyph glyph-name="xi" unicode="&#x3be;" horiz-adv-x="333" 
d="M195 -12q-73 0 -118.5 53t-45.5 129q0 57 27 99.5t70 57.5q-44 11 -66.5 48.5t-22.5 83.5q0 81 73 126h-67v82h251v-82h-117q-47 -31 -47 -98q0 -50 22.5 -77.5t58.5 -27.5h76v-82h-76q-36 0 -60.5 -28.5t-24.5 -85.5q0 -44 23 -79.5t72 -35.5q85 0 85 -88
q0 -59 -42 -140h-84q43 75 43 114q0 17 -6.5 24t-23.5 7z" />
    <glyph glyph-name="omicron" unicode="&#x3bf;" 
d="M201 -12q-85 0 -127.5 72.5t-42.5 181.5t42.5 181t127.5 72t127 -72t42 -181t-42 -181.5t-127 -72.5zM201 71q72 0 72 171q0 170 -72 170t-72 -170q0 -171 72 -171z" />
    <glyph glyph-name="pi" unicode="&#x3c0;" horiz-adv-x="432" 
d="M367 0h-94v401h-114v-401h-94v401h-47v82h396v-82h-47v-401z" />
    <glyph glyph-name="rho" unicode="&#x3c1;" horiz-adv-x="406" 
d="M237 -12q-28 0 -53.5 19t-39.5 56v-247h-94v426q0 108 40.5 180.5t120.5 72.5q81 0 122.5 -71t41.5 -182q0 -116 -35 -185t-103 -69zM208 71q70 0 70 171q0 170 -67 170t-67 -170v-103q9 -28 26.5 -48t37.5 -20z" />
    <glyph glyph-name="sigma1" unicode="&#x3c2;" horiz-adv-x="327" 
d="M194 -12q-71 0 -117 72t-46 182q0 112 46.5 182.5t127.5 70.5q69 0 109 -44l-33 -72q-29 33 -61 33q-45 0 -68.5 -48.5t-23.5 -121.5t23.5 -122t68.5 -49q86 0 86 -88q0 -59 -42 -140h-82q44 73 44 114q0 17 -7 24t-25 7z" />
    <glyph glyph-name="sigma" unicode="&#x3c3;" 
d="M366 221q0 -96 -41 -164.5t-124 -68.5q-82 0 -126 72t-44 182q0 65 17.5 117.5t60 88t106.5 35.5h172v-83h-77q56 -70 56 -179zM273 229q0 123 -47 171h-10q-87 0 -87 -158q0 -171 72 -171t72 158z" />
    <glyph glyph-name="tau" unicode="&#x3c4;" horiz-adv-x="290" 
d="M197 -12q-53 0 -76 28t-23 87v298h-83v82h260v-82h-83v-281q0 -49 28 -49q17 0 29 15l23 -72q-28 -26 -75 -26z" />
    <glyph glyph-name="upsilon" unicode="&#x3c5;" 
d="M201 -12q-70 0 -110.5 46t-40.5 127v322h94v-322q0 -90 57 -90q72 0 72 182q0 111 -48 210l88 32q58 -113 58 -242q0 -117 -42 -191t-128 -74z" />
    <glyph glyph-name="phi" unicode="&#x3c6;" horiz-adv-x="575" 
d="M544 242q0 -98 -52.5 -168t-156.5 -83v-175h-94v175q-105 14 -157.5 84t-52.5 170q0 177 139 250l43 -73q-84 -47 -84 -177q0 -146 112 -170v420h46q129 0 193 -72t64 -181zM447 242q0 68 -27.5 113.5t-84.5 52.5v-332q112 25 112 166z" />
    <glyph glyph-name="chi" unicode="&#x3c7;" horiz-adv-x="352" 
d="M345 -184h-99l-70 242l-71 -242h-98l111 336l-106 331h98l66 -235l65 235h98l-105 -331z" />
    <glyph glyph-name="psi" unicode="&#x3c8;" horiz-adv-x="576" 
d="M335 -184h-94v175q-89 12 -140 69t-51 160v263h93v-263q0 -69 25 -103t73 -43v593h94v-592q97 18 97 145v263h94v-263q0 -104 -51.5 -161t-139.5 -68v-175z" />
    <glyph glyph-name="omega" unicode="&#x3c9;" horiz-adv-x="610" 
d="M579 242q0 -110 -38 -182t-111 -72q-48 0 -81 30.5t-44 86.5q-11 -56 -44 -86.5t-80 -30.5q-73 0 -111.5 72t-38.5 182q0 78 28.5 150t77.5 103l68 -53q-39 -26 -57.5 -84t-18.5 -118q0 -169 64 -169q65 0 65 171v123h94v-123q0 -171 65 -171q64 0 64 171q0 58 -18.5 116
t-57.5 84l68 53q49 -31 77.5 -103t28.5 -150z" />
    <glyph glyph-name="iotadieresis" unicode="&#x3ca;" horiz-adv-x="205" 
d="M234 606q0 -22 -16 -37.5t-39 -15.5q-22 0 -37.5 15.5t-15.5 37.5t15.5 38t37.5 16q23 0 39 -16t16 -38zM80 606q0 -22 -16 -37.5t-38 -15.5t-38 15.5t-16 37.5t16 38t38 16t38 -16t16 -38zM149 -12q-52 0 -75.5 28t-23.5 87v380h94v-368q0 -44 28 -44q4 0 14 2l7 -79
q-18 -6 -44 -6z" />
    <glyph glyph-name="upsilondieresis" unicode="&#x3cb;" 
d="M332 606q0 -22 -16 -37.5t-39 -15.5q-22 0 -37.5 15.5t-15.5 37.5t15.5 38t37.5 16q23 0 39 -16t16 -38zM178 606q0 -22 -16 -37.5t-38 -15.5t-38 15.5t-16 37.5t16 38t38 16t38 -16t16 -38zM201 -12q-70 0 -110.5 46t-40.5 127v322h94v-322q0 -90 57 -90q72 0 72 182
q0 111 -48 210l88 32q58 -113 58 -242q0 -117 -42 -191t-128 -74z" />
    <glyph glyph-name="omicrontonos" unicode="&#x3cc;" 
d="M213 561h-44l19 204h87zM201 -12q-85 0 -127.5 72.5t-42.5 181.5t42.5 181t127.5 72t127 -72t42 -181t-42 -181.5t-127 -72.5zM201 71q72 0 72 171q0 170 -72 170t-72 -170q0 -171 72 -171z" />
    <glyph glyph-name="upsilontonos" unicode="&#x3cd;" 
d="M214 561h-44l19 204h87zM201 -12q-70 0 -110.5 46t-40.5 127v322h94v-322q0 -90 57 -90q72 0 72 182q0 111 -48 210l88 32q58 -113 58 -242q0 -117 -42 -191t-128 -74z" />
    <glyph glyph-name="omegatonos" unicode="&#x3ce;" horiz-adv-x="610" 
d="M318 561h-44l19 204h87zM579 242q0 -110 -38 -182t-111 -72q-48 0 -81 30.5t-44 86.5q-11 -56 -44 -86.5t-80 -30.5q-73 0 -111.5 72t-38.5 182q0 78 28.5 150t77.5 103l68 -53q-39 -26 -57.5 -84t-18.5 -118q0 -169 64 -169q65 0 65 171v123h94v-123q0 -171 65 -171
q64 0 64 171q0 58 -18.5 116t-57.5 84l68 53q49 -31 77.5 -103t28.5 -150z" />
    <glyph glyph-name="afii10023" unicode="&#x401;" horiz-adv-x="367" 
d="M324 773q0 -22 -16 -37.5t-39 -15.5q-22 0 -37.5 15.5t-15.5 37.5t15.5 38t37.5 16q23 0 39 -16t16 -38zM170 773q0 -22 -16 -37.5t-38 -15.5t-38 15.5t-16 37.5t16 38t38 16t38 -15.5t16 -38.5zM330 0h-273v667h273v-92h-169v-189h162v-92h-162v-202h169v-92z" />
    <glyph glyph-name="afii10051" unicode="&#x402;" horiz-adv-x="515" 
d="M294 -12v93q85 0 85 104v21q0 51 -27.5 82.5t-72.5 31.5q-34 0 -54 -5l1 -315h-105v575h-103v92h310v-92h-103v-168q38 5 70 5q88 0 138 -59.5t50 -146.5v-21q0 -102 -53.5 -149.5t-135.5 -47.5z" />
    <glyph glyph-name="afii10052" unicode="&#x403;" horiz-adv-x="365" 
d="M317 867l-103 -144h-61l79 144h85zM161 0h-104v667h273v-92h-169v-575z" />
    <glyph glyph-name="afii10053" unicode="&#x404;" horiz-adv-x="412" 
d="M230 -12q-98 0 -146 94.5t-48 250.5q0 157 48 251t146 94q35 0 62 -12.5t45 -35.5t28.5 -45t19.5 -52l-84 -31q-12 42 -28 62.5t-43 20.5q-77 0 -86 -199h179v-92h-180q7 -213 87 -213q54 0 72 99l85 -31q-39 -161 -157 -161z" />
    <glyph glyph-name="afii10054" unicode="&#x405;" horiz-adv-x="378" 
d="M175 -12q-100 0 -159 64l47 82q41 -53 106 -53q33 0 54 24t21 62q0 36 -21.5 66t-52.5 53.5t-62 49.5t-52.5 68.5t-21.5 96.5q0 76 47 126.5t125 50.5q81 0 134 -51l-42 -80q-37 38 -89 38q-30 0 -49.5 -22t-19.5 -57q0 -31 21.5 -58.5t52.5 -51.5t62 -52t52.5 -72
t21.5 -99q0 -81 -48 -133t-127 -52z" />
    <glyph glyph-name="afii10055" unicode="&#x406;" horiz-adv-x="218" 
d="M161 0h-104v667h104v-667z" />
    <glyph glyph-name="afii10056" unicode="&#x407;" horiz-adv-x="218" 
d="M161 0h-104v667h104v-667zM240 773q0 -22 -16 -37.5t-39 -15.5q-22 0 -37.5 15.5t-15.5 37.5t15.5 38t37.5 16q23 0 39 -16t16 -38zM86 773q0 -22 -16 -37.5t-38 -15.5t-38 15.5t-16 37.5t16 38t38 16t38 -15.5t16 -38.5z" />
    <glyph glyph-name="afii10057" unicode="&#x408;" horiz-adv-x="337" 
d="M115 -12q-64 0 -108 40l32 85q26 -32 65 -32q73 0 73 80v506h104v-511q0 -85 -44.5 -126.5t-121.5 -41.5z" />
    <glyph glyph-name="afii10058" unicode="&#x409;" horiz-adv-x="664" 
d="M20 -12v93q25 0 39 13t25.5 63.5t18.5 150.5l24 359h280v-255h57q87 0 131.5 -58.5t44.5 -147.5t-44.5 -147.5t-131.5 -58.5h-161v575h-79l-18 -273q-7 -100 -22 -164.5t-41 -96t-54 -42.5t-69 -11zM454 320h-47v-228h47q38 0 58.5 31t20.5 83t-20.5 83t-58.5 31z" />
    <glyph glyph-name="afii10059" unicode="&#x40a;" horiz-adv-x="664" 
d="M57 0v667h104v-278h142v278h104v-278h57q87 0 131.5 -55.5t44.5 -139.5q0 -83 -44.5 -138.5t-131.5 -55.5h-161v297h-142v-297h-104zM407 92h47q38 0 58.5 27.5t20.5 75.5q0 46 -20.5 74t-58.5 28h-47v-205z" />
    <glyph glyph-name="afii10060" unicode="&#x40b;" horiz-adv-x="515" 
d="M367 0v206q0 53 -22 83.5t-66 30.5q-34 0 -54 -5l1 -315h-105v575h-103v92h310v-92h-103v-168q38 5 70 5q87 0 131.5 -58.5t44.5 -147.5v-206h-104z" />
    <glyph glyph-name="afii10061" unicode="&#x40c;" horiz-adv-x="448" 
d="M348 867l-103 -144h-61l79 144h85zM442 0h-119l-119 269l-43 -85v-184h-104v667h104v-325l153 325h115l-165 -315z" />
    <glyph glyph-name="afii10062" unicode="&#x40e;" horiz-adv-x="405" 
d="M89 -12q-51 0 -95 29l25 86q23 -20 57 -20q37 0 49 40l23 71l-151 473h112l94 -314l95 314h110l-185 -577q-19 -57 -52 -79.5t-82 -22.5zM324 777q-46 -62 -122 -62t-122 62l46 35q26 -40 76 -40t76 40z" />
    <glyph glyph-name="afii10145" unicode="&#x40f;" horiz-adv-x="463" 
d="M57 0v667h104v-575h142v575h104v-667h-123v-128h-104v128h-123z" />
    <glyph glyph-name="afii10017" unicode="&#x410;" horiz-adv-x="398" 
d="M395 0h-107l-23 136h-132l-23 -136h-107l136 667h120zM253 228l-54 320l-54 -320h108z" />
    <glyph glyph-name="afii10018" unicode="&#x411;" horiz-adv-x="418" 
d="M57 667h303v-92h-199v-163h57q87 0 131.5 -58.5t44.5 -147.5t-44.5 -147.5t-131.5 -58.5h-161v667zM208 320h-47v-228h47q38 0 58.5 31t20.5 83t-20.5 83t-58.5 31z" />
    <glyph glyph-name="afii10019" unicode="&#x412;" horiz-adv-x="431" 
d="M240 0h-183v667h176q75 0 114 -47t39 -123q0 -123 -93 -153q45 -7 73.5 -54.5t28.5 -109.5q0 -83 -38.5 -131.5t-116.5 -48.5zM208 386q71 0 71 94q0 95 -71 95h-47v-189h47zM212 92q76 0 76 101q0 45 -19 73t-57 28h-51v-202h51z" />
    <glyph glyph-name="afii10020" unicode="&#x413;" horiz-adv-x="365" 
d="M161 0h-104v667h273v-92h-169v-575z" />
    <glyph glyph-name="afii10021" unicode="&#x414;" horiz-adv-x="476" 
d="M17 -123v204q21 5 31.5 11.5t23 30t20 73.5t12.5 133l23 338h280v-575h56v-215h-104v123h-238v-123h-104zM207 321q-11 -158 -62 -229h158v483h-79z" />
    <glyph glyph-name="afii10022" unicode="&#x415;" horiz-adv-x="367" 
d="M330 0h-273v667h273v-92h-169v-189h162v-92h-162v-202h169v-92z" />
    <glyph glyph-name="afii10024" unicode="&#x416;" horiz-adv-x="618" 
d="M125 0h-119l178 352l-165 315h115l123 -262v262h104v-262l123 262h115l-165 -315l178 -352h-119l-119 269l-13 -26v-243h-104v243l-13 26z" />
    <glyph glyph-name="afii10025" unicode="&#x417;" horiz-adv-x="419" 
d="M203 -12q-60 0 -106.5 30.5t-72.5 79.5l73 60q39 -77 101 -77q78 0 78 108q0 51 -25 78t-63 27h-73v92h65q41 0 64 25t23 72q0 101 -76 101q-27 0 -50.5 -19t-38.5 -51l-70 55q27 52 72 80t99 28q78 0 125 -45t47 -134q0 -55 -30 -98t-87 -56q60 -9 92.5 -53.5
t32.5 -108.5q0 -87 -47.5 -140.5t-132.5 -53.5z" />
    <glyph glyph-name="afii10026" unicode="&#x418;" horiz-adv-x="463" 
d="M156 0h-99v667h105v-405l141 405h104v-667h-104v416z" />
    <glyph glyph-name="afii10027" unicode="&#x419;" horiz-adv-x="463" 
d="M156 0h-99v667h105v-405l141 405h104v-667h-104v416zM353 777q-46 -62 -122 -62t-122 62l46 35q26 -40 76 -40t76 40z" />
    <glyph glyph-name="afii10028" unicode="&#x41a;" horiz-adv-x="448" 
d="M442 0h-119l-119 269l-43 -85v-184h-104v667h104v-325l153 325h115l-165 -315z" />
    <glyph glyph-name="afii10029" unicode="&#x41b;" horiz-adv-x="463" 
d="M20 -12v93q25 0 39 13t25.5 63.5t18.5 151.5l24 358h280v-667h-105v575h-78l-18 -273q-7 -100 -22 -164.5t-41 -96t-54 -42.5t-69 -11z" />
    <glyph glyph-name="afii10030" unicode="&#x41c;" horiz-adv-x="591" 
d="M535 0h-103v425l-118 -425h-37l-116 425v-425h-104v667h135l104 -373l106 373h133v-667z" />
    <glyph glyph-name="afii10031" unicode="&#x41d;" horiz-adv-x="463" 
d="M407 0h-105v297h-141v-297h-104v667h104v-278h141v278h105v-667z" />
    <glyph glyph-name="afii10032" unicode="&#x41e;" horiz-adv-x="459" 
d="M229 -12q-98 0 -145.5 94.5t-47.5 250.5q0 155 47.5 250t145.5 95t146 -95t48 -250t-48 -250t-146 -95zM229 81q87 0 87 252t-87 252q-86 0 -86 -252t86 -252z" />
    <glyph glyph-name="afii10033" unicode="&#x41f;" horiz-adv-x="463" 
d="M407 0h-105v575h-141v-575h-104v667h350v-667z" />
    <glyph glyph-name="afii10034" unicode="&#x420;" horiz-adv-x="418" 
d="M161 0h-104v667h161q87 0 131.5 -58.5t44.5 -147.5t-44.5 -147.5t-131.5 -58.5h-57v-255zM208 347q38 0 58.5 31t20.5 83t-20.5 83t-58.5 31h-47v-228h47z" />
    <glyph glyph-name="afii10035" unicode="&#x421;" horiz-adv-x="412" 
d="M230 -12q-98 0 -146 94.5t-48 250.5q0 157 48 251t146 94q35 0 62 -12.5t45 -35.5t28.5 -45t19.5 -52l-84 -31q-12 42 -28 62.5t-43 20.5q-87 0 -87 -252t87 -252q54 0 72 99l85 -31q-39 -161 -157 -161z" />
    <glyph glyph-name="afii10036" unicode="&#x422;" horiz-adv-x="346" 
d="M225 0h-104v575h-103v92h310v-92h-103v-575z" />
    <glyph glyph-name="afii10037" unicode="&#x423;" horiz-adv-x="405" 
d="M89 -12q-51 0 -95 29l25 86q23 -20 57 -20q37 0 49 40l23 71l-151 473h112l94 -314l95 314h110l-185 -577q-19 -57 -52 -79.5t-82 -22.5z" />
    <glyph glyph-name="afii10038" unicode="&#x424;" horiz-adv-x="625" 
d="M365 0h-105v67q-114 14 -169 86.5t-55 179.5t55 179.5t169 86.5v68h105v-68q114 -14 169.5 -86.5t55.5 -179.5t-55.5 -179.5t-169.5 -86.5v-67zM482 333q0 144 -117 170v-341q117 27 117 171zM143 333q0 -144 117 -171v341q-117 -26 -117 -170z" />
    <glyph glyph-name="afii10039" unicode="&#x425;" horiz-adv-x="408" 
d="M408 0h-116l-88 246l-88 -246h-115l143 340l-135 327h115l80 -235l80 235h116l-136 -327z" />
    <glyph glyph-name="afii10040" unicode="&#x426;" horiz-adv-x="476" 
d="M359 -123v123h-302v667h104v-575h142v575h104v-575h56v-215h-104z" />
    <glyph glyph-name="afii10041" unicode="&#x427;" horiz-adv-x="450" 
d="M148 667v-206q0 -53 22 -83.5t66 -30.5q33 0 53 5v315h105v-667h-105v260q-38 -5 -69 -5q-87 0 -131.5 58.5t-44.5 147.5v206h104z" />
    <glyph glyph-name="afii10042" unicode="&#x428;" horiz-adv-x="658" 
d="M498 667h104v-667h-546v667h104v-575h117v575h104v-575h117v575z" />
    <glyph glyph-name="afii10043" unicode="&#x429;" horiz-adv-x="671" 
d="M498 667h104v-575h56v-215h-104v123h-498v667h104v-575h117v575h104v-575h117v575z" />
    <glyph glyph-name="afii10044" unicode="&#x42a;" horiz-adv-x="482" 
d="M282 0h-161v575h-103v92h207v-255h57q87 0 131.5 -58.5t44.5 -147.5t-44.5 -147.5t-131.5 -58.5zM272 320h-47v-228h47q38 0 58.5 31t20.5 83t-20.5 83t-58.5 31z" />
    <glyph glyph-name="afii10045" unicode="&#x42b;" horiz-adv-x="611" 
d="M57 667h104v-255h57q87 0 131.5 -58.5t44.5 -147.5t-44.5 -147.5t-131.5 -58.5h-161v667zM208 320h-47v-228h47q38 0 58.5 31t20.5 83t-20.5 83t-58.5 31zM554 0h-104v667h104v-667z" />
    <glyph glyph-name="afii10046" unicode="&#x42c;" horiz-adv-x="418" 
d="M57 667h104v-255h57q87 0 131.5 -58.5t44.5 -147.5t-44.5 -147.5t-131.5 -58.5h-161v667zM208 320h-47v-228h47q38 0 58.5 31t20.5 83t-20.5 83t-58.5 31z" />
    <glyph glyph-name="afii10047" unicode="&#x42d;" horiz-adv-x="412" 
d="M182 -12q-118 0 -157 161l85 31q18 -99 72 -99q79 0 86 213h-179v92h179q-10 199 -86 199q-27 0 -43 -20.5t-28 -62.5l-84 31q9 30 19.5 52t28.5 45t45 35.5t62 12.5q98 0 146 -94t48 -251q0 -156 -48 -250.5t-146 -94.5z" />
    <glyph glyph-name="afii10048" unicode="&#x42e;" horiz-adv-x="662" 
d="M432 -12q-93 0 -140 83.5t-53 225.5h-78v-297h-104v667h104v-278h79q8 132 55.5 210.5t136.5 78.5q98 0 146 -95t48 -250t-48 -250t-146 -95zM432 81q87 0 87 252t-87 252q-86 0 -86 -252t86 -252z" />
    <glyph glyph-name="afii10049" unicode="&#x42f;" horiz-adv-x="438" 
d="M150 0h-112l95 280q-36 17 -62.5 61.5t-26.5 122.5q0 91 48 147t123 56h166v-667h-104v255h-48zM230 347h47v228h-47q-38 0 -58.5 -31t-20.5 -83t20.5 -83t58.5 -31z" />
    <glyph glyph-name="afii10065" unicode="&#x430;" horiz-adv-x="398" 
d="M348 0h-94v45q-16 -27 -43.5 -42t-54.5 -15q-57 0 -92.5 44t-35.5 117q0 72 35.5 115t92.5 43q27 0 55 -14t43 -40v67q0 95 -74 95q-51 0 -97 -49l-36 66q58 63 151 63q150 0 150 -155v-340zM187 53q20 0 38 15.5t29 41.5v73q-11 26 -29 42t-38 16q-32 0 -48.5 -26.5
t-16.5 -67.5t16.5 -67.5t48.5 -26.5z" />
    <glyph glyph-name="afii10066" unicode="&#x431;" 
d="M200 71q72 0 72 172q0 169 -72 169t-72 -169q0 -172 72 -172zM200 -12q-86 0 -127.5 74.5t-41.5 201.5q0 84 4 135.5t14 92.5t31 64t50 37.5t76 25.5q30 7 43 17t13 31h94q0 -33 -12 -57.5t-34.5 -38.5t-40.5 -21t-43 -13q-61 -14 -89.5 -38t-31.5 -72q13 30 41 49t68 19
q78 0 117 -72t39 -180q0 -109 -42.5 -182t-127.5 -73z" />
    <glyph glyph-name="afii10067" unicode="&#x432;" 
d="M212 0h-162v483h156q75 0 112 -33.5t37 -89.5q0 -86 -84 -109q42 -10 67.5 -43.5t25.5 -76.5q0 -60 -37 -95.5t-115 -35.5zM192 75q76 0 76 67q0 29 -19 48.5t-57 19.5h-48v-135h48zM187 285q70 0 70 62q0 61 -70 61h-43v-123h43z" />
    <glyph glyph-name="afii10068" unicode="&#x433;" horiz-adv-x="301" 
d="M283 483v-82h-139v-401h-94v483h233z" />
    <glyph glyph-name="afii10069" unicode="&#x434;" horiz-adv-x="415" 
d="M17 -123v194q23 3 34 10t21.5 38t13.5 93l14 271h252v-401h50v-205h-94v123h-197v-123h-94zM190 401l-10 -194q-4 -85 -43 -125h121v319h-68z" />
    <glyph glyph-name="afii10070" unicode="&#x435;" horiz-adv-x="391" 
d="M213 -12q-88 0 -135 70t-47 184q0 111 43.5 182t126.5 71t123 -69.5t40 -181.5v-33h-241q1 -66 26 -106t73 -40q45 0 80 52l49 -51q-56 -78 -138 -78zM272 278q0 140 -74 140q-40 0 -57.5 -42.5t-17.5 -97.5h149z" />
    <glyph glyph-name="afii10072" unicode="&#x436;" horiz-adv-x="508" 
d="M112 0h-102l120 268l-118 215h102l93 -177v177h94v-177l93 177h102l-118 -215l120 -268h-102l-80 204l-15 -27v-177h-94v177l-15 27z" />
    <glyph glyph-name="afii10073" unicode="&#x437;" horiz-adv-x="366" 
d="M174 -12q-105 0 -159 78l49 54q36 -56 106 -56q34 0 54 20.5t20 54.5q0 67 -76 67h-77v76h74q34 0 53.5 18.5t19.5 51.5q0 32 -20.5 49.5t-55.5 17.5q-59 0 -93 -54l-49 55q53 75 142 75q75 0 121 -35t46 -96q0 -40 -25.5 -74t-66.5 -43q43 -7 70.5 -39t27.5 -78
q0 -62 -43.5 -102t-117.5 -40z" />
    <glyph glyph-name="afii10074" unicode="&#x438;" 
d="M143 0h-93v483h94v-282l109 282h99v-483h-94v292z" />
    <glyph glyph-name="afii10075" unicode="&#x439;" 
d="M143 0h-93v483h94v-282l109 282h99v-483h-94v292zM323 610q-46 -62 -122 -62t-122 62l46 35q26 -40 76 -40t76 40z" />
    <glyph glyph-name="afii10076" unicode="&#x43a;" horiz-adv-x="385" 
d="M375 0h-102l-80 204l-49 -87v-117h-94v483h94v-242l127 242h102l-118 -215z" />
    <glyph glyph-name="afii10077" unicode="&#x43b;" 
d="M17 -12v83q33 0 48.5 26t20.5 115l14 271h252v-483h-94v401h-68l-10 -194q-6 -128 -46.5 -173.5t-116.5 -45.5z" />
    <glyph glyph-name="afii10078" unicode="&#x43c;" horiz-adv-x="509" 
d="M459 0h-92v294l-93 -294h-39l-91 294v-294h-94v483h118l87 -271l88 271h116v-483z" />
    <glyph glyph-name="afii10079" unicode="&#x43d;" 
d="M144 0h-94v483h94v-190h114v190h94v-483h-94v211h-114v-211z" />
    <glyph glyph-name="afii10080" unicode="&#x43e;" 
d="M201 -12q-85 0 -127.5 72.5t-42.5 181.5t42.5 181t127.5 72t127 -72t42 -181t-42 -181.5t-127 -72.5zM201 71q72 0 72 171q0 170 -72 170t-72 -170q0 -171 72 -171z" />
    <glyph glyph-name="afii10081" unicode="&#x43f;" 
d="M352 0h-94v401h-114v-401h-94v483h302v-483z" />
    <glyph glyph-name="afii10082" unicode="&#x440;" horiz-adv-x="406" 
d="M237 -12q-28 0 -53.5 19t-39.5 56v-247h-94v667h94v-62q15 35 41 54.5t52 19.5q68 0 103 -68t35 -185q0 -116 -35 -185t-103 -69zM208 71q70 0 70 171q0 170 -70 170q-20 0 -38 -19.5t-26 -47.5v-206q9 -28 26.5 -48t37.5 -20z" />
    <glyph glyph-name="afii10083" unicode="&#x441;" horiz-adv-x="333" 
d="M205 -12q-81 0 -127.5 71t-46.5 183t46.5 182.5t127.5 70.5q69 0 109 -44l-33 -72q-29 33 -61 33q-45 0 -68.5 -48.5t-23.5 -121.5t23.5 -122t68.5 -49q32 0 61 33l33 -72q-37 -44 -109 -44z" />
    <glyph glyph-name="afii10084" unicode="&#x442;" horiz-adv-x="290" 
d="M192 0h-94v401h-80v82h254v-82h-80v-401z" />
    <glyph glyph-name="afii10085" unicode="&#x443;" horiz-adv-x="357" 
d="M37 -189l14 82q11 -6 23 -6q30 0 41 39l16 61l-126 496h100l73 -364l75 364h99l-148 -577q-16 -58 -43 -80t-75 -22q-32 0 -49 7z" />
    <glyph glyph-name="afii10086" unicode="&#x444;" horiz-adv-x="610" 
d="M170 495q25 0 49 -19.5t39 -54.5v246h94v-246q15 35 39 54.5t49 19.5q64 0 97 -67.5t33 -185.5q0 -117 -33 -185.5t-97 -68.5q-26 0 -50.5 19t-37.5 56v-247h-94v247q-13 -37 -37.5 -56t-50.5 -19q-64 0 -97 68.5t-33 185.5q0 118 33 185.5t97 67.5zM201 412
q-63 0 -63 -170q0 -75 16.5 -123t49.5 -48q16 0 31 19.5t23 48.5v206q-8 29 -23.5 48t-33.5 19zM406 71q33 0 49.5 48t16.5 123q0 170 -63 170q-18 0 -33.5 -19t-23.5 -48v-206q8 -29 23 -48.5t31 -19.5z" />
    <glyph glyph-name="afii10087" unicode="&#x445;" horiz-adv-x="352" 
d="M345 0h-101l-68 173l-69 -173h-100l111 244l-106 239h100l64 -168l64 168h99l-105 -239z" />
    <glyph glyph-name="afii10088" unicode="&#x446;" horiz-adv-x="415" 
d="M308 -123v123h-258v483h94v-401h114v401h94v-401h50v-205h-94z" />
    <glyph glyph-name="afii10089" unicode="&#x447;" horiz-adv-x="390" 
d="M38 483h94v-154q0 -29 13 -42t44 -13q33 0 57 15v194h94v-483h-94v218q-36 -27 -87 -27q-67 0 -94 26t-27 81v185z" />
    <glyph glyph-name="afii10090" unicode="&#x448;" horiz-adv-x="584" 
d="M440 483h94v-483h-484v483h94v-401h101v401h94v-401h101v401z" />
    <glyph glyph-name="afii10091" unicode="&#x449;" horiz-adv-x="597" 
d="M440 483h94v-401h50v-205h-94v123h-440v483h94v-401h101v401h94v-401h101v401z" />
    <glyph glyph-name="afii10092" unicode="&#x44a;" horiz-adv-x="425" 
d="M235 0h-137v401h-80v82h174v-180h43q81 0 123 -43.5t42 -109.5q0 -64 -42.5 -107t-122.5 -43zM224 228h-32v-153h32q38 0 58.5 21t20.5 55t-20.5 55.5t-58.5 21.5z" />
    <glyph glyph-name="afii10093" unicode="&#x44b;" horiz-adv-x="546" 
d="M50 483h94v-180h43q81 0 123 -43.5t42 -109.5q0 -64 -42.5 -107t-122.5 -43h-137v483zM176 228h-32v-153h32q38 0 58.5 21t20.5 55t-20.5 55.5t-58.5 21.5zM496 0h-94v483h94v-483z" />
    <glyph glyph-name="afii10094" unicode="&#x44c;" horiz-adv-x="377" 
d="M50 483h94v-180h43q81 0 123 -43.5t42 -109.5q0 -64 -42.5 -107t-122.5 -43h-137v483zM176 228h-32v-153h32q38 0 58.5 21t20.5 55t-20.5 55.5t-58.5 21.5z" />
    <glyph glyph-name="afii10095" unicode="&#x44d;" horiz-adv-x="333" 
d="M128 -12q-72 0 -109 44l33 66q29 -33 61 -33q38 0 61 39t29 99h-142v82h142q-6 60 -28.5 96.5t-61.5 36.5q-32 0 -61 -33l-33 66q40 44 109 44q81 0 127.5 -70.5t46.5 -182.5t-46.5 -183t-127.5 -71z" />
    <glyph glyph-name="afii10096" unicode="&#x44e;" horiz-adv-x="587" 
d="M386 -12q-79 0 -121 62.5t-48 160.5h-73v-211h-94v483h94v-190h74q10 90 52 146t116 56q85 0 127 -72t42 -181t-42 -181.5t-127 -72.5zM386 71q72 0 72 171q0 170 -72 170t-72 -170q0 -171 72 -171z" />
    <glyph glyph-name="afii10097" unicode="&#x44f;" 
d="M138 0h-107l88 199q-33 13 -57 47t-24 87q0 66 43.5 108t120.5 42h150v-483h-94v180h-49zM214 255h44v153h-44q-39 0 -59.5 -20.5t-20.5 -54.5q0 -35 20.5 -56.5t59.5 -21.5z" />
    <glyph glyph-name="afii10071" unicode="&#x451;" horiz-adv-x="391" 
d="M331 606q0 -22 -16 -37.5t-39 -15.5q-22 0 -37.5 15.5t-15.5 37.5t15.5 38t37.5 16q23 0 39 -16t16 -38zM177 606q0 -22 -16 -37.5t-38 -15.5t-38 15.5t-16 37.5t16 38t38 16q23 0 38.5 -16t15.5 -38zM213 -12q-88 0 -135 70t-47 184q0 111 43.5 182t126.5 71t123 -69.5
t40 -181.5v-33h-241q1 -66 26 -106t73 -40q45 0 80 52l49 -51q-56 -78 -138 -78zM272 278q0 140 -74 140q-40 0 -57.5 -42.5t-17.5 -97.5h149z" />
    <glyph glyph-name="afii10099" unicode="&#x452;" horiz-adv-x="415" 
d="M272 533h-115v-115q16 31 47.5 54t63.5 23q97 0 97 -108v-441q0 -74 -29 -108t-91 -34q-39 0 -59 27l26 72q8 -16 26 -16q33 0 33 59v410q0 56 -41 56q-23 0 -42.5 -20.5t-30.5 -49.5v-342h-94v533h-45v57h45v77h94v-77h115v-57z" />
    <glyph glyph-name="afii10100" unicode="&#x453;" horiz-adv-x="301" 
d="M289 700l-103 -144h-61l79 144h85zM283 483v-82h-139v-401h-94v483h233z" />
    <glyph glyph-name="afii10101" unicode="&#x454;" horiz-adv-x="333" 
d="M205 -12q-81 0 -127.5 71t-46.5 183t46.5 182.5t127.5 70.5q69 0 109 -44l-33 -66q-29 33 -61 33q-39 0 -61.5 -36.5t-28.5 -96.5h142v-82h-142q6 -61 28.5 -99.5t61.5 -38.5q32 0 61 33l33 -66q-37 -44 -109 -44z" />
    <glyph glyph-name="afii10102" unicode="&#x455;" horiz-adv-x="330" 
d="M162 -12q-97 0 -146 62l41 65q43 -52 97 -52q28 0 46.5 16.5t18.5 43.5q0 25 -19.5 44t-47 34.5t-54.5 34t-46.5 51.5t-19.5 78q0 56 38.5 93t104.5 37q77 0 130 -56l-40 -63q-33 44 -88 44q-25 0 -41 -15t-16 -37q0 -23 19.5 -41.5t47 -33.5t55 -34t47 -53t19.5 -80
q0 -61 -41.5 -99.5t-104.5 -38.5z" />
    <glyph glyph-name="afii10103" unicode="&#x456;" horiz-adv-x="194" 
d="M97 546q-24 0 -42 17.5t-18 41.5q0 25 18 42.5t42 17.5q25 0 42.5 -17.5t17.5 -42.5t-17.5 -42t-42.5 -17zM144 0h-94v483h94v-483z" />
    <glyph glyph-name="afii10104" unicode="&#x457;" horiz-adv-x="194" 
d="M228 606q0 -22 -16 -37.5t-39 -15.5q-22 0 -37.5 15.5t-15.5 37.5t15.5 38t37.5 16q23 0 39 -16t16 -38zM74 606q0 -22 -16 -37.5t-38 -15.5t-38 15.5t-16 37.5t16 38t38 16t38 -16t16 -38zM144 0h-94v483h94v-483z" />
    <glyph glyph-name="afii10105" unicode="&#x458;" horiz-adv-x="194" 
d="M97 546q-24 0 -42 17.5t-18 41.5q0 25 18 42.5t42 17.5q25 0 42.5 -17.5t17.5 -42.5t-17.5 -42t-42.5 -17zM24 -196q-40 0 -59 27l26 72q8 -16 26 -16q33 0 33 59v537h94v-537q0 -74 -29 -108t-91 -34z" />
    <glyph glyph-name="afii10106" unicode="&#x459;" horiz-adv-x="587" 
d="M17 -12v83q33 0 48.5 26t20.5 115l14 271h252v-180h43q81 0 123 -43.5t42 -109.5q0 -64 -42.5 -107t-122.5 -43h-137v401h-68l-10 -194q-6 -128 -46.5 -173.5t-116.5 -45.5zM384 228h-32v-153h32q38 0 58.5 21t20.5 55t-20.5 55.5t-58.5 21.5z" />
    <glyph glyph-name="afii10107" unicode="&#x45a;" horiz-adv-x="587" 
d="M144 0h-94v483h94v-190h114v190h94v-190h43q81 0 123 -41t42 -107q0 -64 -42 -104.5t-123 -40.5h-137v211h-114v-211zM384 218h-32v-143h32q79 0 79 71q0 33 -20 52.5t-59 19.5z" />
    <glyph glyph-name="afii10108" unicode="&#x45b;" horiz-adv-x="415" 
d="M272 533h-115v-115q16 31 47.5 54t63.5 23q97 0 97 -107v-388h-94v357q0 55 -41 55q-23 0 -42.5 -20.5t-30.5 -49.5v-342h-94v533h-45v57h45v77h94v-77h115v-57z" />
    <glyph glyph-name="afii10109" unicode="&#x45c;" horiz-adv-x="385" 
d="M316 700l-103 -144h-61l79 144h85zM375 0h-102l-80 204l-49 -87v-117h-94v483h94v-242l127 242h102l-118 -215z" />
    <glyph glyph-name="afii10110" unicode="&#x45e;" horiz-adv-x="357" 
d="M37 -189l14 82q11 -6 23 -6q30 0 41 39l16 61l-126 496h100l73 -364l75 364h99l-148 -577q-16 -58 -43 -80t-75 -22q-32 0 -49 7zM300 610q-46 -62 -122 -62t-122 62l46 35q26 -40 76 -40t76 40z" />
    <glyph glyph-name="afii10193" unicode="&#x45f;" 
d="M154 -128v128h-104v483h94v-401h114v401h94v-483h-104v-128h-94z" />
    <glyph glyph-name="afii10050" unicode="&#x490;" horiz-adv-x="365" 
d="M161 575v-575h-104v667h169v123h104v-215h-169z" />
    <glyph glyph-name="afii10098" unicode="&#x491;" horiz-adv-x="301" 
d="M144 401v-401h-94v483h139v128h94v-210h-139z" />
    <glyph glyph-name="uni1E02" unicode="&#x1e02;" horiz-adv-x="431" 
d="M240 0h-183v667h176q75 0 114 -47t39 -123q0 -123 -93 -153q45 -7 73.5 -54.5t28.5 -109.5q0 -83 -38.5 -131.5t-116.5 -48.5zM208 386q71 0 71 94q0 95 -71 95h-47v-189h47zM212 92q76 0 76 101q0 45 -19 73t-57 28h-51v-202h51zM215 718q-22 0 -38 16t-16 38t16 38
t38 16q23 0 38.5 -16t15.5 -38t-15.5 -38t-38.5 -16z" />
    <glyph glyph-name="uni1E03" unicode="&#x1e03;" horiz-adv-x="406" 
d="M144 139q9 -29 26.5 -48.5t37.5 -19.5q70 0 70 170q0 171 -70 171q-20 0 -37.5 -20t-26.5 -49v-204zM144 0h-94v667h94v-247q14 37 39.5 56t53.5 19q68 0 103 -69t35 -185q0 -117 -35 -185t-103 -68q-26 0 -52 19.5t-41 54.5v-62zM210 718q-22 0 -38 16t-16 38t16 38
t38 16t38 -16t16 -38t-16 -38t-38 -16z" />
    <glyph glyph-name="uni1E0A" unicode="&#x1e0a;" horiz-adv-x="455" 
d="M207 0h-150v667h149q108 0 160.5 -91t52.5 -243q0 -153 -52 -243t-160 -90zM206 92q106 0 106 241q0 242 -106 242h-45v-483h45zM227 718q-22 0 -38 16t-16 38t16 38t38 16q23 0 38.5 -16t15.5 -38t-15.5 -38t-38.5 -16z" />
    <glyph glyph-name="uni1E0B" unicode="&#x1e0b;" horiz-adv-x="406" 
d="M356 0h-94v62q-15 -35 -41 -54.5t-52 -19.5q-68 0 -103 68t-35 185q0 116 35 185t103 69q28 0 53.5 -19t39.5 -56v247h94v-667zM198 71q20 0 38 20t26 48v205q-8 28 -26 48t-38 20q-70 0 -70 -171q0 -170 70 -170zM198 718q-22 0 -38 16t-16 38t16 38t38 16t38 -16
t16 -38t-16 -38t-38 -16z" />
    <glyph glyph-name="uni1E1E" unicode="&#x1e1e;" horiz-adv-x="365" 
d="M196 718q-22 0 -38 16t-16 38t16 38t38 16t38 -16t16 -38t-16 -38t-38 -16zM161 0h-104v667h273v-92h-169v-189h162v-92h-162v-294z" />
    <glyph glyph-name="uni1E1F" unicode="&#x1e1f;" horiz-adv-x="239" 
d="M181 718q-22 0 -38 16t-16 38t16 38t38 16q23 0 38.5 -16t15.5 -38t-15.5 -38t-38.5 -16zM159 0h-94v401h-46v82h46v63q0 63 30.5 97t87.5 34q49 0 78 -27l-27 -74q-15 18 -34 18q-41 0 -41 -48v-63h63v-82h-63v-401z" />
    <glyph glyph-name="uni1E22" unicode="&#x1e22;" horiz-adv-x="463" 
d="M407 0h-105v297h-141v-297h-104v667h104v-278h141v278h105v-667zM231 718q-22 0 -38 16t-16 38t16 38t38 16q23 0 38.5 -16t15.5 -38t-15.5 -38t-38.5 -16z" />
    <glyph glyph-name="uni1E23" unicode="&#x1e23;" 
d="M352 0h-94v357q0 55 -41 55q-23 0 -42.5 -20.5t-30.5 -49.5v-342h-94v667h94v-249q16 31 47.5 54t63.5 23q97 0 97 -107v-388zM201 718q-22 0 -38 16t-16 38t16 38t38 16q23 0 38.5 -16t15.5 -38t-15.5 -38t-38.5 -16z" />
    <glyph glyph-name="uni1E56" unicode="&#x1e56;" horiz-adv-x="418" 
d="M161 0h-104v667h161q87 0 131.5 -58.5t44.5 -147.5t-44.5 -147.5t-131.5 -58.5h-57v-255zM208 347q38 0 58.5 31t20.5 83t-20.5 83t-58.5 31h-47v-228h47zM209 718q-22 0 -38 16t-16 38t16 38t38 16q23 0 38.5 -16t15.5 -38t-15.5 -38t-38.5 -16z" />
    <glyph glyph-name="uni1E57" unicode="&#x1e57;" horiz-adv-x="406" 
d="M237 -12q-28 0 -53.5 19t-39.5 56v-247h-94v667h94v-62q15 35 41 54.5t52 19.5q68 0 103 -68t35 -185q0 -116 -35 -185t-103 -69zM208 71q70 0 70 171q0 170 -70 170q-20 0 -38 -19.5t-26 -47.5v-206q9 -28 26.5 -48t37.5 -20zM211 551q-22 0 -38 16t-16 38t16 38t38 16
q23 0 38.5 -15.5t15.5 -38.5t-15.5 -38.5t-38.5 -15.5z" />
    <glyph glyph-name="uni1E60" unicode="&#x1e60;" horiz-adv-x="378" 
d="M175 -12q-100 0 -159 64l47 82q41 -53 106 -53q33 0 54 24t21 62q0 36 -21.5 66t-52.5 53.5t-62 49.5t-52.5 68.5t-21.5 96.5q0 76 47 126.5t125 50.5q81 0 134 -51l-42 -80q-37 38 -89 38q-30 0 -49.5 -22t-19.5 -57q0 -31 21.5 -58.5t52.5 -51.5t62 -52t52.5 -72
t21.5 -99q0 -81 -48 -133t-127 -52zM188 718q-22 0 -38 16t-16 38t16 38t38 16t38 -16t16 -38t-16 -38t-38 -16z" />
    <glyph glyph-name="uni1E61" unicode="&#x1e61;" horiz-adv-x="330" 
d="M162 -12q-97 0 -146 62l41 65q43 -52 97 -52q28 0 46.5 16.5t18.5 43.5q0 25 -19.5 44t-47 34.5t-54.5 34t-46.5 51.5t-19.5 78q0 56 38.5 93t104.5 37q77 0 130 -56l-40 -63q-33 44 -88 44q-25 0 -41 -15t-16 -37q0 -23 19.5 -41.5t47 -33.5t55 -34t47 -53t19.5 -80
q0 -61 -41.5 -99.5t-104.5 -38.5zM165 551q-22 0 -38 16t-16 38t16 38t38 16q23 0 38.5 -15.5t15.5 -38.5t-15.5 -38.5t-38.5 -15.5z" />
    <glyph glyph-name="uni1E6A" unicode="&#x1e6a;" horiz-adv-x="346" 
d="M225 0h-104v575h-103v92h310v-92h-103v-575zM173 718q-22 0 -38 16t-16 38t16 38t38 16q23 0 38.5 -16t15.5 -38t-15.5 -38t-38.5 -16z" />
    <glyph glyph-name="uni1E6B" unicode="&#x1e6b;" horiz-adv-x="247" 
d="M165 -12q-53 0 -76.5 28t-23.5 87v298h-47v82h47v132h94v-132h63v-82h-63v-281q0 -49 28 -49q18 0 30 15l22 -72q-26 -26 -74 -26zM114 718q-22 0 -38 16t-16 38t16 38t38 16t38 -16t16 -38t-16 -38t-38 -16z" />
    <glyph glyph-name="Wgrave" unicode="&#x1e80;" horiz-adv-x="587" 
d="M462 0h-107l-62 466l-61 -466h-107l-111 667h107l62 -483l68 483h85l69 -483l61 483h107zM334 723h-61l-103 144h85z" />
    <glyph glyph-name="wgrave" unicode="&#x1e81;" horiz-adv-x="579" 
d="M462 0h-98l-74 355l-75 -355h-98l-108 483h97l66 -354l69 354h92l73 -354l67 354h98zM331 556h-61l-103 144h85z" />
    <glyph glyph-name="Wacute" unicode="&#x1e82;" horiz-adv-x="587" 
d="M416 867l-103 -144h-61l79 144h85zM462 0h-107l-62 466l-61 -466h-107l-111 667h107l62 -483l68 483h85l69 -483l61 483h107z" />
    <glyph glyph-name="wacute" unicode="&#x1e83;" horiz-adv-x="579" 
d="M413 700l-103 -144h-61l79 144h85zM462 0h-98l-74 355l-75 -355h-98l-108 483h97l66 -354l69 354h92l73 -354l67 354h98z" />
    <glyph glyph-name="Wdieresis" unicode="&#x1e84;" horiz-adv-x="587" 
d="M424 773q0 -22 -16 -37.5t-39 -15.5q-22 0 -37.5 15.5t-15.5 37.5t15.5 38t37.5 16q23 0 39 -16t16 -38zM270 773q0 -22 -16 -37.5t-38 -15.5t-38 15.5t-16 37.5t16 38t38 16t38 -15.5t16 -38.5zM462 0h-107l-62 466l-61 -466h-107l-111 667h107l62 -483l68 483h85
l69 -483l61 483h107z" />
    <glyph glyph-name="wdieresis" unicode="&#x1e85;" horiz-adv-x="579" 
d="M421 606q0 -22 -16 -37.5t-39 -15.5q-22 0 -37.5 15.5t-15.5 37.5t15.5 38t37.5 16q23 0 39 -16t16 -38zM267 606q0 -22 -16 -37.5t-38 -15.5t-38 15.5t-16 37.5t16 38t38 16q23 0 38.5 -16t15.5 -38zM462 0h-98l-74 355l-75 -355h-98l-108 483h97l66 -354l69 354h92
l73 -354l67 354h98z" />
    <glyph glyph-name="uni1EA0" unicode="&#x1ea0;" horiz-adv-x="398" 
d="M395 0h-107l-23 136h-132l-23 -136h-107l136 667h120zM253 228l-54 320l-54 -320h108zM200 -188q-22 0 -38 16t-16 38t16 38t38 16t38 -16t16 -38t-16 -38t-38 -16z" />
    <glyph glyph-name="uni1EA1" unicode="&#x1ea1;" horiz-adv-x="398" 
d="M348 0h-94v45q-16 -27 -43.5 -42t-54.5 -15q-57 0 -92.5 44t-35.5 117q0 72 35.5 115t92.5 43q27 0 55 -14t43 -40v67q0 95 -74 95q-51 0 -97 -49l-36 66q58 63 151 63q150 0 150 -155v-340zM187 53q20 0 38 15.5t29 41.5v73q-11 26 -29 42t-38 16q-32 0 -48.5 -26.5
t-16.5 -67.5t16.5 -67.5t48.5 -26.5zM200 -188q-22 0 -38 16t-16 38t16 38t38 16t38 -16t16 -38t-16 -38t-38 -16z" />
    <glyph glyph-name="uni1EA2" unicode="&#x1ea2;" horiz-adv-x="398" 
d="M395 0h-107l-23 136h-132l-23 -136h-107l136 667h120zM253 228l-54 320l-54 -320h108zM176 762l-38 7q12 51 62 51q27 0 42.5 -16t15.5 -48q0 -31 -18 -59h-40q20 27 20 57t-21 30q-17 0 -23 -22z" />
    <glyph glyph-name="uni1EA3" unicode="&#x1ea3;" horiz-adv-x="398" 
d="M348 0h-94v45q-16 -27 -43.5 -42t-54.5 -15q-57 0 -92.5 44t-35.5 117q0 72 35.5 115t92.5 43q27 0 55 -14t43 -40v67q0 95 -74 95q-51 0 -97 -49l-36 66q58 63 151 63q150 0 150 -155v-340zM187 53q20 0 38 15.5t29 41.5v73q-11 26 -29 42t-38 16q-32 0 -48.5 -26.5
t-16.5 -67.5t16.5 -67.5t48.5 -26.5zM176 592l-38 7q12 51 62 51q27 0 42.5 -16t15.5 -48q0 -31 -18 -59h-40q20 27 20 57t-21 30q-17 0 -23 -22z" />
    <glyph glyph-name="uni1EA4" unicode="&#x1ea4;" horiz-adv-x="398" 
d="M308 682h-53l-57 73l-53 -73h-54l64 108h87zM395 0h-107l-23 136h-132l-23 -136h-107l136 667h120zM253 228l-54 320l-54 -320h108zM449 843l-103 -108h-61l79 108h85z" />
    <glyph glyph-name="uni1EA5" unicode="&#x1ea5;" horiz-adv-x="398" 
d="M348 0h-94v45q-16 -27 -43.5 -42t-54.5 -15q-57 0 -92.5 44t-35.5 117q0 72 35.5 115t92.5 43q27 0 55 -14t43 -40v67q0 95 -74 95q-51 0 -97 -49l-36 66q58 63 151 63q150 0 150 -155v-340zM187 53q20 0 38 15.5t29 41.5v73q-11 26 -29 42t-38 16q-32 0 -48.5 -26.5
t-16.5 -67.5t16.5 -67.5t48.5 -26.5zM310 556h-53l-57 98l-53 -98h-54l64 144h87zM448 771l-103 -144h-61l79 144h85z" />
    <glyph glyph-name="uni1EA6" unicode="&#x1ea6;" horiz-adv-x="398" 
d="M308 682h-53l-57 73l-53 -73h-54l64 108h87zM395 0h-107l-23 136h-132l-23 -136h-107l136 667h120zM253 228l-54 320l-54 -320h108zM114 735h-61l-103 108h85z" />
    <glyph glyph-name="uni1EA7" unicode="&#x1ea7;" horiz-adv-x="398" 
d="M348 0h-94v45q-16 -27 -43.5 -42t-54.5 -15q-57 0 -92.5 44t-35.5 117q0 72 35.5 115t92.5 43q27 0 55 -14t43 -40v67q0 95 -74 95q-51 0 -97 -49l-36 66q58 63 151 63q150 0 150 -155v-340zM187 53q20 0 38 15.5t29 41.5v73q-11 26 -29 42t-38 16q-32 0 -48.5 -26.5
t-16.5 -67.5t16.5 -67.5t48.5 -26.5zM310 556h-53l-57 98l-53 -98h-54l64 144h87zM115 627h-61l-103 144h85z" />
    <glyph glyph-name="uni1EA8" unicode="&#x1ea8;" horiz-adv-x="398" 
d="M308 682h-53l-57 73l-53 -73h-54l64 108h87zM395 0h-107l-23 136h-132l-23 -136h-107l136 667h120zM253 228l-54 320l-54 -320h108zM295 792l-38 5q12 38 62 38q58 0 58 -48q0 -23 -18 -44h-40q20 20 20 43q0 22 -21 22q-17 0 -23 -16z" />
    <glyph glyph-name="uni1EA9" unicode="&#x1ea9;" horiz-adv-x="398" 
d="M348 0h-94v45q-16 -27 -43.5 -42t-54.5 -15q-57 0 -92.5 44t-35.5 117q0 72 35.5 115t92.5 43q27 0 55 -14t43 -40v67q0 95 -74 95q-51 0 -97 -49l-36 66q58 63 151 63q150 0 150 -155v-340zM187 53q20 0 38 15.5t29 41.5v73q-11 26 -29 42t-38 16q-32 0 -48.5 -26.5
t-16.5 -67.5t16.5 -67.5t48.5 -26.5zM310 556h-53l-57 98l-53 -98h-54l64 144h87zM257 732l-38 7q12 51 62 51q27 0 42.5 -16t15.5 -48q0 -31 -18 -59h-40q20 27 20 57t-21 30q-17 0 -23 -22z" />
    <glyph glyph-name="uni1EAA" unicode="&#x1eaa;" horiz-adv-x="398" 
d="M308 678h-53l-57 49l-53 -49h-54l64 72h87zM395 0h-107l-23 136h-132l-23 -136h-107l136 667h120zM253 228l-54 320l-54 -320h108zM240 757q-30 0 -53 20.5t-33 20.5q-27 0 -27 -38h-50q0 30 21 48.5t59 18.5q30 0 53.5 -21t33.5 -21q26 0 26 39h50q0 -30 -20.5 -48.5
t-59.5 -18.5z" />
    <glyph glyph-name="uni1EAB" unicode="&#x1eab;" horiz-adv-x="398" 
d="M348 0h-94v45q-16 -27 -43.5 -42t-54.5 -15q-57 0 -92.5 44t-35.5 117q0 72 35.5 115t92.5 43q27 0 55 -14t43 -40v67q0 95 -74 95q-51 0 -97 -49l-36 66q58 63 151 63q150 0 150 -155v-340zM187 53q20 0 38 15.5t29 41.5v73q-11 26 -29 42t-38 16q-32 0 -48.5 -26.5
t-16.5 -67.5t16.5 -67.5t48.5 -26.5zM310 523h-53l-57 98l-53 -98h-54l64 144h87zM240 682q-18 0 -32 13t-21 28.5t-16 28.5t-17 13q-27 0 -27 -77h-50q0 59 21 96.5t59 37.5q18 0 32.5 -13t21.5 -28.5t15.5 -28.5t17.5 -13q26 0 26 77h50q0 -60 -20.5 -97t-59.5 -37z" />
    <glyph glyph-name="uni1EAC" unicode="&#x1eac;" horiz-adv-x="398" 
d="M395 0h-107l-23 136h-132l-23 -136h-107l136 667h120zM253 228l-54 320l-54 -320h108zM308 723h-53l-57 98l-53 -98h-54l64 144h87zM200 -188q-22 0 -38 16t-16 38t16 38t38 16t38 -16t16 -38t-16 -38t-38 -16z" />
    <glyph glyph-name="uni1EAD" unicode="&#x1ead;" horiz-adv-x="398" 
d="M348 0h-94v45q-16 -27 -43.5 -42t-54.5 -15q-57 0 -92.5 44t-35.5 117q0 72 35.5 115t92.5 43q27 0 55 -14t43 -40v67q0 95 -74 95q-51 0 -97 -49l-36 66q58 63 151 63q150 0 150 -155v-340zM187 53q20 0 38 15.5t29 41.5v73q-11 26 -29 42t-38 16q-32 0 -48.5 -26.5
t-16.5 -67.5t16.5 -67.5t48.5 -26.5zM307 556h-53l-57 98l-53 -98h-54l64 144h87zM200 -188q-22 0 -38 16t-16 38t16 38t38 16t38 -16t16 -38t-16 -38t-38 -16z" />
    <glyph glyph-name="uni1EAE" unicode="&#x1eae;" horiz-adv-x="398" 
d="M395 0h-107l-23 136h-132l-23 -136h-107l136 667h120zM253 228l-54 320l-54 -320h108zM320 836l-103 -93h-61l79 93h85zM321 731q-45 -48 -122 -48t-122 48l46 28q26 -32 76 -32t76 32z" />
    <glyph glyph-name="uni1EAF" unicode="&#x1eaf;" horiz-adv-x="398" 
d="M348 0h-94v45q-16 -27 -43.5 -42t-54.5 -15q-57 0 -92.5 44t-35.5 117q0 72 35.5 115t92.5 43q27 0 55 -14t43 -40v67q0 95 -74 95q-51 0 -97 -49l-36 66q58 63 151 63q150 0 150 -155v-340zM187 53q20 0 38 15.5t29 41.5v73q-11 26 -29 42t-38 16q-32 0 -48.5 -26.5
t-16.5 -67.5t16.5 -67.5t48.5 -26.5zM321 771l-103 -144h-61l79 144h85zM321 584q-46 -62 -122 -62t-122 62l46 35q26 -40 76 -40t76 40z" />
    <glyph glyph-name="uni1EB0" unicode="&#x1eb0;" horiz-adv-x="398" 
d="M395 0h-107l-23 136h-132l-23 -136h-107l136 667h120zM253 228l-54 320l-54 -320h108zM243 743h-61l-103 93h85zM321 731q-45 -48 -122 -48t-122 48l46 28q26 -32 76 -32t76 32z" />
    <glyph glyph-name="uni1EB1" unicode="&#x1eb1;" horiz-adv-x="398" 
d="M348 0h-94v45q-16 -27 -43.5 -42t-54.5 -15q-57 0 -92.5 44t-35.5 117q0 72 35.5 115t92.5 43q27 0 55 -14t43 -40v67q0 95 -74 95q-51 0 -97 -49l-36 66q58 63 151 63q150 0 150 -155v-340zM187 53q20 0 38 15.5t29 41.5v73q-11 26 -29 42t-38 16q-32 0 -48.5 -26.5
t-16.5 -67.5t16.5 -67.5t48.5 -26.5zM241 627h-61l-103 144h85zM322 584q-46 -62 -122 -62t-122 62l46 35q26 -40 76 -40t76 40z" />
    <glyph glyph-name="uni1EB2" unicode="&#x1eb2;" horiz-adv-x="398" 
d="M395 0h-107l-23 136h-132l-23 -136h-107l136 667h120zM253 228l-54 320l-54 -320h108zM177 787l-38 5q12 33 62 33q58 0 58 -42q0 -20 -18 -38h-40q20 19 20 37q0 19 -21 19q-17 0 -23 -14zM321 731q-45 -48 -122 -48t-122 48l46 28q26 -32 76 -32t76 32z" />
    <glyph glyph-name="uni1EB3" unicode="&#x1eb3;" horiz-adv-x="398" 
d="M348 0h-94v45q-16 -27 -43.5 -42t-54.5 -15q-57 0 -92.5 44t-35.5 117q0 72 35.5 115t92.5 43q27 0 55 -14t43 -40v67q0 95 -74 95q-51 0 -97 -49l-36 66q58 63 151 63q150 0 150 -155v-340zM187 53q20 0 38 15.5t29 41.5v73q-11 26 -29 42t-38 16q-32 0 -48.5 -26.5
t-16.5 -67.5t16.5 -67.5t48.5 -26.5zM179 688l-38 7q12 51 62 51q27 0 42.5 -16t15.5 -48q0 -31 -18 -59h-40q20 27 20 57t-21 30q-17 0 -23 -22zM322 584q-46 -62 -122 -62t-122 62l46 35q26 -40 76 -40t76 40z" />
    <glyph glyph-name="uni1EB4" unicode="&#x1eb4;" horiz-adv-x="398" 
d="M395 0h-107l-23 136h-132l-23 -136h-107l136 667h120zM253 228l-54 320l-54 -320h108zM321 725q-45 -40 -122 -40t-122 40l46 22q26 -26 76 -26t76 26zM240 757q-30 0 -53 20.5t-33 20.5q-27 0 -27 -38h-50q0 30 21 48.5t59 18.5q30 0 53.5 -21t33.5 -21q26 0 26 39h50
q0 -30 -20.5 -48.5t-59.5 -18.5z" />
    <glyph glyph-name="uni1EB5" unicode="&#x1eb5;" horiz-adv-x="398" 
d="M348 0h-94v45q-16 -27 -43.5 -42t-54.5 -15q-57 0 -92.5 44t-35.5 117q0 72 35.5 115t92.5 43q27 0 55 -14t43 -40v67q0 95 -74 95q-51 0 -97 -49l-36 66q58 63 151 63q150 0 150 -155v-340zM187 53q20 0 38 15.5t29 41.5v73q-11 26 -29 42t-38 16q-32 0 -48.5 -26.5
t-16.5 -67.5t16.5 -67.5t48.5 -26.5zM322 584q-46 -62 -122 -62t-122 62l46 35q26 -40 76 -40t76 40zM239 648q-18 0 -32 13t-21 28.5t-16 28.5t-17 13q-27 0 -27 -77h-50q0 59 21 96.5t59 37.5q18 0 32.5 -13t21.5 -28.5t15.5 -28.5t17.5 -13q26 0 26 77h50
q0 -60 -20.5 -97t-59.5 -37z" />
    <glyph glyph-name="uni1EB6" unicode="&#x1eb6;" horiz-adv-x="398" 
d="M395 0h-107l-23 136h-132l-23 -136h-107l136 667h120zM253 228l-54 320l-54 -320h108zM200 -188q-22 0 -38 16t-16 38t16 38t38 16t38 -16t16 -38t-16 -38t-38 -16zM321 777q-46 -62 -122 -62t-122 62l46 35q26 -40 76 -40t76 40z" />
    <glyph glyph-name="uni1EB7" unicode="&#x1eb7;" horiz-adv-x="398" 
d="M348 0h-94v45q-16 -27 -43.5 -42t-54.5 -15q-57 0 -92.5 44t-35.5 117q0 72 35.5 115t92.5 43q27 0 55 -14t43 -40v67q0 95 -74 95q-51 0 -97 -49l-36 66q58 63 151 63q150 0 150 -155v-340zM187 53q20 0 38 15.5t29 41.5v73q-11 26 -29 42t-38 16q-32 0 -48.5 -26.5
t-16.5 -67.5t16.5 -67.5t48.5 -26.5zM200 -188q-22 0 -38 16t-16 38t16 38t38 16t38 -16t16 -38t-16 -38t-38 -16zM321 610q-46 -62 -122 -62t-122 62l46 35q26 -40 76 -40t76 40z" />
    <glyph glyph-name="uni1EB8" unicode="&#x1eb8;" horiz-adv-x="367" 
d="M330 0h-273v667h273v-92h-169v-189h162v-92h-162v-202h169v-92zM199 -188q-22 0 -38 16t-16 38t16 38t38 16q23 0 38.5 -16t15.5 -38t-15.5 -38t-38.5 -16z" />
    <glyph glyph-name="uni1EB9" unicode="&#x1eb9;" horiz-adv-x="391" 
d="M213 -12q-88 0 -135 70t-47 184q0 111 43.5 182t126.5 71t123 -69.5t40 -181.5v-33h-241q1 -66 26 -106t73 -40q45 0 80 52l49 -51q-56 -78 -138 -78zM272 278q0 140 -74 140q-40 0 -57.5 -42.5t-17.5 -97.5h149zM201 -188q-22 0 -38 16t-16 38t16 38t38 16
q23 0 38.5 -16t15.5 -38t-15.5 -38t-38.5 -16z" />
    <glyph glyph-name="uni1EBA" unicode="&#x1eba;" horiz-adv-x="367" 
d="M330 0h-273v667h273v-92h-169v-189h162v-92h-162v-202h169v-92zM161 762l-38 7q12 51 62 51q27 0 42.5 -16t15.5 -48q0 -31 -18 -59h-40q20 27 20 57t-21 30q-17 0 -23 -22z" />
    <glyph glyph-name="uni1EBB" unicode="&#x1ebb;" horiz-adv-x="391" 
d="M213 -12q-88 0 -135 70t-47 184q0 111 43.5 182t126.5 71t123 -69.5t40 -181.5v-33h-241q1 -66 26 -106t73 -40q45 0 80 52l49 -51q-56 -78 -138 -78zM272 278q0 140 -74 140q-40 0 -57.5 -42.5t-17.5 -97.5h149zM179 592l-38 7q12 51 62 51q27 0 42.5 -16t15.5 -48
q0 -31 -18 -59h-40q20 27 20 57t-21 30q-17 0 -23 -22z" />
    <glyph glyph-name="uni1EBC" unicode="&#x1ebc;" horiz-adv-x="367" 
d="M330 0h-273v667h273v-92h-169v-189h162v-92h-162v-202h169v-92zM234 721q-18 0 -32 13t-21 28.5t-16 28.5t-17 13q-27 0 -27 -77h-50q0 59 21 96.5t59 37.5q18 0 32.5 -13t21.5 -28.5t15.5 -28.5t17.5 -13q26 0 26 77h50q0 -60 -20.5 -97t-59.5 -37z" />
    <glyph glyph-name="uni1EBD" unicode="&#x1ebd;" horiz-adv-x="391" 
d="M213 -12q-88 0 -135 70t-47 184q0 111 43.5 182t126.5 71t123 -69.5t40 -181.5v-33h-241q1 -66 26 -106t73 -40q45 0 80 52l49 -51q-56 -78 -138 -78zM272 278q0 140 -74 140q-40 0 -57.5 -42.5t-17.5 -97.5h149zM244 554q-18 0 -32 13t-21 28.5t-16 28.5t-17 13
q-27 0 -27 -77h-50q0 59 21 96.5t59 37.5q18 0 32.5 -13t21.5 -28.5t15.5 -28.5t17.5 -13q26 0 26 77h50q0 -60 -20.5 -97t-59.5 -37z" />
    <glyph glyph-name="uni1EBE" unicode="&#x1ebe;" horiz-adv-x="367" 
d="M303 682h-53l-57 73l-53 -73h-54l64 108h87zM444 843l-103 -108h-61l79 108h85zM330 0h-273v667h273v-92h-169v-189h162v-92h-162v-202h169v-92z" />
    <glyph glyph-name="uni1EBF" unicode="&#x1ebf;" horiz-adv-x="391" 
d="M311 556h-53l-57 98l-53 -98h-54l64 144h87zM449 771l-103 -144h-61l79 144h85zM213 -12q-88 0 -135 70t-47 184q0 111 43.5 182t126.5 71t123 -69.5t40 -181.5v-33h-241q1 -66 26 -106t73 -40q45 0 80 52l49 -51q-56 -78 -138 -78zM272 278q0 140 -74 140
q-40 0 -57.5 -42.5t-17.5 -97.5h149z" />
    <glyph glyph-name="uni1EC0" unicode="&#x1ec0;" horiz-adv-x="367" 
d="M302 682h-53l-57 73l-53 -73h-54l64 108h87zM330 0h-273v667h273v-92h-169v-189h162v-92h-162v-202h169v-92zM108 735h-61l-103 108h85z" />
    <glyph glyph-name="uni1EC1" unicode="&#x1ec1;" horiz-adv-x="391" 
d="M311 556h-53l-57 98l-53 -98h-54l64 144h87zM213 -12q-88 0 -135 70t-47 184q0 111 43.5 182t126.5 71t123 -69.5t40 -181.5v-33h-241q1 -66 26 -106t73 -40q45 0 80 52l49 -51q-56 -78 -138 -78zM272 278q0 140 -74 140q-40 0 -57.5 -42.5t-17.5 -97.5h149zM116 627h-61
l-103 144h85z" />
    <glyph glyph-name="uni1EC2" unicode="&#x1ec2;" horiz-adv-x="367" 
d="M302 682h-53l-57 73l-53 -73h-54l64 108h87zM330 0h-273v667h273v-92h-169v-189h162v-92h-162v-202h169v-92zM288 792l-38 5q12 38 62 38q58 0 58 -48q0 -23 -18 -44h-40q20 20 20 43q0 22 -21 22q-17 0 -23 -16z" />
    <glyph glyph-name="uni1EC3" unicode="&#x1ec3;" horiz-adv-x="391" 
d="M310 556h-53l-57 98l-53 -98h-54l64 144h87zM213 -12q-88 0 -135 70t-47 184q0 111 43.5 182t126.5 71t123 -69.5t40 -181.5v-33h-241q1 -66 26 -106t73 -40q45 0 80 52l49 -51q-56 -78 -138 -78zM272 278q0 140 -74 140q-40 0 -57.5 -42.5t-17.5 -97.5h149zM257 732
l-38 7q12 51 62 51q27 0 42.5 -16t15.5 -48q0 -31 -18 -59h-40q20 27 20 57t-21 30q-17 0 -23 -22z" />
    <glyph glyph-name="uni1EC4" unicode="&#x1ec4;" horiz-adv-x="367" 
d="M301 678h-53l-57 49l-53 -49h-54l64 72h87zM330 0h-273v667h273v-92h-169v-189h162v-92h-162v-202h169v-92zM233 757q-30 0 -53 20.5t-33 20.5q-27 0 -27 -38h-50q0 30 21 48.5t59 18.5q30 0 53.5 -21t33.5 -21q26 0 26 39h50q0 -30 -20.5 -48.5t-59.5 -18.5z" />
    <glyph glyph-name="uni1EC5" unicode="&#x1ec5;" horiz-adv-x="391" 
d="M310 523h-53l-57 98l-53 -98h-54l64 144h87zM213 -12q-88 0 -135 70t-47 184q0 111 43.5 182t126.5 71t123 -69.5t40 -181.5v-33h-241q1 -66 26 -106t73 -40q45 0 80 52l49 -51q-56 -78 -138 -78zM272 278q0 140 -74 140q-40 0 -57.5 -42.5t-17.5 -97.5h149zM243 682
q-18 0 -32 13t-21 28.5t-16 28.5t-17 13q-27 0 -27 -77h-50q0 59 21 96.5t59 37.5q18 0 32.5 -13t21.5 -28.5t15.5 -28.5t17.5 -13q26 0 26 77h50q0 -60 -20.5 -97t-59.5 -37z" />
    <glyph glyph-name="uni1EC6" unicode="&#x1ec6;" horiz-adv-x="367" 
d="M303 723h-53l-57 98l-53 -98h-54l64 144h87zM330 0h-273v667h273v-92h-169v-189h162v-92h-162v-202h169v-92zM199 -188q-22 0 -38 16t-16 38t16 38t38 16q23 0 38.5 -16t15.5 -38t-15.5 -38t-38.5 -16z" />
    <glyph glyph-name="uni1EC7" unicode="&#x1ec7;" horiz-adv-x="391" 
d="M311 556h-53l-57 98l-53 -98h-54l64 144h87zM213 -12q-88 0 -135 70t-47 184q0 111 43.5 182t126.5 71t123 -69.5t40 -181.5v-33h-241q1 -66 26 -106t73 -40q45 0 80 52l49 -51q-56 -78 -138 -78zM272 278q0 140 -74 140q-40 0 -57.5 -42.5t-17.5 -97.5h149zM201 -188
q-22 0 -38 16t-16 38t16 38t38 16q23 0 38.5 -16t15.5 -38t-15.5 -38t-38.5 -16z" />
    <glyph glyph-name="uni1EC8" unicode="&#x1ec8;" horiz-adv-x="218" 
d="M161 0h-104v667h104v-667zM86 762l-38 7q12 51 62 51q27 0 42.5 -16t15.5 -48q0 -31 -18 -59h-40q20 27 20 57t-21 30q-17 0 -23 -22z" />
    <glyph glyph-name="uni1EC9" unicode="&#x1ec9;" horiz-adv-x="194" 
d="M144 0h-94v483h94v-483zM74 592l-38 7q12 51 62 51q27 0 42.5 -16t15.5 -48q0 -31 -18 -59h-40q20 27 20 57t-21 30q-17 0 -23 -22z" />
    <glyph glyph-name="uni1ECA" unicode="&#x1eca;" horiz-adv-x="218" 
d="M161 0h-104v667h104v-667zM109 -188q-22 0 -38 16t-16 38t16 38t38 16q23 0 38.5 -16t15.5 -38t-15.5 -38t-38.5 -16z" />
    <glyph glyph-name="uni1ECB" unicode="&#x1ecb;" horiz-adv-x="194" 
d="M97 546q-24 0 -42 17.5t-18 41.5q0 25 18 42.5t42 17.5q25 0 42.5 -17.5t17.5 -42.5t-17.5 -42t-42.5 -17zM144 0h-94v483h94v-483zM98 -188q-22 0 -38 16t-16 38t16 38t38 16t38 -16t16 -38t-16 -38t-38 -16z" />
    <glyph glyph-name="uni1ECC" unicode="&#x1ecc;" horiz-adv-x="459" 
d="M229 -12q-98 0 -145.5 94.5t-47.5 250.5q0 155 47.5 250t145.5 95t146 -95t48 -250t-48 -250t-146 -95zM229 81q87 0 87 252t-87 252q-86 0 -86 -252t86 -252zM232 -188q-22 0 -38 16t-16 38t16 38t38 16t38 -16t16 -38t-16 -38t-38 -16z" />
    <glyph glyph-name="uni1ECD" unicode="&#x1ecd;" 
d="M201 -12q-85 0 -127.5 72.5t-42.5 181.5t42.5 181t127.5 72t127 -72t42 -181t-42 -181.5t-127 -72.5zM201 71q72 0 72 171q0 170 -72 170t-72 -170q0 -171 72 -171zM201 -188q-22 0 -38 16t-16 38t16 38t38 16q23 0 38.5 -16t15.5 -38t-15.5 -38t-38.5 -16z" />
    <glyph glyph-name="uni1ECE" unicode="&#x1ece;" horiz-adv-x="459" 
d="M229 -12q-98 0 -145.5 94.5t-47.5 250.5q0 155 47.5 250t145.5 95t146 -95t48 -250t-48 -250t-146 -95zM229 81q87 0 87 252t-87 252q-86 0 -86 -252t86 -252zM208 762l-38 7q12 51 62 51q27 0 42.5 -16t15.5 -48q0 -31 -18 -59h-40q20 27 20 57t-21 30q-17 0 -23 -22z
" />
    <glyph glyph-name="uni1ECF" unicode="&#x1ecf;" 
d="M201 -12q-85 0 -127.5 72.5t-42.5 181.5t42.5 181t127.5 72t127 -72t42 -181t-42 -181.5t-127 -72.5zM201 71q72 0 72 171q0 170 -72 170t-72 -170q0 -171 72 -171zM179 592l-38 7q12 51 62 51q27 0 42.5 -16t15.5 -48q0 -31 -18 -59h-40q20 27 20 57t-21 30
q-17 0 -23 -22z" />
    <glyph glyph-name="uni1ED0" unicode="&#x1ed0;" horiz-adv-x="459" 
d="M336 682h-53l-57 73l-53 -73h-54l64 108h87zM477 843l-103 -108h-61l79 108h85zM229 -12q-98 0 -145.5 94.5t-47.5 250.5q0 155 47.5 250t145.5 95t146 -95t48 -250t-48 -250t-146 -95zM229 81q87 0 87 252t-87 252q-86 0 -86 -252t86 -252z" />
    <glyph glyph-name="uni1ED1" unicode="&#x1ed1;" 
d="M310 556h-53l-57 98l-53 -98h-54l64 144h87zM448 771l-103 -144h-61l79 144h85zM201 -12q-85 0 -127.5 72.5t-42.5 181.5t42.5 181t127.5 72t127 -72t42 -181t-42 -181.5t-127 -72.5zM201 71q72 0 72 171q0 170 -72 170t-72 -170q0 -171 72 -171z" />
    <glyph glyph-name="uni1ED2" unicode="&#x1ed2;" horiz-adv-x="459" 
d="M334 682h-53l-57 73l-53 -73h-54l64 108h87zM229 -12q-98 0 -145.5 94.5t-47.5 250.5q0 155 47.5 250t145.5 95t146 -95t48 -250t-48 -250t-146 -95zM229 81q87 0 87 252t-87 252q-86 0 -86 -252t86 -252zM140 735h-61l-103 108h85z" />
    <glyph glyph-name="uni1ED3" unicode="&#x1ed3;" 
d="M310 556h-53l-57 98l-53 -98h-54l64 144h87zM201 -12q-85 0 -127.5 72.5t-42.5 181.5t42.5 181t127.5 72t127 -72t42 -181t-42 -181.5t-127 -72.5zM201 71q72 0 72 171q0 170 -72 170t-72 -170q0 -171 72 -171zM115 627h-61l-103 144h85z" />
    <glyph glyph-name="uni1ED4" unicode="&#x1ed4;" horiz-adv-x="459" 
d="M334 682h-53l-57 73l-53 -73h-54l64 108h87zM229 -12q-98 0 -145.5 94.5t-47.5 250.5q0 155 47.5 250t145.5 95t146 -95t48 -250t-48 -250t-146 -95zM229 81q87 0 87 252t-87 252q-86 0 -86 -252t86 -252zM321 792l-38 5q12 38 62 38q58 0 58 -48q0 -23 -18 -44h-40
q20 20 20 43q0 22 -21 22q-17 0 -23 -16z" />
    <glyph glyph-name="uni1ED5" unicode="&#x1ed5;" 
d="M310 556h-53l-57 98l-53 -98h-54l64 144h87zM201 -12q-85 0 -127.5 72.5t-42.5 181.5t42.5 181t127.5 72t127 -72t42 -181t-42 -181.5t-127 -72.5zM201 71q72 0 72 171q0 170 -72 170t-72 -170q0 -171 72 -171zM257 732l-38 7q12 51 62 51q27 0 42.5 -16t15.5 -48
q0 -31 -18 -59h-40q20 27 20 57t-21 30q-17 0 -23 -22z" />
    <glyph glyph-name="uni1ED6" unicode="&#x1ed6;" horiz-adv-x="459" 
d="M337 678h-53l-57 49l-53 -49h-54l64 72h87zM229 -12q-98 0 -145.5 94.5t-47.5 250.5q0 155 47.5 250t145.5 95t146 -95t48 -250t-48 -250t-146 -95zM229 81q87 0 87 252t-87 252q-86 0 -86 -252t86 -252zM269 757q-30 0 -53 20.5t-33 20.5q-27 0 -27 -38h-50
q0 30 21 48.5t59 18.5q30 0 53.5 -21t33.5 -21q26 0 26 39h50q0 -30 -20.5 -48.5t-59.5 -18.5z" />
    <glyph glyph-name="uni1ED7" unicode="&#x1ed7;" 
d="M310 523h-53l-57 98l-53 -98h-54l64 144h87zM201 -12q-85 0 -127.5 72.5t-42.5 181.5t42.5 181t127.5 72t127 -72t42 -181t-42 -181.5t-127 -72.5zM201 71q72 0 72 171q0 170 -72 170t-72 -170q0 -171 72 -171zM243 682q-18 0 -32 13t-21 28.5t-16 28.5t-17 13
q-27 0 -27 -77h-50q0 59 21 96.5t59 37.5q18 0 32.5 -13t21.5 -28.5t15.5 -28.5t17.5 -13q26 0 26 77h50q0 -60 -20.5 -97t-59.5 -37z" />
    <glyph glyph-name="uni1ED8" unicode="&#x1ed8;" horiz-adv-x="459" 
d="M339 723h-53l-57 98l-53 -98h-54l64 144h87zM229 -12q-98 0 -145.5 94.5t-47.5 250.5q0 155 47.5 250t145.5 95t146 -95t48 -250t-48 -250t-146 -95zM229 81q87 0 87 252t-87 252q-86 0 -86 -252t86 -252zM232 -188q-22 0 -38 16t-16 38t16 38t38 16t38 -16t16 -38
t-16 -38t-38 -16z" />
    <glyph glyph-name="uni1ED9" unicode="&#x1ed9;" 
d="M310 556h-53l-57 98l-53 -98h-54l64 144h87zM201 -12q-85 0 -127.5 72.5t-42.5 181.5t42.5 181t127.5 72t127 -72t42 -181t-42 -181.5t-127 -72.5zM201 71q72 0 72 171q0 170 -72 170t-72 -170q0 -171 72 -171zM200 -188q-22 0 -38 16t-16 38t16 38t38 16t38 -16t16 -38
t-16 -38t-38 -16z" />
    <glyph glyph-name="uni1EDA" unicode="&#x1eda;" horiz-adv-x="459" 
d="M352 867l-103 -144h-61l79 144h85zM229 -12q-98 0 -145.5 94.5t-47.5 250.5q0 155 47.5 250t145.5 95t148 -100q31 32 35 63q-2 -2 -11 -2q-19 0 -31 12.5t-12 32.5t14 34t34 14q23 0 38.5 -18.5t15.5 -48.5q0 -77 -66 -127q29 -83 29 -205q0 -155 -48 -250t-146 -95z
M229 81q87 0 87 252t-87 252q-86 0 -86 -252t86 -252z" />
    <glyph glyph-name="uni1EDB" unicode="&#x1edb;" 
d="M324 700l-103 -144h-61l79 144h85zM391 531q0 -68 -57 -120q36 -66 36 -169q0 -109 -42 -181.5t-127 -72.5t-127.5 72.5t-42.5 181.5t42.5 181t127.5 72q67 0 109 -49q28 30 33 61q-2 -2 -11 -2q-19 0 -31 12.5t-12 32.5t14 34t34 14q23 0 38.5 -18.5t15.5 -48.5zM201 71
q72 0 72 171q0 170 -72 170t-72 -170q0 -171 72 -171z" />
    <glyph glyph-name="uni1EDC" unicode="&#x1edc;" horiz-adv-x="459" 
d="M229 -12q-98 0 -145.5 94.5t-47.5 250.5q0 155 47.5 250t145.5 95t148 -100q31 32 35 63q-2 -2 -11 -2q-19 0 -31 12.5t-12 32.5t14 34t34 14q23 0 38.5 -18.5t15.5 -48.5q0 -77 -66 -127q29 -83 29 -205q0 -155 -48 -250t-146 -95zM229 81q87 0 87 252t-87 252
q-86 0 -86 -252t86 -252zM270 723h-61l-103 144h85z" />
    <glyph glyph-name="uni1EDD" unicode="&#x1edd;" 
d="M391 531q0 -68 -57 -120q36 -66 36 -169q0 -109 -42 -181.5t-127 -72.5t-127.5 72.5t-42.5 181.5t42.5 181t127.5 72q67 0 109 -49q28 30 33 61q-2 -2 -11 -2q-19 0 -31 12.5t-12 32.5t14 34t34 14q23 0 38.5 -18.5t15.5 -48.5zM201 71q72 0 72 171q0 170 -72 170
t-72 -170q0 -171 72 -171zM242 556h-61l-103 144h85z" />
    <glyph glyph-name="uni1EDE" unicode="&#x1ede;" horiz-adv-x="459" 
d="M229 -12q-98 0 -145.5 94.5t-47.5 250.5q0 155 47.5 250t145.5 95t148 -100q31 32 35 63q-2 -2 -11 -2q-19 0 -31 12.5t-12 32.5t14 34t34 14q23 0 38.5 -18.5t15.5 -48.5q0 -77 -66 -127q29 -83 29 -205q0 -155 -48 -250t-146 -95zM229 81q87 0 87 252t-87 252
q-86 0 -86 -252t86 -252zM207 762l-38 7q12 51 62 51q27 0 42.5 -16t15.5 -48q0 -31 -18 -59h-40q20 27 20 57t-21 30q-17 0 -23 -22z" />
    <glyph glyph-name="uni1EDF" unicode="&#x1edf;" 
d="M391 531q0 -68 -57 -120q36 -66 36 -169q0 -109 -42 -181.5t-127 -72.5t-127.5 72.5t-42.5 181.5t42.5 181t127.5 72q67 0 109 -49q28 30 33 61q-2 -2 -11 -2q-19 0 -31 12.5t-12 32.5t14 34t34 14q23 0 38.5 -18.5t15.5 -48.5zM201 71q72 0 72 171q0 170 -72 170
t-72 -170q0 -171 72 -171zM179 592l-38 7q12 51 62 51q27 0 42.5 -16t15.5 -48q0 -31 -18 -59h-40q20 27 20 57t-21 30q-17 0 -23 -22z" />
    <glyph glyph-name="uni1EE0" unicode="&#x1ee0;" horiz-adv-x="459" 
d="M229 -12q-98 0 -145.5 94.5t-47.5 250.5q0 155 47.5 250t145.5 95t148 -100q31 32 35 63q-2 -2 -11 -2q-19 0 -31 12.5t-12 32.5t14 34t34 14q23 0 38.5 -18.5t15.5 -48.5q0 -77 -66 -127q29 -83 29 -205q0 -155 -48 -250t-146 -95zM229 81q87 0 87 252t-87 252
q-86 0 -86 -252t86 -252zM272 721q-18 0 -32 13t-21 28.5t-16 28.5t-17 13q-27 0 -27 -77h-50q0 59 21 96.5t59 37.5q18 0 32.5 -13t21.5 -28.5t15.5 -28.5t17.5 -13q26 0 26 77h50q0 -60 -20.5 -97t-59.5 -37z" />
    <glyph glyph-name="uni1EE1" unicode="&#x1ee1;" 
d="M391 531q0 -68 -57 -120q36 -66 36 -169q0 -109 -42 -181.5t-127 -72.5t-127.5 72.5t-42.5 181.5t42.5 181t127.5 72q67 0 109 -49q28 30 33 61q-2 -2 -11 -2q-19 0 -31 12.5t-12 32.5t14 34t34 14q23 0 38.5 -18.5t15.5 -48.5zM201 71q72 0 72 171q0 170 -72 170
t-72 -170q0 -171 72 -171zM227 554q-18 0 -32 13t-21 28.5t-16 28.5t-17 13q-27 0 -27 -77h-50q0 59 21 96.5t59 37.5q18 0 32.5 -13t21.5 -28.5t15.5 -28.5t17.5 -13q26 0 26 77h50q0 -60 -20.5 -97t-59.5 -37z" />
    <glyph glyph-name="uni1EE2" unicode="&#x1ee2;" horiz-adv-x="459" 
d="M229 -12q-98 0 -145.5 94.5t-47.5 250.5q0 155 47.5 250t145.5 95t148 -100q31 32 35 63q-2 -2 -11 -2q-19 0 -31 12.5t-12 32.5t14 34t34 14q23 0 38.5 -18.5t15.5 -48.5q0 -77 -66 -127q29 -83 29 -205q0 -155 -48 -250t-146 -95zM229 81q87 0 87 252t-87 252
q-86 0 -86 -252t86 -252zM232 -188q-22 0 -38 16t-16 38t16 38t38 16t38 -16t16 -38t-16 -38t-38 -16z" />
    <glyph glyph-name="uni1EE3" unicode="&#x1ee3;" 
d="M391 531q0 -68 -57 -120q36 -66 36 -169q0 -109 -42 -181.5t-127 -72.5t-127.5 72.5t-42.5 181.5t42.5 181t127.5 72q67 0 109 -49q28 30 33 61q-2 -2 -11 -2q-19 0 -31 12.5t-12 32.5t14 34t34 14q23 0 38.5 -18.5t15.5 -48.5zM201 71q72 0 72 171q0 170 -72 170
t-72 -170q0 -171 72 -171zM202 -188q-22 0 -38 16t-16 38t16 38t38 16t38 -16t16 -38t-16 -38t-38 -16z" />
    <glyph glyph-name="uni1EE4" unicode="&#x1ee4;" horiz-adv-x="464" 
d="M232 -12q-76 0 -125.5 49.5t-49.5 146.5v483h104v-488q0 -99 71 -99t71 99v488h104v-483q0 -97 -49.5 -146.5t-125.5 -49.5zM234 -188q-22 0 -38 16t-16 38t16 38t38 16t38 -16t16 -38t-16 -38t-38 -16z" />
    <glyph glyph-name="uni1EE5" unicode="&#x1ee5;" 
d="M352 0h-94v63q-16 -31 -46.5 -53t-64.5 -22q-97 0 -97 107v388h94v-357q0 -55 41 -55q23 0 43 20t30 48v344h94v-483zM201 -188q-22 0 -38 16t-16 38t16 38t38 16q23 0 38.5 -16t15.5 -38t-15.5 -38t-38.5 -16z" />
    <glyph glyph-name="uni1EE6" unicode="&#x1ee6;" horiz-adv-x="464" 
d="M232 -12q-76 0 -125.5 49.5t-49.5 146.5v483h104v-488q0 -99 71 -99t71 99v488h104v-483q0 -97 -49.5 -146.5t-125.5 -49.5zM209 762l-38 7q12 51 62 51q27 0 42.5 -16t15.5 -48q0 -31 -18 -59h-40q20 27 20 57t-21 30q-17 0 -23 -22z" />
    <glyph glyph-name="uni1EE7" unicode="&#x1ee7;" 
d="M352 0h-94v63q-16 -31 -46.5 -53t-64.5 -22q-97 0 -97 107v388h94v-357q0 -55 41 -55q23 0 43 20t30 48v344h94v-483zM179 592l-38 7q12 51 62 51q27 0 42.5 -16t15.5 -48q0 -31 -18 -59h-40q20 27 20 57t-21 30q-17 0 -23 -22z" />
    <glyph glyph-name="uni1EE8" unicode="&#x1ee8;" horiz-adv-x="464" 
d="M355 867l-103 -144h-61l79 144h85zM501 728q0 -42 -24 -81.5t-70 -65.5v-397q0 -97 -49.5 -146.5t-125.5 -49.5t-125.5 49.5t-49.5 146.5v483h104v-488q0 -99 71 -99t71 99v488h104v-38q40 33 47 75q-4 -2 -12 -2q-18 0 -30 13t-12 32q0 20 13.5 33.5t33.5 13.5
q23 0 38.5 -18t15.5 -48z" />
    <glyph glyph-name="uni1EE9" unicode="&#x1ee9;" 
d="M324 700l-103 -144h-61l79 144h85zM352 0h-94v63q-16 -31 -46.5 -53t-64.5 -22q-97 0 -97 107v388h94v-357q0 -55 41 -55q23 0 43 20t30 48v344h94v-15q19 28 22 47l-4 -1h-7q-18 0 -30.5 12.5t-12.5 31.5q0 20 14 34t34 14q23 0 38.5 -18t15.5 -48q0 -77 -70 -131v-409z
" />
    <glyph glyph-name="uni1EEA" unicode="&#x1eea;" horiz-adv-x="464" 
d="M273 723h-61l-103 144h85zM501 728q0 -42 -24 -81.5t-70 -65.5v-397q0 -97 -49.5 -146.5t-125.5 -49.5t-125.5 49.5t-49.5 146.5v483h104v-488q0 -99 71 -99t71 99v488h104v-38q40 33 47 75q-4 -2 -12 -2q-18 0 -30 13t-12 32q0 20 13.5 33.5t33.5 13.5q23 0 38.5 -18
t15.5 -48z" />
    <glyph glyph-name="uni1EEB" unicode="&#x1eeb;" 
d="M242 556h-61l-103 144h85zM352 0h-94v63q-16 -31 -46.5 -53t-64.5 -22q-97 0 -97 107v388h94v-357q0 -55 41 -55q23 0 43 20t30 48v344h94v-15q19 28 22 47l-4 -1h-7q-18 0 -30.5 12.5t-12.5 31.5q0 20 14 34t34 14q23 0 38.5 -18t15.5 -48q0 -77 -70 -131v-409z" />
    <glyph glyph-name="uni1EEC" unicode="&#x1eec;" horiz-adv-x="464" 
d="M209 762l-38 7q12 51 62 51q27 0 42.5 -16t15.5 -48q0 -31 -18 -59h-40q20 27 20 57t-21 30q-17 0 -23 -22zM501 728q0 -42 -24 -81.5t-70 -65.5v-397q0 -97 -49.5 -146.5t-125.5 -49.5t-125.5 49.5t-49.5 146.5v483h104v-488q0 -99 71 -99t71 99v488h104v-38
q40 33 47 75q-4 -2 -12 -2q-18 0 -30 13t-12 32q0 20 13.5 33.5t33.5 13.5q23 0 38.5 -18t15.5 -48z" />
    <glyph glyph-name="uni1EED" unicode="&#x1eed;" 
d="M179 592l-38 7q12 51 62 51q27 0 42.5 -16t15.5 -48q0 -31 -18 -59h-40q20 27 20 57t-21 30q-17 0 -23 -22zM352 0h-94v63q-16 -31 -46.5 -53t-64.5 -22q-97 0 -97 107v388h94v-357q0 -55 41 -55q23 0 43 20t30 48v344h94v-15q19 28 22 47l-4 -1h-7q-18 0 -30.5 12.5
t-12.5 31.5q0 20 14 34t34 14q23 0 38.5 -18t15.5 -48q0 -77 -70 -131v-409z" />
    <glyph glyph-name="uni1EEE" unicode="&#x1eee;" horiz-adv-x="464" 
d="M501 728q0 -42 -24 -81.5t-70 -65.5v-397q0 -97 -49.5 -146.5t-125.5 -49.5t-125.5 49.5t-49.5 146.5v483h104v-488q0 -99 71 -99t71 99v488h104v-38q40 33 47 75q-4 -2 -12 -2q-18 0 -30 13t-12 32q0 20 13.5 33.5t33.5 13.5q23 0 38.5 -18t15.5 -48zM273 721
q-18 0 -32 13t-21 28.5t-16 28.5t-17 13q-27 0 -27 -77h-50q0 59 21 96.5t59 37.5q18 0 32.5 -13t21.5 -28.5t15.5 -28.5t17.5 -13q26 0 26 77h50q0 -60 -20.5 -97t-59.5 -37z" />
    <glyph glyph-name="uni1EEF" unicode="&#x1eef;" 
d="M352 0h-94v63q-16 -31 -46.5 -53t-64.5 -22q-97 0 -97 107v388h94v-357q0 -55 41 -55q23 0 43 20t30 48v344h94v-15q19 28 22 47l-4 -1h-7q-18 0 -30.5 12.5t-12.5 31.5q0 20 14 34t34 14q23 0 38.5 -18t15.5 -48q0 -77 -70 -131v-409zM243 554q-18 0 -32 13t-21 28.5
t-16 28.5t-17 13q-27 0 -27 -77h-50q0 59 21 96.5t59 37.5q18 0 32.5 -13t21.5 -28.5t15.5 -28.5t17.5 -13q26 0 26 77h50q0 -60 -20.5 -97t-59.5 -37z" />
    <glyph glyph-name="uni1EF0" unicode="&#x1ef0;" horiz-adv-x="464" 
d="M234 -188q-22 0 -38 16t-16 38t16 38t38 16t38 -16t16 -38t-16 -38t-38 -16zM501 728q0 -42 -24 -81.5t-70 -65.5v-397q0 -97 -49.5 -146.5t-125.5 -49.5t-125.5 49.5t-49.5 146.5v483h104v-488q0 -99 71 -99t71 99v488h104v-38q40 33 47 75q-4 -2 -12 -2q-18 0 -30 13
t-12 32q0 20 13.5 33.5t33.5 13.5q23 0 38.5 -18t15.5 -48z" />
    <glyph glyph-name="uni1EF1" unicode="&#x1ef1;" 
d="M201 -188q-22 0 -38 16t-16 38t16 38t38 16q23 0 38.5 -16t15.5 -38t-15.5 -38t-38.5 -16zM352 0h-94v63q-16 -31 -46.5 -53t-64.5 -22q-97 0 -97 107v388h94v-357q0 -55 41 -55q23 0 43 20t30 48v344h94v-15q19 28 22 47l-4 -1h-7q-18 0 -30.5 12.5t-12.5 31.5
q0 20 14 34t34 14q23 0 38.5 -18t15.5 -48q0 -77 -70 -131v-409z" />
    <glyph glyph-name="Ygrave" unicode="&#x1ef2;" horiz-adv-x="405" 
d="M255 0h-104v279l-154 388h112l94 -285l95 285h110l-153 -388v-279zM244 723h-61l-103 144h85z" />
    <glyph glyph-name="ygrave" unicode="&#x1ef3;" horiz-adv-x="357" 
d="M37 -189l14 82q11 -6 23 -6q30 0 41 39l16 61l-126 496h100l73 -364l75 364h99l-148 -577q-16 -58 -43 -80t-75 -22q-32 0 -49 7zM219 556h-61l-103 144h85z" />
    <glyph glyph-name="thinspace" unicode="&#x2009;" horiz-adv-x="33" 
 />
    <glyph glyph-name="endash" unicode="&#x2013;" horiz-adv-x="460" 
d="M430 201h-400v81h400v-81z" />
    <glyph glyph-name="emdash" unicode="&#x2014;" horiz-adv-x="640" 
d="M610 201h-580v81h580v-81z" />
    <glyph glyph-name="afii00208" unicode="&#x2015;" horiz-adv-x="460" 
d="M430 201h-400v81h400v-81z" />
    <glyph glyph-name="quoteleft" unicode="&#x2018;" horiz-adv-x="241" 
d="M51 515q0 48 24.5 91t64.5 71l44 -35q-25 -15 -45.5 -42t-24.5 -52q9 3 16 3q23 0 39 -17t16 -42q0 -26 -18.5 -44.5t-44.5 -18.5q-30 0 -50.5 23t-20.5 63z" />
    <glyph glyph-name="quoteright" unicode="&#x2019;" horiz-adv-x="241" 
d="M189 591q0 -48 -24.5 -91t-64.5 -71l-43 35q25 15 45 42t24 52q-6 -3 -15 -3q-24 0 -40 17t-16 42q0 26 18.5 44.5t44.5 18.5q30 0 50.5 -23t20.5 -63z" />
    <glyph glyph-name="quotesinglbase" unicode="&#x201a;" horiz-adv-x="239" 
d="M189 32q0 -48 -24.5 -91t-64.5 -71l-43 35q25 15 45 42t24 52q-4 -2 -15 -2q-24 0 -40 16.5t-16 41.5q0 26 18.5 44.5t44.5 18.5q30 0 50.5 -23t20.5 -63z" />
    <glyph glyph-name="quotereversed" unicode="&#x201b;" horiz-adv-x="241" 
d="M52 591q0 40 20.5 63t50.5 23q26 0 44 -18.5t18 -44.5q0 -25 -16 -42t-39 -17q-9 0 -15 3q4 -25 24 -52t45 -42l-44 -35q-40 28 -64 71t-24 91z" />
    <glyph glyph-name="quotedblleft" unicode="&#x201c;" horiz-adv-x="416" 
d="M52 515q0 48 24 91t64 71l44 -35q-25 -15 -45 -42t-24 -52q6 3 15 3q23 0 39 -17t16 -42q0 -26 -18 -44.5t-44 -18.5q-30 0 -50.5 23t-20.5 63zM227 515q0 48 24.5 91t64.5 71l44 -35q-25 -16 -45 -42.5t-24 -51.5q6 3 15 3q23 0 39 -17t16 -42q0 -26 -18.5 -44.5
t-43.5 -18.5q-30 0 -51 23t-21 63z" />
    <glyph glyph-name="quotedblright" unicode="&#x201d;" horiz-adv-x="416" 
d="M365 591q0 -48 -24.5 -91t-64.5 -71l-44 35q25 16 45 42.5t24 51.5q-6 -3 -15 -3q-23 0 -39 17t-16 42q0 26 18.5 44.5t44.5 18.5q30 0 50.5 -23t20.5 -63zM189 591q0 -48 -24.5 -91t-64.5 -71l-43 35q25 15 45 42t24 52q-6 -3 -15 -3q-24 0 -40 17t-16 42
q0 26 18.5 44.5t44.5 18.5q30 0 50.5 -23t20.5 -63z" />
    <glyph glyph-name="quotedblbase" unicode="&#x201e;" horiz-adv-x="415" 
d="M189 32q0 -48 -24.5 -91t-64.5 -71l-43 35q25 15 45 42t24 52q-4 -2 -15 -2q-24 0 -40 16.5t-16 41.5q0 26 18.5 44.5t44.5 18.5q30 0 50.5 -23t20.5 -63zM365 32q0 -48 -24.5 -91t-64.5 -71l-44 35q25 16 45 42.5t24 51.5q-4 -2 -15 -2q-23 0 -39 16.5t-16 41.5
q0 26 18.5 44.5t44.5 18.5q30 0 50.5 -23t20.5 -63z" />
    <glyph glyph-name="dagger" unicode="&#x2020;" horiz-adv-x="268" 
d="M246 528l-89 4l4 -205h-55l5 205l-89 -4v50l89 -3l-5 102h55l-4 -102l89 3v-50z" />
    <glyph glyph-name="daggerdbl" unicode="&#x2021;" horiz-adv-x="268" 
d="M246 578v-50l-89 4v-206l89 4v-50l-89 3l4 -103h-55l4 103l-88 -3v50l88 -4v206l-88 -4v50l88 -3l-4 102h55l-4 -102z" />
    <glyph glyph-name="bullet" unicode="&#x2022;" horiz-adv-x="358" 
d="M292 242q0 -46 -33 -78.5t-79 -32.5t-79 32.5t-33 78.5t33 79t79 33t79 -33t33 -79z" />
    <glyph glyph-name="ellipsis" unicode="&#x2026;" horiz-adv-x="717" 
d="M184 54q0 -26 -19 -45.5t-46 -19.5q-26 0 -45 19.5t-19 45.5t19 45t45 19q27 0 46 -19t19 -45zM423 54q0 -26 -19 -45.5t-46 -19.5q-26 0 -45 19.5t-19 45.5t19 45t45 19q27 0 46 -19t19 -45zM662 54q0 -26 -19 -45.5t-46 -19.5q-26 0 -45 19.5t-19 45.5t19 45t45 19
q27 0 46 -19t19 -45z" />
    <glyph glyph-name="perthousand" unicode="&#x2030;" horiz-adv-x="855" 
d="M276 511q0 -71 -34.5 -117.5t-91.5 -46.5t-91.5 46.5t-34.5 117.5q0 72 34.5 119t91.5 47t91.5 -47t34.5 -119zM452 667l-277 -667h-46l276 667h47zM556 152q0 -71 -34.5 -117.5t-91.5 -46.5t-91.5 46.5t-34.5 117.5q0 72 34.5 119t91.5 47t91.5 -47t34.5 -119zM210 511
q0 47 -16 76t-44 29t-44 -29t-16 -76q0 -46 16 -75t44 -29t44 29t16 75zM490 152q0 47 -16 76t-44 29t-44 -29t-16 -76q0 -46 16 -74.5t44 -28.5t44 28.5t16 74.5zM831 152q0 -71 -34.5 -117.5t-91.5 -46.5t-91 46.5t-34 117.5q0 72 34 119t91 47t91.5 -47t34.5 -119z
M765 152q0 47 -16 76t-44 29t-44 -29t-16 -76q0 -46 16 -74.5t44 -28.5t44 28.5t16 74.5z" />
    <glyph glyph-name="guilsinglleft" unicode="&#x2039;" horiz-adv-x="225" 
d="M195 63h-75l-90 180l90 177h75l-90 -177z" />
    <glyph glyph-name="guilsinglright" unicode="&#x203a;" horiz-adv-x="225" 
d="M195 243l-90 -180h-75l90 180l-90 177h75z" />
    <glyph glyph-name="uni203E" unicode="&#x203e;" horiz-adv-x="254" 
d="M254 568h-254v57h254v-57z" />
    <glyph glyph-name="fraction" unicode="&#x2044;" horiz-adv-x="125" 
d="M224 667l-277 -667h-46l276 667h47z" />
    <glyph glyph-name="zerosuperior" unicode="&#x2070;" horiz-adv-x="281" 
d="M266 621q0 -85 -31.5 -146t-93.5 -61q-63 0 -94.5 61t-31.5 146t31.5 145.5t94.5 60.5q62 0 93.5 -60.5t31.5 -145.5zM191 621q0 147 -50 147q-51 0 -51 -147q0 -148 51 -148q50 0 50 148z" />
    <glyph glyph-name="foursuperior" unicode="&#x2074;" horiz-adv-x="281" 
d="M267 516h-35v-95h-72v95h-145v58l129 247h88v-247h35v-58zM160 574v166l-83 -166h83z" />
    <glyph glyph-name="fivesuperior" unicode="&#x2075;" horiz-adv-x="281" 
d="M261 549q0 -59 -34 -97t-91 -38q-79 0 -119 65l47 43q27 -49 69 -49q25 0 39.5 22t14.5 53q0 74 -50 74q-31 0 -56 -39l-53 18v220h213v-59h-141v-119q23 33 65 33q41 0 68.5 -33.5t27.5 -93.5z" />
    <glyph glyph-name="sixsuperior" unicode="&#x2076;" horiz-adv-x="281" 
d="M262 548q0 -58 -31.5 -96t-83.5 -38q-67 0 -98 58t-31 149t36.5 148.5t103.5 57.5q60 0 92 -45l-37 -49q-20 35 -53 35t-50.5 -38.5t-17.5 -93.5v-10q23 54 76 54q40 0 67 -35t27 -97zM189 546q0 76 -47 76q-29 0 -51 -48q4 -101 51 -101q23 0 35 22t12 51z" />
    <glyph glyph-name="sevensuperior" unicode="&#x2077;" horiz-adv-x="255" 
d="M241 771l-111 -350h-70l112 341h-157v59h226v-50z" />
    <glyph glyph-name="eightsuperior" unicode="&#x2078;" horiz-adv-x="281" 
d="M261 522q0 -51 -32.5 -79.5t-88.5 -28.5q-57 0 -89.5 28.5t-32.5 79.5q0 35 22 64.5t51 40.5q-28 11 -47.5 36.5t-19.5 60.5q0 51 34 77t82 26t82 -26t34 -77q0 -35 -19.5 -60.5t-47.5 -36.5q29 -11 50.5 -40.5t21.5 -64.5zM185 714q0 56 -45 56q-44 0 -44 -56
q0 -19 10 -34t18.5 -20.5t15.5 -8.5q7 2 16 8t19 21t10 34zM189 529q0 30 -18 49.5t-31 22.5q-13 -3 -30.5 -22.5t-17.5 -50.5q0 -28 13.5 -43t34.5 -15t35 15t14 44z" />
    <glyph glyph-name="ninesuperior" unicode="&#x2079;" horiz-adv-x="281" 
d="M19 692q0 58 32 96.5t84 38.5q67 0 98 -58t31 -149q0 -92 -36.5 -149t-104.5 -57q-59 0 -91 45l37 49q18 -35 53 -35q32 0 50 39t18 94v9q-23 -54 -77 -54q-40 0 -67 35t-27 96zM93 695q0 -40 13 -58t33 -18q31 0 51 49q-2 100 -51 100q-23 0 -34.5 -21.5t-11.5 -51.5z
" />
    <glyph glyph-name="parenleftsuperior" unicode="&#x207d;" horiz-adv-x="149" 
d="M135 373l-38 -17q-69 121 -69 265t69 265l38 -16q-48 -115 -48 -249q0 -136 48 -248z" />
    <glyph glyph-name="parenrightsuperior" unicode="&#x207e;" horiz-adv-x="149" 
d="M121 621q0 -144 -69 -265l-39 17q49 116 49 248t-49 249l39 16q69 -121 69 -265z" />
    <glyph glyph-name="nsuperior" unicode="&#x207f;" horiz-adv-x="301" 
d="M260 326h-70v224q0 39 -30 39q-31 0 -49 -43v-220h-70v314h70v-41q11 19 33 34t45 15q71 0 71 -78v-244z" />
    <glyph glyph-name="zeroinferior" unicode="&#x2080;" horiz-adv-x="281" 
d="M266 54q0 -85 -31.5 -146t-93.5 -61q-63 0 -94.5 61t-31.5 146t31.5 145.5t94.5 60.5q62 0 93.5 -60.5t31.5 -145.5zM191 54q0 147 -50 147q-51 0 -51 -147q0 -148 51 -148q50 0 50 148z" />
    <glyph glyph-name="oneinferior" unicode="&#x2081;" horiz-adv-x="232" 
d="M184 -146h-73v306l-58 -60l-42 43l110 111h63v-400z" />
    <glyph glyph-name="twoinferior" unicode="&#x2082;" horiz-adv-x="281" 
d="M261 -146h-232v54q102 120 130 162t28 77q0 24 -14 39t-37 15q-44 0 -71 -49l-45 42q44 66 120 66q54 0 86.5 -29.5t32.5 -81.5q0 -42 -28 -88t-111 -148h141v-59z" />
    <glyph glyph-name="threeinferior" unicode="&#x2083;" horiz-adv-x="281" 
d="M262 -36q0 -53 -33 -85t-90 -32q-83 0 -122 65l48 43q27 -49 71 -49q54 0 54 62q0 33 -17 47.5t-41 14.5q-22 0 -28 -1v59q5 -1 25 -1q56 0 56 56q0 58 -50 58q-42 0 -68 -45l-46 40q41 64 118 64q53 0 85 -27.5t32 -80.5q0 -32 -19.5 -58.5t-47.5 -32.5
q30 -5 51.5 -32.5t21.5 -64.5z" />
    <glyph glyph-name="fourinferior" unicode="&#x2084;" horiz-adv-x="281" 
d="M267 -51h-35v-95h-72v95h-145v58l129 247h88v-247h35v-58zM160 7v166l-83 -166h83z" />
    <glyph glyph-name="fiveinferior" unicode="&#x2085;" horiz-adv-x="281" 
d="M261 -18q0 -59 -34 -97t-91 -38q-79 0 -119 65l47 43q27 -49 69 -49q25 0 39.5 22t14.5 53q0 74 -50 74q-31 0 -56 -39l-53 18v220h213v-59h-141v-119q23 33 65 33q41 0 68.5 -33.5t27.5 -93.5z" />
    <glyph glyph-name="sixinferior" unicode="&#x2086;" horiz-adv-x="281" 
d="M262 -19q0 -58 -31.5 -96t-83.5 -38q-67 0 -98 58t-31 149t36.5 148.5t103.5 57.5q60 0 92 -45l-37 -49q-20 35 -53 35t-50.5 -38.5t-17.5 -93.5v-10q23 54 76 54q40 0 67 -35t27 -97zM189 -21q0 76 -47 76q-29 0 -51 -48q4 -101 51 -101q23 0 35 22t12 51z" />
    <glyph glyph-name="seveninferior" unicode="&#x2087;" horiz-adv-x="255" 
d="M241 204l-111 -350h-70l112 341h-157v59h226v-50z" />
    <glyph glyph-name="eightinferior" unicode="&#x2088;" horiz-adv-x="281" 
d="M261 -45q0 -51 -32.5 -79.5t-88.5 -28.5q-57 0 -89.5 28.5t-32.5 79.5q0 35 22 64.5t51 40.5q-28 11 -47.5 36.5t-19.5 60.5q0 51 34 77t82 26t82 -26t34 -77q0 -35 -19.5 -60.5t-47.5 -36.5q29 -11 50.5 -40.5t21.5 -64.5zM185 147q0 56 -45 56q-44 0 -44 -56
q0 -19 10 -34t18.5 -20.5t15.5 -8.5q7 2 16 8t19 21t10 34zM189 -38q0 30 -18 49.5t-31 22.5q-13 -3 -30.5 -22.5t-17.5 -50.5q0 -28 13.5 -43t34.5 -15t35 15t14 44z" />
    <glyph glyph-name="nineinferior" unicode="&#x2089;" horiz-adv-x="281" 
d="M19 125q0 58 32 96.5t84 38.5q67 0 98 -58t31 -149q0 -92 -36.5 -149t-104.5 -57q-59 0 -91 45l37 49q18 -35 53 -35q32 0 50 39t18 94v9q-23 -54 -77 -54q-40 0 -67 35t-27 96zM93 128q0 -40 13 -58t33 -18q31 0 51 49q-2 100 -51 100q-23 0 -34.5 -21.5t-11.5 -51.5z
" />
    <glyph glyph-name="parenleftinferior" unicode="&#x208d;" horiz-adv-x="149" 
d="M135 -194l-38 -17q-69 121 -69 265t69 265l38 -16q-48 -115 -48 -249q0 -136 48 -248z" />
    <glyph glyph-name="parenrightinferior" unicode="&#x208e;" horiz-adv-x="149" 
d="M121 54q0 -144 -69 -265l-39 17q49 116 49 248t-49 249l39 16q69 -121 69 -265z" />
    <glyph glyph-name="colonmonetary" unicode="&#x20a1;" horiz-adv-x="392" 
d="M224 -12h-3l-18 -88h-56l20 98q-19 6 -36 20l-24 -118h-56l34 169q-55 90 -55 264q0 151 44.5 244.5t135.5 99.5l19 91h56l-20 -96q22 -6 37 -16l23 112h56l-33 -162q15 -24 31 -73l-50 -19l-88 -431q39 12 55 97l85 -31q-39 -161 -157 -161zM158 146q13 -35 29 -50
l92 449q-12 26 -32 35zM137 333v-17l52 255q-52 -47 -52 -238z" />
    <glyph glyph-name="frenchfranc" unicode="&#x20a3;" horiz-adv-x="380" 
d="M176 0h-104v127h-54v57h54v483h273v-92h-169v-189h162v-92h-162v-110h92v-57h-92v-127z" />
    <glyph glyph-name="lira" unicode="&#x20a4;" horiz-adv-x="405" 
d="M30 330v53h35q-18 50 -18 99q0 81 51 138t124 57q59 0 100 -32t53 -92l-83 -36q-9 36 -23.5 55t-41.5 19q-28 0 -48 -30t-20 -81q0 -52 19 -97h95v-53h-71q14 -38 17 -64h54v-53h-54q-11 -74 -58 -113q18 9 37 9q23 0 51.5 -14t46.5 -14q43 0 66 32l31 -82
q-13 -18 -43.5 -30.5t-62.5 -12.5q-37 0 -72.5 20.5t-55.5 20.5q-35 0 -82 -36l-33 73q38 25 60.5 64.5t22.5 79.5v3h-97v53h88q-5 17 -29 64h-59z" />
    <glyph glyph-name="uni20A6" unicode="&#x20a6;" horiz-adv-x="493" 
d="M240 238h-64v-238h-104v238h-54v57h54v84h-54v57h54v231h104l78 -231h63v231h105v-231h49v-57h-49v-84h49v-57h-49v-238h-99l-83 240v-2zM176 379v-84h45l-29 84h-16zM274 379l28 -84h15v84h-43z" />
    <glyph glyph-name="peseta" unicode="&#x20a7;" horiz-adv-x="468" 
d="M456 431h-49q-7 -78 -51 -127t-123 -49h-57v-255h-104v431h-54v61h54v175h161q78 0 122.5 -49t51.5 -126h49v-61zM223 347q65 0 77 84h-124v-84h47zM176 575v-83h124q-5 38 -25 60.5t-52 22.5h-47z" />
    <glyph glyph-name="rupee" unicode="&#x20a8;" horiz-adv-x="732" 
d="M564 -12q-97 0 -146 62l41 65q43 -52 97 -52q28 0 46.5 16.5t18.5 43.5q0 25 -19.5 44t-46.5 34.5t-54.5 34t-47 51.5t-19.5 78q0 56 38.5 93t104.5 37q77 0 130 -56l-40 -63q-33 44 -88 44q-25 0 -41 -15t-16 -37q0 -23 19.5 -41.5t47 -33.5t55 -34t47 -53t19.5 -80
q0 -61 -41.5 -99.5t-104.5 -38.5zM400 0h-112l-79 255h-48v-255h-104v667h166q75 0 123 -56t48 -147q0 -78 -26.5 -122.5t-62.5 -61.5zM208 347q38 0 58.5 31t20.5 83t-20.5 83t-58.5 31h-47v-228h47z" />
    <glyph glyph-name="uni20A9" unicode="&#x20a9;" horiz-adv-x="619" 
d="M478 0h-107l-32 238h-60l-31 -238h-107l-40 238h-74v57h65l-14 84h-51v57h41l-38 231h107l29 -231h68l33 231h85l33 -231h67l30 231h107l-39 -231h35v-57h-44l-14 -84h58v-57h-68zM393 379l12 -84h30l10 84h-52zM174 379l11 -84h29l12 84h-52zM297 379l-11 -84h45l-11 84
h-23zM413 238l8 -54l7 54h-15zM192 238l7 -54l7 54h-14zM309 466l-4 -30h8z" />
    <glyph glyph-name="afii57636" unicode="&#x20aa;" horiz-adv-x="533" 
d="M326 0h-157v395h72v-326h85q43 0 64 22.5t21 71.5v387h72v-350q0 -107 -39.5 -153.5t-117.5 -46.5zM207 550q78 0 117.5 -46.5t39.5 -153.5v-196h-73v233q0 49 -20.5 71.5t-63.5 22.5h-85v-481h-72v550h157z" />
    <glyph glyph-name="dong" unicode="&#x20ab;" horiz-adv-x="418" 
d="M335 -153h-254v57h254v-57zM356 0h-94v62q-15 -35 -41 -54.5t-52 -19.5q-68 0 -103 68t-35 185q0 116 35 185t103 69q28 0 53.5 -19t39.5 -56v113h-119v57h119v77h94v-77h41v-57h-41v-533zM198 71q20 0 38 20t26 48v205q-8 28 -26 48t-38 20q-70 0 -70 -171
q0 -170 70 -170z" />
    <glyph glyph-name="Euro" unicode="&#x20ac;" horiz-adv-x="427" 
d="M245 -12q-81 0 -128 65.5t-61 179.5h-41v61h37q-1 12 -1 39t1 41h-37v62h42q13 112 60 177t128 65q35 0 62 -12.5t45 -35.5t28.5 -45t19.5 -52l-84 -31q-12 42 -28 62.5t-43 20.5q-67 0 -82 -149h108v-62h-113v-41v-39h113v-61h-109q17 -152 83 -152q54 0 72 99l85 -31
q-39 -161 -157 -161z" />
    <glyph glyph-name="afii61289" unicode="&#x2113;" horiz-adv-x="407" 
d="M151 250v-141q0 -49 28 -49q18 0 30 15l23 -61q-26 -26 -75 -26q-50 0 -74.5 26.5t-24.5 88.5v407q0 75 47 121t125 46q64 0 112.5 -37t48.5 -98q0 -37 -17 -69.5t-64 -76.5zM151 354l91 86q32 32 46 54t14 48q0 27 -20.5 45t-51.5 18q-37 0 -58 -24.5t-21 -70.5v-156z
" />
    <glyph glyph-name="afii61352" unicode="&#x2116;" horiz-adv-x="763" 
d="M614 350q-59 0 -91 47.5t-32 117.5t32 117.5t91 47.5q60 0 91.5 -47.5t31.5 -117.5t-31.5 -117.5t-91.5 -47.5zM614 407q50 0 50 108q0 107 -50 107q-51 0 -51 -107q0 -108 51 -108zM407 0h-99l-147 386v-386h-104v667h104l141 -375v375h105v-667z" />
    <glyph glyph-name="published" unicode="&#x2117;" horiz-adv-x="778" 
d="M734 334q0 -142 -101 -243.5t-244 -101.5t-244 101.5t-101 243.5t101 243.5t244 101.5t244 -101.5t101 -243.5zM701 334q0 128 -92 220t-220 92t-219.5 -92t-91.5 -220t91.5 -220t219.5 -92t220 92t92 220zM551 418q0 -52 -36.5 -84t-89.5 -32h-112v-171h-40v405h152
q52 0 89 -32t37 -86zM510 418q0 37 -24 59t-61 22h-112v-160h112q37 0 61 22t24 57z" />
    <glyph glyph-name="servicemark" unicode="&#x2120;" horiz-adv-x="374" 
d="M337 447h-28v182l-55 -182h-8l-55 182v-182h-28v220h43l44 -157l44 157h43v-220zM122 501q0 -26 -15.5 -43t-40.5 -17q-32 0 -51 21l14 25q16 -19 34 -19q12 0 21 9t9 24q0 17 -11.5 30.5t-24.5 22t-24.5 25t-11.5 37.5q0 25 15 41t39 16q25 0 43 -16l-12 -24
q-12 13 -29 13q-11 0 -18.5 -8t-7.5 -22t11 -26.5t24.5 -21.5t24.5 -26.5t11 -40.5z" />
    <glyph glyph-name="trademark" unicode="&#x2122;" horiz-adv-x="374" 
d="M339 447h-28v182l-55 -182h-8l-55 182v-182h-28v220h43l44 -157l44 157h43v-220zM129 641h-42v-194h-28v194h-42v26h112v-26z" />
    <glyph glyph-name="Omega" unicode="&#x2126;" horiz-adv-x="447" 
d="M40 92h75q-85 87 -85 262q0 151 48.5 237.5t145.5 86.5q96 0 145 -86.5t49 -237.5q0 -173 -87 -262h76v-92h-153v92q22 23 39 88t17 153q0 251 -86 251q-87 0 -87 -251q0 -89 17 -153.5t40 -87.5v-92h-154v92z" />
    <glyph glyph-name="estimated" unicode="&#x212e;" horiz-adv-x="842" 
d="M811 324h-632q-5 0 -5 -5v-190q0 -14 9 -23q98 -103 240 -103q151 0 250 115h57q-54 -63 -135 -99.5t-174 -36.5q-161 0 -275.5 103t-114.5 248t114.5 248t275.5 103t275.5 -103t114.5 -248v-9zM668 349v191q0 14 -10 24q-97 99 -235 99q-140 0 -239 -102
q-10 -10 -10 -24v-188q0 -6 5 -6h485q4 0 4 6z" />
    <glyph glyph-name="onethird" unicode="&#x2153;" horiz-adv-x="651" 
d="M184 267h-73v306l-58 -60l-42 43l110 111h63v-400zM469 667l-277 -667h-46l276 667h47zM632 110q0 -53 -33 -85t-90 -32q-83 0 -122 65l48 43q27 -49 71 -49q54 0 54 62q0 33 -17 47.5t-41 14.5q-22 0 -28 -1v59q5 -1 25 -1q56 0 56 56q0 58 -50 58q-42 0 -68 -45l-46 40
q41 64 118 64q53 0 85 -27.5t32 -80.5q0 -32 -19.5 -58.5t-47.5 -32.5q30 -5 51.5 -32.5t21.5 -64.5z" />
    <glyph glyph-name="twothirds" unicode="&#x2154;" horiz-adv-x="687" 
d="M261 267h-232v54q102 120 130 161.5t28 77.5q0 24 -14 39t-37 15q-44 0 -71 -49l-45 42q44 66 120 66q54 0 86.5 -29.5t32.5 -81.5q0 -42 -28 -88t-111 -148h141v-59zM505 667l-277 -667h-46l276 667h47zM668 110q0 -53 -33 -85t-90 -32q-83 0 -122 65l48 43
q27 -49 71 -49q54 0 54 62q0 33 -17 47.5t-41 14.5q-22 0 -28 -1v59q5 -1 25 -1q56 0 56 56q0 58 -50 58q-42 0 -68 -45l-46 40q41 64 118 64q53 0 85 -27.5t32 -80.5q0 -32 -19.5 -58.5t-47.5 -32.5q30 -5 51.5 -32.5t21.5 -64.5z" />
    <glyph glyph-name="oneeighth" unicode="&#x215b;" horiz-adv-x="651" 
d="M184 267h-73v306l-58 -60l-42 43l110 111h63v-400zM631 101q0 -51 -32.5 -79.5t-88.5 -28.5q-57 0 -89.5 28.5t-32.5 79.5q0 35 22 64.5t51 40.5q-28 11 -47.5 36.5t-19.5 60.5q0 51 34 77t82 26t82 -26t34 -77q0 -35 -19.5 -60.5t-47.5 -36.5q29 -11 50.5 -40.5
t21.5 -64.5zM555 293q0 56 -45 56q-44 0 -44 -56q0 -19 10 -34t18.5 -20.5t15.5 -8.5q7 2 16 8t19 21t10 34zM559 108q0 30 -18 49.5t-31 22.5q-13 -3 -30.5 -22.5t-17.5 -50.5q0 -28 13.5 -43t34.5 -15t35 15t14 44zM469 667l-277 -667h-46l276 667h47z" />
    <glyph glyph-name="threeeighths" unicode="&#x215c;" horiz-adv-x="687" 
d="M667 101q0 -51 -32.5 -79.5t-88.5 -28.5q-57 0 -89.5 28.5t-32.5 79.5q0 35 22 64.5t51 40.5q-28 11 -47.5 36.5t-19.5 60.5q0 51 34 77t82 26t82 -26t34 -77q0 -35 -19.5 -60.5t-47.5 -36.5q29 -11 50.5 -40.5t21.5 -64.5zM591 293q0 56 -45 56q-44 0 -44 -56
q0 -19 10 -34t18.5 -20.5t15.5 -8.5q7 2 16 8t19 21t10 34zM595 108q0 30 -18 49.5t-31 22.5q-13 -3 -30.5 -22.5t-17.5 -50.5q0 -28 13.5 -43t34.5 -15t35 15t14 44zM505 667l-277 -667h-46l276 667h47zM262 377q0 -53 -33 -85t-90 -32q-83 0 -122 65l48 43q27 -49 71 -49
q54 0 54 62q0 33 -17 47.5t-41 14.5q-22 0 -28 -1v59q5 -1 25 -1q56 0 56 56q0 58 -50 58q-42 0 -68 -45l-46 40q41 64 118 64q53 0 85 -27.5t32 -80.5q0 -32 -19.5 -58.5t-47.5 -32.5q30 -5 51.5 -32.5t21.5 -64.5z" />
    <glyph glyph-name="fiveeighths" unicode="&#x215d;" horiz-adv-x="683" 
d="M663 101q0 -51 -32.5 -79.5t-88.5 -28.5q-57 0 -89.5 28.5t-32.5 79.5q0 35 22 64.5t51 40.5q-28 11 -47.5 36.5t-19.5 60.5q0 51 34 77t82 26t82 -26t34 -77q0 -35 -19.5 -60.5t-47.5 -36.5q29 -11 50.5 -40.5t21.5 -64.5zM587 293q0 56 -45 56q-44 0 -44 -56
q0 -19 10 -34t18.5 -20.5t15.5 -8.5q7 2 16 8t19 21t10 34zM591 108q0 30 -18 49.5t-31 22.5q-13 -3 -30.5 -22.5t-17.5 -50.5q0 -28 13.5 -43t34.5 -15t35 15t14 44zM261 395q0 -59 -34 -97t-91 -38q-79 0 -119 65l47 43q27 -49 69 -49q25 0 39.5 22t14.5 53q0 74 -50 74
q-31 0 -56 -39l-53 18v220h213v-59h-141v-119q23 33 65 33q41 0 68.5 -33.5t27.5 -93.5zM501 667l-277 -667h-46l276 667h47z" />
    <glyph glyph-name="seveneighths" unicode="&#x215e;" horiz-adv-x="630" 
d="M610 101q0 -51 -32.5 -79.5t-88.5 -28.5q-57 0 -89.5 28.5t-32.5 79.5q0 35 22 64.5t51 40.5q-28 11 -47.5 36.5t-19.5 60.5q0 51 34 77t82 26t82 -26t34 -77q0 -35 -19.5 -60.5t-47.5 -36.5q29 -11 50.5 -40.5t21.5 -64.5zM534 293q0 56 -45 56q-44 0 -44 -56
q0 -19 10 -34t18.5 -20.5t15.5 -8.5q7 2 16 8t19 21t10 34zM538 108q0 30 -18 49.5t-31 22.5q-13 -3 -30.5 -22.5t-17.5 -50.5q0 -28 13.5 -43t34.5 -15t35 15t14 44zM241 617l-111 -350h-70l112 341h-157v59h226v-50zM448 667l-277 -667h-46l276 667h47z" />
    <glyph glyph-name="arrowleft" unicode="&#x2190;" horiz-adv-x="582" 
d="M538 211h-269l12 -130l-281 205l281 204l-12 -129h269v-150z" />
    <glyph glyph-name="arrowup" unicode="&#x2191;" horiz-adv-x="582" 
d="M216 17v269l-130 -12l205 281l204 -281l-129 12v-269h-150z" />
    <glyph glyph-name="arrowright" unicode="&#x2192;" horiz-adv-x="582" 
d="M584 286l-281 -205l12 130h-268v150h268l-12 129z" />
    <glyph glyph-name="arrowdown" unicode="&#x2193;" horiz-adv-x="582" 
d="M366 555v-269l130 12l-205 -281l-204 281l129 -12v269h150z" />
    <glyph glyph-name="partialdiff" unicode="&#x2202;" 
d="M201 -12q-85 0 -127.5 69.5t-42.5 173.5q0 102 37.5 171.5t107.5 69.5q60 0 89 -65q-26 138 -96 236l80 38q121 -188 121 -439q0 -112 -42 -183t-127 -71zM201 71q72 0 72 160q0 158 -72 158t-72 -158q0 -160 72 -160z" />
    <glyph glyph-name="Delta" unicode="&#x2206;" horiz-adv-x="421" 
d="M418 0h-415l147 667h121zM297 92l-87 456l-86 -456h173z" />
    <glyph glyph-name="product" unicode="&#x220f;" horiz-adv-x="477" 
d="M407 -90h-104v665h-129v-665h-104v665h-52v92h441v-92h-52v-665z" />
    <glyph glyph-name="summation" unicode="&#x2211;" horiz-adv-x="347" 
d="M146 575l113 -277l-116 -296h173v-92h-278v96l114 293l-114 276v92h278v-92h-170z" />
    <glyph glyph-name="minus" unicode="&#x2212;" horiz-adv-x="381" 
d="M352 306h-323v62h323v-62z" />
    <glyph glyph-name="uni2215" unicode="&#x2215;" horiz-adv-x="125" 
d="M224 667l-277 -667h-46l276 667h47z" />
    <glyph glyph-name="uni2219" unicode="&#x2219;" horiz-adv-x="239" 
d="M184 245q0 -26 -19 -45.5t-46 -19.5q-26 0 -45 19.5t-19 45.5t19 45t45 19q27 0 46 -19t19 -45z" />
    <glyph glyph-name="radical" unicode="&#x221a;" horiz-adv-x="465" 
d="M289 0h-68l-69 309l-101 -21l-11 61l158 31l58 -285l128 572h63z" />
    <glyph glyph-name="infinity" unicode="&#x221e;" horiz-adv-x="488" 
d="M140 166q-55 0 -83 50t-28 119t28 119.5t83 50.5q68 0 104 -104q15 45 42 74t61 29q55 0 83.5 -50t28.5 -119t-28.5 -119t-83.5 -50q-34 0 -61 29t-42 75q-36 -104 -104 -104zM337 228q29 0 45 29.5t16 77.5q0 49 -16 78.5t-45 29.5q-42 0 -66 -108q24 -107 66 -107z
M151 228q41 0 67 107q-26 108 -67 108q-29 0 -45.5 -29.5t-16.5 -78.5q0 -48 16.5 -77.5t45.5 -29.5z" />
    <glyph glyph-name="integral" unicode="&#x222b;" horiz-adv-x="240" 
d="M46 -100h-29v65h29q16 0 27.5 13.5t11.5 33.5v643q0 49 32.5 81t76.5 32h29v-66h-29q-16 0 -27.5 -13t-11.5 -34v-643q0 -49 -32.5 -80.5t-76.5 -31.5z" />
    <glyph glyph-name="approxequal" unicode="&#x2248;" horiz-adv-x="381" 
d="M29 207v66q37 -20 81 -20q33 0 76.5 17t84.5 17q47 0 81 -15v-65q-35 19 -81 19q-33 0 -77 -17.5t-84 -17.5q-44 0 -81 16zM29 396v65q35 -19 81 -19q33 0 76.5 17t84.5 17q47 0 81 -15v-66q-35 19 -81 19q-33 0 -77 -17t-84 -17q-44 0 -81 16z" />
    <glyph glyph-name="notequal" unicode="&#x2260;" horiz-adv-x="381" 
d="M113 93h-46l47 114h-85v62h111l54 130h-165v62h191l47 113h47l-47 -113h85v-62h-112l-53 -130h165v-62h-191z" />
    <glyph glyph-name="lessequal" unicode="&#x2264;" horiz-adv-x="381" 
d="M352 158l-323 143v67l323 143v-73l-249 -104l249 -102v-74zM352 34h-323v62h323v-62z" />
    <glyph glyph-name="greaterequal" unicode="&#x2265;" horiz-adv-x="381" 
d="M352 301l-323 -143v74l249 102l-249 104v73l323 -143v-67zM352 34h-323v62h323v-62z" />
    <glyph glyph-name="triangleright" unicode="&#x22b2;" horiz-adv-x="587" 
d="M589 286l-535 -309v618z" />
    <glyph glyph-name="triangleleft" unicode="&#x22b3;" horiz-adv-x="587" 
d="M535 595v-618l-535 309z" />
    <glyph glyph-name="dotmath" unicode="&#x22c5;" horiz-adv-x="239" 
d="M184 245q0 -26 -19 -45.5t-46 -19.5q-26 0 -45 19.5t-19 45.5t19 45t45 19q27 0 46 -19t19 -45z" />
    <glyph glyph-name="uni2318" unicode="&#x2318;" horiz-adv-x="667" 
d="M224 154v71h-71q-29 0 -49.5 -21t-20.5 -50q0 -30 20.5 -51t49.5 -21t50 21t21 51zM224 442v72q0 29 -20.5 50t-49.5 21q-30 0 -50.5 -21t-20.5 -50q0 -30 20.5 -51t50.5 -21h70zM265 265h137v137h-137v-137zM584 154q0 29 -20.5 50t-49.5 21h-71v-71q0 -30 21 -51
t50 -21t49.5 21t20.5 51zM584 514q0 29 -20.5 50t-49.5 21t-50 -21t-21 -50v-72h71q29 0 49.5 21.5t20.5 50.5zM625 154q0 -46 -32.5 -79t-78.5 -33t-79 33t-33 79v71h-137v-71q0 -46 -33 -79t-79 -33t-78.5 33t-32.5 79t32.5 78.5t78.5 32.5h71v137h-70q-46 0 -79 33
t-33 79t33 78.5t79 32.5t78.5 -32.5t32.5 -78.5v-72h137v72q0 46 33 78.5t79 32.5t78.5 -32.5t32.5 -78.5t-32.5 -79t-78.5 -33h-71v-137h71q46 0 78.5 -32.5t32.5 -78.5z" />
    <glyph glyph-name="blacksquare" unicode="&#x25a0;" horiz-adv-x="661" 
d="M618 0h-571v572h571v-572z" />
    <glyph glyph-name="triagup" unicode="&#x25b2;" horiz-adv-x="616" 
d="M617 29l-619 1l309 535z" />
    <glyph glyph-name="triagdn" unicode="&#x25bc;" horiz-adv-x="616" 
d="M617 510l-310 -535l-309 535h619z" />
    <glyph glyph-name="lozenge" unicode="&#x25ca;" horiz-adv-x="375" 
d="M198 0h-21l-158 334l158 333h21l158 -333zM188 41l132 293l-133 292l-132 -292z" />
    <glyph glyph-name="circlesolid" unicode="&#x25cf;" horiz-adv-x="695" 
d="M644 285q0 -123 -87 -210t-210 -87t-210 87t-87 210t87 210t210 87t210 -87t87 -210z" />
    <glyph glyph-name="blackstar" unicode="&#x2605;" horiz-adv-x="759" 
d="M759 421l-235 -171l90 -275l-235 170l-234 -170l89 275l-234 171h290l89 276l90 -276h290z" />
    <glyph glyph-name="ballotbox" unicode="&#x2610;" horiz-adv-x="661" 
d="M616 0h-571v572h571v-572zM549 62v448h-437v-448h437z" />
    <glyph glyph-name="boxchecked" unicode="&#x2611;" horiz-adv-x="661" 
d="M682 698l-69 -126h3v-572h-571v572h496l87 160zM549 62v391l-196 -362l-202 246l49 46l144 -177l164 304h-396v-448h437z" />
    <glyph glyph-name="diamond" unicode="&#x2666;" horiz-adv-x="501" 
d="M501 285l-251 -250l-250 250l250 251z" />
    <glyph glyph-name="checkmark" unicode="&#x2713;" horiz-adv-x="531" 
d="M531 698l-329 -607l-202 246l49 46l144 -177l284 526z" />
    <glyph glyph-name="perthousand.onum" unicode="&#xf628;" horiz-adv-x="705" 
d="M230 424q0 -59 -29 -97.5t-77 -38.5t-77 38.5t-29 97.5t29 98.5t77 39.5t77 -39.5t29 -98.5zM454 126q0 -59 -29.5 -98t-76.5 -39q-48 0 -77 39t-29 98q0 60 29 99t77 39q47 0 76.5 -39.5t29.5 -98.5zM387 549l-247 -549h-46l247 549h46zM169 424q0 38 -12 62t-33 24
t-33.5 -24t-12.5 -62q0 -37 12.5 -60.5t33.5 -23.5t33 23t12 61zM394 126q0 37 -12.5 61t-33.5 24t-34 -24t-13 -61t13 -61t34 -24t33.5 24t12.5 61zM687 126q0 -59 -29.5 -98t-76.5 -39q-48 0 -77 39t-29 98q0 60 29 99t77 39q47 0 76.5 -39.5t29.5 -98.5zM627 126
q0 37 -12.5 61t-33.5 24t-34 -24t-13 -61t13 -61t34 -24t33.5 24t12.5 61z" />
    <glyph glyph-name="uniF637" unicode="&#xf637;" horiz-adv-x="300" 
d="M260 326h-70v224q0 38 -31 38q-15 0 -28.5 -13t-20.5 -30v-219h-69v434h69v-161q11 19 33.5 34t45.5 15q71 0 71 -75v-247z" />
    <glyph glyph-name="zero.tzero" unicode="&#xf638;" horiz-adv-x="419" 
d="M209 -12q-59 0 -103 47l-15 -35h-64l42 94q-42 92 -42 239q0 90 16 164t59 127t107 53q59 0 102 -46l16 36h64l-43 -94q43 -92 43 -240q0 -90 -16 -164t-58.5 -127.5t-107.5 -53.5zM209 81q46 0 60.5 65.5t14.5 186.5q0 34 -2 92l-131 -290q17 -54 58 -54zM134 333
q0 -62 2 -91l130 289q-18 53 -57 53q-24 0 -40 -19.5t-23 -57.5t-9.5 -77.5t-2.5 -96.5z" />
    <glyph glyph-name="zero.tnum" unicode="&#xf639;" horiz-adv-x="419" 
d="M209 -12q-64 0 -107 53.5t-59 127.5t-16 164t16 164t59 127t107 53t107 -53t59 -127t16 -164t-16 -164t-58.5 -127.5t-107.5 -53.5zM209 81q46 0 60.5 65.5t14.5 186.5t-14.5 186t-60.5 65q-24 0 -40 -19.5t-23 -57.5t-9.5 -77.5t-2.5 -96.5q0 -121 14.5 -186.5
t60.5 -65.5z" />
    <glyph glyph-name="two.tnum" unicode="&#xf63a;" horiz-adv-x="419" 
d="M385 0h-336v87q152 214 190 282.5t38 124.5q0 38 -20 64t-52 26q-64 0 -103 -78l-69 61q65 110 176 110q79 0 126.5 -50t47.5 -131q0 -66 -38.5 -144t-159.5 -260h200v-92z" />
    <glyph glyph-name="three.tnum" unicode="&#xf63b;" horiz-adv-x="419" 
d="M204 -12q-60 0 -106.5 30.5t-72.5 79.5l73 60q38 -77 101 -77q81 0 81 108q0 57 -25.5 81.5t-59.5 24.5q-30 0 -39 -2v95q8 -1 35 -1q38 0 60 24.5t22 71.5q0 101 -74 101q-63 0 -96 -70l-70 55q27 52 72 80t99 28q78 0 125 -45t47 -134q0 -53 -28 -97t-73 -56
q47 -10 78 -56t31 -107q0 -87 -47.5 -140.5t-132.5 -53.5z" />
    <glyph glyph-name="four.tnum" unicode="&#xf63c;" horiz-adv-x="419" 
d="M345 0h-104v158h-218v93l199 416h123v-417h51v-92h-51v-158zM241 250v292l-132 -292h132z" />
    <glyph glyph-name="five.tnum" unicode="&#xf63d;" horiz-adv-x="419" 
d="M205 -12q-63 0 -104.5 27.5t-71.5 82.5l71 60q35 -77 99 -77q37 0 59 37.5t22 89.5q0 127 -73 127q-48 0 -83 -58l-78 22v368h311v-92h-207v-203q32 54 94 54q65 0 104 -56t39 -160q0 -95 -49.5 -158.5t-132.5 -63.5z" />
    <glyph glyph-name="six.tnum" unicode="&#xf63e;" horiz-adv-x="419" 
d="M222 -12q-52 0 -89.5 28t-58 78t-30 109t-9.5 130q0 151 51.5 247.5t152.5 96.5q43 0 79.5 -21.5t57.5 -58.5l-57 -73q-26 60 -77 60q-35 0 -58.5 -36.5t-33 -87.5t-9.5 -112v-11q14 38 43 62.5t66 24.5q61 0 100.5 -56t39.5 -158q0 -94 -45.5 -158t-122.5 -64zM216 81
q35 0 51 36t16 89q0 128 -67 128q-48 0 -75 -86q5 -167 75 -167z" />
    <glyph glyph-name="seven.tnum" unicode="&#xf63f;" horiz-adv-x="419" 
d="M212 0h-111l157 575h-212v92h326v-72z" />
    <glyph glyph-name="eight.tnum" unicode="&#xf640;" horiz-adv-x="419" 
d="M210 -12q-86 0 -131.5 46.5t-45.5 129.5q0 59 33 109.5t76 70.5q-41 18 -71 62t-30 102q0 82 48.5 125.5t120.5 43.5q71 0 120 -43.5t49 -125.5q0 -58 -30.5 -102t-71.5 -62q43 -20 76.5 -70t33.5 -109q0 -83 -46 -130t-131 -47zM210 379q10 5 22 15t27.5 37t15.5 59
q0 44 -16.5 69t-48.5 25q-66 0 -66 -94q0 -32 15.5 -59t28 -37.5t22.5 -14.5zM210 81q31 0 51.5 25.5t20.5 72.5q0 51 -27 87t-45 40q-18 -4 -45 -40t-27 -87q0 -47 19.5 -72.5t52.5 -25.5z" />
    <glyph glyph-name="nine.tnum" unicode="&#xf641;" horiz-adv-x="419" 
d="M180 -11q-43 0 -79.5 21.5t-56.5 58.5l57 73q26 -60 77 -60q33 0 56.5 35t34 87t10.5 113v12q-15 -38 -43.5 -62.5t-65.5 -24.5q-61 0 -100.5 55.5t-39.5 158.5q0 94 45.5 158t122.5 64q51 0 88.5 -28t58.5 -78t30.5 -109t9.5 -130q0 -151 -52 -247.5t-153 -96.5z
M203 332q48 0 75 86q-3 167 -73 167q-35 0 -52 -36t-17 -89q0 -68 19 -98t48 -30z" />
    <glyph glyph-name="percent.onum" unicode="&#xf642;" horiz-adv-x="471" 
d="M230 424q0 -59 -29 -97.5t-77 -38.5t-77 38.5t-29 97.5t29 98.5t77 39.5t77 -39.5t29 -98.5zM454 126q0 -59 -29.5 -98t-76.5 -39q-48 0 -77 39t-29 98q0 60 29 99t77 39q47 0 76.5 -39.5t29.5 -98.5zM383 550l-248 -550h-46l248 550h46zM169 424q0 38 -12 62t-33 24
t-33.5 -24t-12.5 -62q0 -37 12.5 -60.5t33.5 -23.5t33 23t12 61zM394 126q0 37 -12.5 61t-33.5 24t-34 -24t-13 -61t13 -61t34 -24t33.5 24t12.5 61z" />
    <glyph glyph-name="zero.tonum" unicode="&#xf643;" horiz-adv-x="419" 
d="M391 275q0 -73 -16 -134.5t-58.5 -107t-107.5 -45.5q-49 0 -85.5 25.5t-57 68.5t-30 91.5t-9.5 101.5q0 74 16 135.5t59 106.5t107 45t107 -45t59 -106.5t16 -135.5zM284 275q0 194 -75 194t-75 -194t75 -194t75 194z" />
    <glyph glyph-name="one.tonum" unicode="&#xf644;" horiz-adv-x="419" 
d="M324 0h-104v414l-95 -101l-61 64l169 173h91v-550z" />
    <glyph glyph-name="two.tonum" unicode="&#xf645;" horiz-adv-x="419" 
d="M366 0h-317v88q219 187 219 292q0 39 -19 64t-50 25q-60 0 -97 -73l-69 56q61 110 173 110q76 0 122 -45.5t46 -120.5q0 -133 -185 -304h177v-92z" />
    <glyph glyph-name="three.tonum" unicode="&#xf646;" horiz-adv-x="419" 
d="M204 -127q-60 0 -106.5 30.5t-72.5 79.5l73 60q38 -77 101 -77q81 0 81 108q0 57 -25.5 81.5t-59.5 24.5q-30 0 -39 -2v95q8 -1 35 -1q38 0 60 24.5t22 71.5q0 101 -74 101q-63 0 -96 -70l-70 55q27 52 72 80t99 28q78 0 125 -45t47 -134q0 -53 -28 -97t-73 -56
q47 -10 78 -56t31 -107q0 -87 -47.5 -140.5t-132.5 -53.5z" />
    <glyph glyph-name="four.tonum" unicode="&#xf647;" horiz-adv-x="419" 
d="M396 45h-51v-162h-104v162h-218v94l199 411h123v-413h51v-92zM241 137v288l-132 -288h132z" />
    <glyph glyph-name="five.tonum" unicode="&#xf648;" horiz-adv-x="419" 
d="M205 -129q-63 0 -104.5 27.5t-71.5 82.5l71 60q35 -77 99 -77q37 0 59 37.5t22 89.5q0 127 -73 127q-48 0 -83 -58l-78 22v368h311v-92h-207v-203q32 54 94 54q65 0 104 -56t39 -160q0 -95 -49.5 -158.5t-132.5 -63.5z" />
    <glyph glyph-name="six.tonum" unicode="&#xf649;" horiz-adv-x="419" 
d="M222 -12q-52 0 -89.5 28t-58 78t-30 109t-9.5 130q0 151 51.5 247.5t152.5 96.5q43 0 79.5 -21.5t57.5 -58.5l-57 -73q-26 60 -77 60q-35 0 -58.5 -36.5t-33 -87.5t-9.5 -112v-11q14 38 43 62.5t66 24.5q61 0 100.5 -56t39.5 -158q0 -94 -45.5 -158t-122.5 -64zM216 81
q35 0 51 36t16 89q0 128 -67 128q-48 0 -75 -86q5 -167 75 -167z" />
    <glyph glyph-name="seven.tonum" unicode="&#xf64a;" horiz-adv-x="419" 
d="M212 -117h-111l157 575h-212v92h326v-72z" />
    <glyph glyph-name="eight.tonum" unicode="&#xf64b;" horiz-adv-x="419" 
d="M210 -12q-86 0 -131.5 46.5t-45.5 129.5q0 59 33 109.5t76 70.5q-41 18 -71 62t-30 102q0 82 48.5 125.5t120.5 43.5q71 0 120 -43.5t49 -125.5q0 -58 -30.5 -102t-71.5 -62q43 -20 76.5 -70t33.5 -109q0 -83 -46 -130t-131 -47zM210 379q10 5 22 15t27.5 37t15.5 59
q0 44 -16.5 69t-48.5 25q-66 0 -66 -94q0 -32 15.5 -59t28 -37.5t22.5 -14.5zM210 81q31 0 51.5 25.5t20.5 72.5q0 51 -27 87t-45 40q-18 -4 -45 -40t-27 -87q0 -47 19.5 -72.5t52.5 -25.5z" />
    <glyph glyph-name="nine.tonum" unicode="&#xf64c;" horiz-adv-x="419" 
d="M180 -127q-43 0 -79.5 21.5t-56.5 58.5l57 73q26 -60 77 -60q33 0 56.5 35t34 87t10.5 113v12q-15 -38 -43.5 -62.5t-65.5 -24.5q-61 0 -100.5 55.5t-39.5 158.5q0 94 45.5 158t122.5 64q51 0 88.5 -28t58.5 -78t30.5 -109t9.5 -130q0 -151 -52 -247.5t-153 -96.5z
M203 216q48 0 75 86q-3 167 -73 167q-35 0 -52 -36t-17 -89q0 -68 19 -98t48 -30z" />
    <glyph glyph-name="colonmonetary.onum" unicode="&#xf64d;" horiz-adv-x="371" 
d="M69 -53l21 99q-57 74 -57 229q0 126 40.5 203.5t123.5 83.5l8 37h43l-9 -41q18 -4 26 -8l10 49h42l-16 -76q26 -27 47 -88l-70 -23l-71 -338h1q43 0 61 71l79 -25q-18 -60 -49.5 -96t-90.5 -36q-3 0 -9 0.5t-9 0.5l-9 -42h-42l11 52q-9 3 -25 13l-14 -65h-42zM149 130
q7 -22 20 -38l76 365q-9 12 -23 17zM133 275v-21l44 211q-44 -36 -44 -190z" />
    <glyph glyph-name="Euro.onum" unicode="&#xf64e;" horiz-adv-x="383" 
d="M234 308h-89v-33v-34h89v-50h-85q13 -117 71 -117q43 0 61 71l79 -25q-18 -60 -49.5 -96t-90.5 -36q-73 0 -115 54.5t-55 148.5h-35v50h31q-1 11 -1 34q0 22 1 33h-31v50h35q12 95 54.5 149.5t115.5 54.5q58 0 89.5 -34.5t50.5 -92.5l-79 -26q-22 67 -61 67
q-58 0 -71 -118h85v-50z" />
    <glyph glyph-name="florin.onum" unicode="&#xf64f;" horiz-adv-x="348" 
d="M132 -119h-106l72 328h-37v70h53l33 147q32 135 138 135q46 0 73 -27l-40 -77q-7 12 -24 12q-30 0 -44 -58l-29 -132h64v-70h-80z" />
    <glyph glyph-name="numbersign.onum" unicode="&#xf650;" horiz-adv-x="381" 
d="M365 397l-12 -55h-52l-30 -131h53l-13 -55h-54l-35 -156h-67l38 156h-61l-36 -156h-67l37 156h-50l13 55h51l30 131h-51l12 55h52l35 153h67l-36 -153h60l35 153h66l-36 -153h51zM236 342h-61l-30 -131h60z" />
    <glyph glyph-name="sterling.onum" unicode="&#xf651;" horiz-adv-x="335" 
d="M23 228v56h41q-27 69 -27 123q0 68 43 111t102 43q49 0 83.5 -26.5t44.5 -73.5l-74 -28q-15 57 -50 57q-22 0 -37.5 -23.5t-15.5 -60.5q0 -46 28 -122h66v-56h-49q5 -25 5 -44q0 -51 -39 -100q12 6 20 6q18 0 40 -10.5t36 -10.5q33 0 55 26l30 -67q-30 -37 -92 -37
q-32 0 -59 15t-42 15q-30 0 -68 -28l-29 61q65 43 65 109q0 24 -13 65h-64z" />
    <glyph glyph-name="yen.onum" unicode="&#xf652;" horiz-adv-x="358" 
d="M228 0h-98v111h-110v55h110v63h-110v55h87l-109 266h103l78 -222l78 222h103l-110 -266h88v-55h-110v-63h110v-55h-110v-111z" />
    <glyph glyph-name="cent.onum" unicode="&#xf654;" horiz-adv-x="371" 
d="M173 -89v81q-71 15 -105.5 91t-34.5 192t34.5 192t105.5 91v63h69v-63q72 -18 106 -123l-79 -26q-13 38 -27 52v-373q16 16 27 57l79 -25q-33 -112 -106 -128v-81h-69zM133 275q0 -147 40 -187v373q-40 -39 -40 -186z" />
    <glyph glyph-name="zero.dnom" unicode="&#xf655;" horiz-adv-x="281" 
d="M266 200q0 -85 -31.5 -146t-93.5 -61q-63 0 -94.5 61t-31.5 146t31.5 145.5t94.5 60.5q62 0 93.5 -60.5t31.5 -145.5zM191 200q0 147 -50 147q-51 0 -51 -147q0 -148 51 -148q50 0 50 148z" />
    <glyph glyph-name="one.dnom" unicode="&#xf656;" horiz-adv-x="232" 
d="M184 0h-73v306l-58 -60l-42 43l110 111h63v-400z" />
    <glyph glyph-name="two.dnom" unicode="&#xf657;" horiz-adv-x="281" 
d="M261 0h-232v54q102 120 130 162t28 77q0 24 -14 39t-37 15q-44 0 -71 -49l-45 42q44 66 120 66q54 0 86.5 -29.5t32.5 -81.5q0 -42 -28 -88t-111 -148h141v-59z" />
    <glyph glyph-name="three.dnom" unicode="&#xf658;" horiz-adv-x="281" 
d="M262 110q0 -53 -33 -85t-90 -32q-83 0 -122 65l48 43q27 -49 71 -49q54 0 54 62q0 33 -17 47.5t-41 14.5q-22 0 -28 -1v59q5 -1 25 -1q56 0 56 56q0 58 -50 58q-42 0 -68 -45l-46 40q41 64 118 64q53 0 85 -27.5t32 -80.5q0 -32 -19.5 -58.5t-47.5 -32.5
q30 -5 51.5 -32.5t21.5 -64.5z" />
    </font>
</defs>
</svg>
